<svg id="Layer_1" data-name="Layer 1" xmlns="http://www.w3.org/2000/svg" viewBox="0 0 30.3 9.92"><defs><style>.cls-1{fill:#ed8d35;}.cls-2{fill:#231f20;}</style></defs><rect class="cls-1" width="1.85" height="9.92"/><rect class="cls-1" x="2.63" width="0.7" height="9.92"/><rect class="cls-1" x="4.25" width="26.06" height="9.92"/><path class="cls-2" d="M6.82,6.91V3.52H6.33V3H8v.57H7.5V6.91H8v.57H6.33V6.91Z"/><path class="cls-2" d="M9.56,4.33v.38a1.87,1.87,0,0,1,1.08-.43.88.88,0,0,1,.51.14.7.7,0,0,1,.26.36,2.34,2.34,0,0,1,.06.61V6.93H12v.55H10.85V5.42a.72.72,0,0,0-.1-.47.37.37,0,0,0-.27-.11,1.54,1.54,0,0,0-.92.4V6.93h.54v.55H8.38V6.93h.56v-2H8.38V4.33Z"/><path class="cls-2" d="M13.43,7.53l-1-2.65h-.55V4.33h1.58v.55H13l.68,1.78.68-1.78h-.44V4.33h1.54v.55H15L14,7.53Z"/><path class="cls-2" d="M15.49,5.9A1.59,1.59,0,0,1,16,4.71a1.62,1.62,0,0,1,1.18-.47,1.65,1.65,0,0,1,1.17.46,1.6,1.6,0,0,1,.49,1.2,1.61,1.61,0,0,1-.49,1.21,1.67,1.67,0,0,1-1.17.46A1.63,1.63,0,0,1,16,7.1,1.6,1.6,0,0,1,15.49,5.9Zm.66,0a1,1,0,0,0,.29.77,1,1,0,0,0,.71.29.94.94,0,0,0,.71-.3,1,1,0,0,0,.29-.76,1.06,1.06,0,0,0-.29-.76,1,1,0,0,0-1.43,0A1.08,1.08,0,0,0,16.15,5.9Z"/><path class="cls-2" d="M19.77,6.93v-2h-.49V4.33h1.1v2.6h.49v.55H19.28V6.93Zm-.09-3.67a.35.35,0,0,1,.1-.26.34.34,0,0,1,.27-.12.4.4,0,0,1,.27.11.37.37,0,0,1,.11.27.36.36,0,0,1-.11.26.4.4,0,0,1-.27.11.36.36,0,0,1-.26-.11A.33.33,0,0,1,19.68,3.26Z"/><path class="cls-2" d="M24.23,4.33V5.52h-.56A.76.76,0,0,0,23.4,5a.89.89,0,0,0-.55-.18.85.85,0,0,0-.68.3,1.12,1.12,0,0,0-.26.77,1.28,1.28,0,0,0,.25.79.83.83,0,0,0,.71.34,1,1,0,0,0,.95-.62l.51.24a1.51,1.51,0,0,1-1.48.94,1.47,1.47,0,0,1-1.18-.51,1.77,1.77,0,0,1-.43-1.18,1.6,1.6,0,0,1,.47-1.18,1.48,1.48,0,0,1,1.08-.46,1.28,1.28,0,0,1,.88.31V4.33Z"/><path class="cls-2" d="M28.05,6.06H25.4a1.15,1.15,0,0,0,.35.7,1,1,0,0,0,.73.27,1.21,1.21,0,0,0,1-.52l.54.24a1.71,1.71,0,0,1-.69.62,2.1,2.1,0,0,1-.89.2,1.82,1.82,0,0,1-1.24-.45,1.55,1.55,0,0,1-.51-1.22,1.57,1.57,0,0,1,.5-1.19,1.63,1.63,0,0,1,1.15-.47,1.69,1.69,0,0,1,1.15.46A1.77,1.77,0,0,1,28.05,6.06Zm-.64-.45a1.08,1.08,0,0,0-.34-.6,1,1,0,0,0-.69-.27.9.9,0,0,0-.63.24,1,1,0,0,0-.32.63Z"/></svg>