<svg xmlns="http://www.w3.org/2000/svg" viewBox="0 0 45.27 44.33"><defs><style>.cls-1{fill:#a41e22;}</style></defs><g id="Layer_2" data-name="Layer 2"><path class="cls-1" d="M39.28,33.93l-24,0a.94.94,0,0,1-.89-.65l-1-3.35,21.52-.1a2,2,0,0,0,1.94-1.44l1.84-6a9.67,9.67,0,0,1-1.53.14,9.42,9.42,0,0,1-9.4-9.41A9.14,9.14,0,0,1,28,11.1l-20.17.09L6.51,6.76A2.38,2.38,0,0,0,4.34,5.05L.91,4.88a.85.85,0,0,0-.9.81.87.87,0,0,0,.81.9l3.44.17a.66.66,0,0,1,.61.48l7.85,26.57a2.64,2.64,0,0,0,2.52,1.88l24,0a.87.87,0,0,0,.86-.86A.85.85,0,0,0,39.28,33.93Z"/><circle class="cls-1" cx="17.63" cy="40.62" r="3.26"/><path class="cls-1" d="M36.32,37.36a3.26,3.26,0,1,0,3.27,3.26A3.26,3.26,0,0,0,36.32,37.36Z"/><path class="cls-1" d="M37.13,5.51a7.7,7.7,0,0,0,0,15.39,7.61,7.61,0,0,0,2.1-.3,7.69,7.69,0,0,0-2.1-15.09Zm3.59,9.71a1.3,1.3,0,0,1,0,1.62,1.19,1.19,0,0,1-.41.26,1.14,1.14,0,0,1-1.21-.26L37.22,15l-1.89,1.88a1.13,1.13,0,0,1-1.61,0,1.14,1.14,0,0,1,0-1.62l1.88-1.88-1.88-1.88a1,1,0,0,1-.25-.39,1,1,0,0,1-.09-.41,1.15,1.15,0,0,1,1.95-.82l1.22,1.22.67.66.67-.67L39.1,9.84a1.16,1.16,0,0,1,1.62,0,1.17,1.17,0,0,1,.33.82A1.27,1.27,0,0,1,41,11a1.23,1.23,0,0,1-.26.42l-1.88,1.88Z"/></g></svg>