<svg xmlns="http://www.w3.org/2000/svg" viewBox="0 0 41.59 44.33"><defs><style>.cls-1{fill:#f08921;}</style></defs><g id="Layer_2" data-name="Layer 2"><path class="cls-1" d="M29.32,28.59h0l-.09-.35h0l-.1-.22,0-.07L29,27.81a3.18,3.18,0,0,1-.26-.44l-.15-.26s-.06-.07-.06-.12l-.08-.12a.64.64,0,0,1-.11-.2l-.14-.24a.25.25,0,0,1-.07-.12l-.07-.12a1.23,1.23,0,0,1-.14-.25h0l-.08-.12s0,0,0-.05a.35.35,0,0,1-.07-.12.26.26,0,0,1-.05-.09h0a.24.24,0,0,1-.07-.12.51.51,0,0,1-.09-.16h0l-.08-.12a.51.51,0,0,1-.09-.16l0-.05a.5.5,0,0,1-.1-.19l-.13-.21h0a.51.51,0,0,1-.09-.16.12.12,0,0,1,0-.08h0l-.13-.21a.78.78,0,0,1-.11-.2.14.14,0,0,1-.05-.08.41.41,0,0,1-.05-.09h0l-.11-.2a.32.32,0,0,1-.09-.16.92.92,0,0,1-.13-.21.16.16,0,0,1,0-.07l-.1-.17a.23.23,0,0,1-.06-.12L26,22.67a2.49,2.49,0,0,1-.15-.28l-.05-.08a.13.13,0,0,1,0-.09.25.25,0,0,1-.08-.12.23.23,0,0,1-.06-.12.28.28,0,0,1-.08-.11c0-.06-.08-.1-.09-.17l0-.09h0l-.05-.07a.15.15,0,0,1,0-.09l-.05-.08a.67.67,0,0,1-.12-.2L25.11,21a.32.32,0,0,1-.09-.16.24.24,0,0,1-.07-.12.7.7,0,0,1-.1-.16,0,0,0,0,1,0,0,2,2,0,0,1-.18-.32.26.26,0,0,1-.08-.13l-.1-.17h0a.51.51,0,0,1-.09-.16l-.11-.2a.51.51,0,0,1-.12-.2.33.33,0,0,1-.07-.13A.72.72,0,0,1,24,19c0-.05-.09-.09-.09-.15a.24.24,0,0,1-.07-.13l-.08-.12s0,0,0,0a1.56,1.56,0,0,1-.16-.28h0a.59.59,0,0,1-.1-.17.92.92,0,0,1-.13-.24l-.08-.11-.18-.33L23,17.38l0-.07L22.69,17a0,0,0,0,1,0,0l-.08-.08c-.07,0-.1-.08-.16-.11l-.08-.05h0s0,0,0,0l-.11,0-.36-.12a.39.39,0,0,1-.15,0h-.41a.39.39,0,0,1-.15,0,.1.1,0,0,1-.09,0,.12.12,0,0,1-.1,0l-.27.12a.1.1,0,0,1-.08,0l-.07,0-.13.1h0l-.2.18s0,.07-.07.07L20,17.3a1,1,0,0,1-.14.24h0l-.1.16a.11.11,0,0,1-.05.09h0a.24.24,0,0,1-.06.11s0,.06-.05.07,0,.05,0,.06-.13.21-.18.32a.17.17,0,0,1-.06.12.29.29,0,0,1-.07.12l-.07.11a.68.68,0,0,1-.15.26h0L19,19a.19.19,0,0,1-.07.12l-.1.16s0,.05,0,.05l-.12.21a.72.72,0,0,1-.14.24l-.12.21a.4.4,0,0,1-.09.17s0,.05-.05.06l0,0a.06.06,0,0,1-.05.07l-.12.21a.35.35,0,0,1-.09.17s0,.09-.07.11l-.1.17a.1.1,0,0,1,0,.09l-.21.36a.67.67,0,0,1-.12.2l-.07.13a2,2,0,0,1-.24.4l0,0a.11.11,0,0,1-.05.09h0l-.33.57a.28.28,0,0,1-.09.16l-.07.12a.1.1,0,0,1,0,.08l-.13.21a.2.2,0,0,1-.06.12.47.47,0,0,1-.07.12h0l-.13.2a1.06,1.06,0,0,1-.18.33l-.17.28a.15.15,0,0,1-.07.12l-.12.21a.17.17,0,0,1-.06.12.13.13,0,0,1,0,.09l-.05.08a.37.37,0,0,1-.09.16.2.2,0,0,1-.08.12l-.06.11a.11.11,0,0,1,0,.09l-.05.08a.7.7,0,0,1-.11.21.57.57,0,0,1-.13.21l-.14.24a.2.2,0,0,1-.06.12.14.14,0,0,1-.05.08h0l-.21.36a2.41,2.41,0,0,1-.22.37l-.09.17a.29.29,0,0,1-.1.16l-.11.2s0,0,0,0l0,.05a.66.66,0,0,1-.09.19h0a.19.19,0,0,1-.05.1h0s0,.06,0,.09l0,.16h0a.23.23,0,0,1,0,.12h0v.47h0a.86.86,0,0,1,.05.23l0,.14a.36.36,0,0,1,.07.17,1.41,1.41,0,0,0,.23.35.28.28,0,0,1,.12.12l.05.05a.1.1,0,0,1,.07.07l.14.1a.61.61,0,0,1,.21.11l0,0a.15.15,0,0,1,.11,0s0,0,.08,0l.49.07h12a2.62,2.62,0,0,0,1-.16l.09,0s0,0,0,0l.12-.08h0l.1-.07a.26.26,0,0,1,.09-.09l.1-.09.11-.15.16-.25.06-.12a.19.19,0,0,1,0-.12.1.1,0,0,1,0-.07,2.05,2.05,0,0,0,.05-.7Zm-1.47,1.06a1.06,1.06,0,0,1-.31,0H15.42a.87.87,0,0,1-.76-1.32c.35-.62.71-1.24,1.07-1.85l4-7,1-1.71a.86.86,0,0,1,1.52,0q2.22,3.87,4.46,7.73c.53.93,1.07,1.86,1.61,2.79A.87.87,0,0,1,27.85,29.65Z"/><path class="cls-1" d="M24.87,23.05,22,18A.52.52,0,0,0,21,18l-1.5,2.6L15,28.53a.51.51,0,0,0-.09.26.52.52,0,0,0,.56.56H27.56a.51.51,0,0,0,.39-.14.52.52,0,0,0,.07-.7ZM21.92,28a.53.53,0,0,1-.84,0,.75.75,0,0,1,0-.93.53.53,0,0,1,.88,0,.85.85,0,0,1,.13.48A.72.72,0,0,1,21.92,28ZM22,24.24c-.05.65-.11,1.31-.16,2,0,.1,0,.14-.15.13s-.28,0-.42,0-.11,0-.11-.09L21,24.07c0-.4-.08-.81-.11-1.22,0-.19,0-.39,0-.58h0v-.49a.8.8,0,0,1,.21-.53.57.57,0,0,1,.9.06.88.88,0,0,1,.16.5A19.79,19.79,0,0,1,22,24.24Z"/><path class="cls-1" d="M16.3,4.33c0,.28.06.37.37.38,1,0,1,0,1,1.06a1.5,1.5,0,0,1,0,.3c-.08.46.14.48.52.42a17.42,17.42,0,0,1,5.94,0c.34.06.56,0,.49-.38a2.29,2.29,0,0,1,0-.37c0-1,0-1,1-1,.33,0,.45-.08.44-.43,0-1,0-2.08,0-3.11,0-.46-.09-.62-.6-.62-2.64,0-5.28,0-7.92,0-1.32,0-1.32,0-1.22,1.32V2c0,.29,0,.57,0,.85V3C16.33,3.43,16.33,3.88,16.3,4.33Z"/><path class="cls-1" d="M40,10.11c-1.42-1.39-2.82-2.8-4.23-4.2-.08-.09-.16-.16-.31-.3l-.8.88c-.36.38-1,.73-1,1.14s.65.75,1,1.14a.34.34,0,0,0,.09.08c.22.16.19.3,0,.48-.38.34-.71.72-1.09,1.07-.22.2-.27.33,0,.56a15.68,15.68,0,0,1,1.28,1.3c.21.23.33.29.56,0s.73-.71,1.06-1.09.36-.22.57,0,.61.59.89.91.31.22.52,0c.48-.52,1-1,1.5-1.51C40.19,10.44,40.2,10.32,40,10.11Z"/><path class="cls-1" d="M38.54,22.1h0a3.84,3.84,0,0,0-.17-1.26A17.58,17.58,0,0,0,3.78,27.07,15.43,15.43,0,0,0,5.83,33a7.22,7.22,0,0,0,1.09,1.73A16.79,16.79,0,0,0,13.1,40.1a14.63,14.63,0,0,0,5.16,1.68.92.92,0,0,0,.63.11c.2,0,.4.09.6.11,6.74.44,12.18-2,16.12-7.52a16.52,16.52,0,0,0,3-11.61A1.37,1.37,0,0,0,38.54,22.1ZM29,36.92a14.79,14.79,0,0,1-7.59,2.31h-.61A14.83,14.83,0,0,1,10.9,35a16.53,16.53,0,0,1-2.53-3.24l-.22-.36a15.69,15.69,0,0,1-1.69-7.33A14.74,14.74,0,0,1,27.39,11.16c.13.06.26.1.39.15l.38.21a2.24,2.24,0,0,0,.69.39l.29.19a15,15,0,0,1,5.79,7.18,16.33,16.33,0,0,1,.93,4.08v2.32A14.69,14.69,0,0,1,29,36.92Z"/><path class="cls-1" d="M34.85,25.18V23.56l-2.31.83Z"/><path class="cls-1" d="M33.2,18c-.23-.35-.43-.72-.66-1.11L31,18.7l2-.35C33.22,18.31,33.38,18.26,33.2,18Z"/><path class="cls-1" d="M9.06,30.72c0,.28.24.44.29.69l.47.71,1.54-1.82-1.71.27C9.48,30.72,9.25,30.63,9.06,30.72Z"/><path class="cls-1" d="M21.06,13.12l.43-1.24c.4-1.14.4-1.12-.84-1.08-.33,0-.38.11-.28.39C20.59,11.79,20.8,12.39,21.06,13.12Z"/><path class="cls-1" d="M14.84,36.64c.26.17.34.07.38-.19.11-.65.23-1.3.36-2.05L13.73,36C14.15,36.23,14.5,36.42,14.84,36.64Z"/><path class="cls-1" d="M33,30.43c-.62-.08-1.23-.22-2-.35l1.6,1.85c.22-.38.39-.69.59-1S33.44,30.49,33,30.43Z"/><path class="cls-1" d="M27.41,36.68l1.4-.81L27,34.27C27.12,35.15,27.26,35.9,27.41,36.68Z"/><path class="cls-1" d="M9.68,17.06l-.81,1.41,2.4.43Z"/><path class="cls-1" d="M15.39,14.72c-.17-.9-.31-1.62-.46-2.4L13.81,13c-.12.07-.29.13-.1.3Z"/><path class="cls-1" d="M28.61,13l-1.4-.79c-.15.77-.28,1.48-.42,2.18l.13.07Z"/><path class="cls-1" d="M7.54,23.81V25.4l2.27-.79Z"/><path class="cls-1" d="M20.49,38.13h1.6l-.81-2.28C21,36.7,20.75,37.4,20.49,38.13Z"/></g></svg>