<svg xmlns="http://www.w3.org/2000/svg" viewBox="0 0 41.59 44.33"><defs><style>.cls-1{fill:#a41e22;}.cls-2{fill:#f08921;}</style></defs><g id="Layer_2" data-name="Layer 2"><path class="cls-1" d="M21.67,16a7.69,7.69,0,1,0,7.69,7.69A7.7,7.7,0,0,0,21.67,16Zm3.58,9.71a1.13,1.13,0,0,1,.12.18,1.13,1.13,0,0,1-1.73,1.43l-1.88-1.88-1.89,1.88a1.12,1.12,0,0,1-1.62,0,1.15,1.15,0,0,1,0-1.61l1.88-1.88L18.25,22a1.18,1.18,0,0,1-.25-.39,1.2,1.2,0,0,1-.08-.42,1.13,1.13,0,0,1,.33-.81,1.16,1.16,0,0,1,1.62,0l1.22,1.22.67.66.67-.67,1.21-1.21a1.15,1.15,0,0,1,1.95.81,1,1,0,0,1-.08.38,1,1,0,0,1-.26.43l-1.88,1.88Z"/><path class="cls-2" d="M16.41,3.77c0,.29.06.38.36.39,1,0,1,0,1,1a1.61,1.61,0,0,1,0,.31c-.07.45.15.47.52.41a17.94,17.94,0,0,1,5.94,0c.34.06.56.06.49-.38a2.16,2.16,0,0,1,0-.36c0-1,0-1,1-1,.34,0,.46-.08.45-.44,0-1,0-2.07,0-3.11,0-.46-.09-.62-.59-.61C23,0,20.31,0,17.67,0c-1.32,0-1.32,0-1.23,1.31V2.44C16.43,2.88,16.43,3.33,16.41,3.77Z"/><path class="cls-2" d="M40.09,9.56c-1.41-1.39-2.81-2.8-4.22-4.21l-.31-.29c-.29.31-.54.6-.81.88s-1,.73-1,1.14.64.74,1,1.13l.09.09c.22.16.19.3,0,.48-.37.34-.71.72-1.08,1.06s-.27.34,0,.57A17.46,17.46,0,0,1,35,11.71c.2.22.32.29.55,0s.73-.71,1.07-1.09.36-.22.56,0,.61.6.9.92.31.22.51,0c.49-.51,1-1,1.51-1.5C40.29,9.88,40.3,9.77,40.09,9.56Z"/><path class="cls-2" d="M38.65,21.55h0a4.13,4.13,0,0,0-.18-1.26A17.58,17.58,0,0,0,3.89,26.52a15.32,15.32,0,0,0,2.05,5.92A7.42,7.42,0,0,0,7,34.17a16.72,16.72,0,0,0,6.17,5.37,14.78,14.78,0,0,0,5.16,1.69,1,1,0,0,0,.64.1,3.84,3.84,0,0,0,.59.11c6.75.44,12.19-2,16.12-7.52a16.39,16.39,0,0,0,3-11.6A1.34,1.34,0,0,0,38.65,21.55ZM29.14,36.37a14.77,14.77,0,0,1-7.58,2.3h-.62A14.83,14.83,0,0,1,11,34.47a16.58,16.58,0,0,1-2.54-3.24l-.22-.37a15.77,15.77,0,0,1-1.69-7.32A14.74,14.74,0,0,1,27.49,10.61c.13.06.27.1.4.15l.38.2a2.08,2.08,0,0,0,.69.4l.29.19A15.13,15.13,0,0,1,35,18.73,16.7,16.7,0,0,1,36,22.8v2.32A14.73,14.73,0,0,1,29.14,36.37Z"/><path class="cls-2" d="M35,24.63V23l-2.31.82Z"/><path class="cls-2" d="M33.3,17.41c-.22-.35-.42-.71-.65-1.1-.53.61-1,1.18-1.57,1.84l2-.36C33.32,17.75,33.49,17.7,33.3,17.41Z"/><path class="cls-2" d="M9.16,30.17c0,.28.25.44.29.69l.47.7,1.55-1.81L9.75,30C9.59,30.17,9.36,30.08,9.16,30.17Z"/><path class="cls-2" d="M21.16,12.56c.17-.49.3-.86.44-1.23.4-1.14.4-1.13-.85-1.08-.33,0-.38.11-.28.39C20.69,11.24,20.9,11.83,21.16,12.56Z"/><path class="cls-2" d="M14.94,36.09c.27.17.34.07.38-.19.11-.65.23-1.3.37-2l-1.85,1.58C14.25,35.68,14.61,35.87,14.94,36.09Z"/><path class="cls-2" d="M33.14,29.88c-.62-.09-1.23-.22-2-.35l1.6,1.85c.22-.38.39-.7.59-1S33.54,29.93,33.14,29.88Z"/><path class="cls-2" d="M27.52,36.13l1.4-.81-1.87-1.6C27.22,34.6,27.37,35.34,27.52,36.13Z"/><path class="cls-2" d="M9.78,16.5,9,17.91l2.4.44Z"/><path class="cls-2" d="M15,11.76l-1.12.65c-.13.07-.3.13-.1.3l1.68,1.45C15.33,13.26,15.19,12.55,15,11.76Z"/><path class="cls-2" d="M27.31,11.65c-.14.77-.28,1.48-.41,2.19l.12.07,1.7-1.47Z"/><path class="cls-2" d="M7.65,23.26v1.59l2.26-.79Z"/><path class="cls-2" d="M20.6,37.58h1.59l-.8-2.28C21.1,36.14,20.85,36.84,20.6,37.58Z"/></g></svg>