<svg xmlns="http://www.w3.org/2000/svg" viewBox="0 0 40.56 44.33"><defs><style>.cls-1{fill:#a41e22;}</style></defs><g id="Layer_2" data-name="Layer 2"><path class="cls-1" d="M40.36,32.62a.76.76,0,0,1,0-.15c0-.06,0-.1-.11-.09H.31c-.06,0-.14,0-.18,0s0,0,0,0h0a1.48,1.48,0,0,1,0,.21v9a.76.76,0,0,1,0,.3.1.1,0,0,0,.1.06h40c.06,0,.13,0,.16,0l0,0h0s0,0,0-.06h0s0-.1,0-.15ZM7.22,35.29c0,.11,0,.15-.14.15H5.21c-.12,0-.15,0-.15.16,0,.29,0,.59,0,.88,0,.13,0,.15.16.15h1.6c.12,0,.15,0,.15.15s0,.53,0,.8c0,.12,0,.14-.15.14H5.21c-.12,0-.15,0-.15.16q0,.5,0,1c0,.11,0,.14.14.13H7.07c.13,0,.16,0,.15.16V40c0,.11,0,.16-.15.16-1.09,0-2.19,0-3.28,0-.13,0-.15,0-.15-.16,0-.92,0-1.84,0-2.76s0-1.84,0-2.75c0-.14,0-.16.17-.16H7.06c.13,0,.17,0,.16.16S7.22,35,7.22,35.29ZM12,40.13a.4.4,0,0,1-.41-.22c-.33-.53-.68-1-1-1.57l-.12.19L9.55,40a.22.22,0,0,1-.22.13H8s-.09,0-.14,0A.23.23,0,0,1,8,40L9.65,37.3a.19.19,0,0,0,0-.26L7.93,34.46l-.08-.13s.07,0,.1,0h1.4a.21.21,0,0,1,.19.1L10.63,36c.07,0,.08-.09.11-.13l.88-1.51a.15.15,0,0,1,.15-.1h1.48c0,.07,0,.1-.06.14-.56.9-1.13,1.8-1.7,2.7a.17.17,0,0,0,0,.21L13.24,40l.11.16C12.87,40.12,12.42,40.11,12,40.13Zm6.47-3.44A1.7,1.7,0,0,1,17.11,38,6,6,0,0,1,15.7,38c-.24,0-.21,0-.21.2V40c0,.11,0,.14-.14.13H14.22c-.12,0-.15,0-.15-.15,0-.92,0-1.85,0-2.77s0-1.84,0-2.76c0-.12,0-.16.15-.15.77,0,1.54,0,2.31,0a2,2,0,0,1,1.47.56A1.8,1.8,0,0,1,18.44,36.69Zm2.23.52c0,.92,0,1.83,0,2.75,0,.13,0,.17-.17.17q-.54,0-1.08,0c-.14,0-.18,0-.18-.18,0-1.76,0-3.53,0-5.29,0-.36,0-.36.36-.36s.59,0,.89,0c.13,0,.17,0,.17.16C20.67,35.38,20.67,36.29,20.67,37.21Zm4.1,2.91c-.09,0-.12,0-.16-.11l-1.07-2a.33.33,0,0,0-.38-.12c-.07,0,0,.1,0,.15v1.84c0,.23,0,.2-.2.2H21.84c-.1,0-.14,0-.14-.12,0-1.86,0-3.71,0-5.57,0-.09,0-.13.13-.13.81,0,1.62,0,2.42,0a2.1,2.1,0,0,1,1.51.6,1.76,1.76,0,0,1-.67,2.85c-.16.06-.14.1-.07.23.4.66.78,1.33,1.17,2,0,0,.06.07,0,.13Zm5.91-4.83c0,.12,0,.15-.15.15H28.69c-.12,0-.17,0-.16.16,0,.3,0,.6,0,.9,0,.1,0,.13.13.13h1.62c.13,0,.16,0,.16.15s0,.53,0,.79-.05.15-.16.15H28.69c-.12,0-.17,0-.16.15,0,.33,0,.65,0,1,0,.13,0,.16.17.16h1.83c.12,0,.16,0,.15.15,0,.29,0,.57,0,.86,0,.1,0,.12-.12.12H27.24c-.13,0-.13-.06-.13-.16,0-.92,0-1.84,0-2.76s0-1.83,0-2.74c0-.13,0-.18.17-.17h3.25c.12,0,.16,0,.15.14C30.67,34.73,30.67,35,30.68,35.29Zm4.92,4.35a3.18,3.18,0,0,1-1.67.48H31.74c-.12,0-.14-.05-.14-.16V34.45c0-.12,0-.16.16-.15.73,0,1.47,0,2.21,0a2.8,2.8,0,0,1,2.47,1.35A3,3,0,0,1,35.6,39.64Z"/><polygon class="cls-1" points="0.47 24.96 0.47 24.96 0.47 24.96 0.47 24.96"/><polygon class="cls-1" points="0.47 24.96 0.47 24.96 0.47 24.96 0.47 24.96"/><path class="cls-1" d="M.47,25h0Z"/><path class="cls-1" d="M39.55,15.43l0,0,0,0Z"/><path class="cls-1" d="M11.75,7.42l0,0S11.77,7.42,11.75,7.42Z"/><path class="cls-1" d="M32.19,5h0Z"/><polygon class="cls-1" points="7 9.39 7 9.4 7 9.39 7 9.39 7 9.39"/><path class="cls-1" d="M.12,21.71a2.82,2.82,0,0,1,0,.58v.11a1.1,1.1,0,0,1,0,.36v.12a1.73,1.73,0,0,1,0,.32h0a4.07,4.07,0,0,1,.06.6h0a4.14,4.14,0,0,1,.09.6v0a.52.52,0,0,0,0,.21h0A1.13,1.13,0,0,1,.47,25h0a.11.11,0,0,1,0,.05,1,1,0,0,1,.05.3v.12l.08.29s0,0,0,0a1.75,1.75,0,0,1,.09.38c0,.1.07.18.06.28a1.75,1.75,0,0,1,.09.38l0,0A.43.43,0,0,1,1,27H1a.42.42,0,0,1,.06.19v.09a0,0,0,0,1,0,0,.75.75,0,0,1,.09.29c0,.06.06.11,0,.18a.28.28,0,0,1,.09.23c.05,0,0,.09.07.12a.23.23,0,0,1,.06.16c0,.08.08.13.06.22l.13.28a.2.2,0,0,1,.06.13v0l0,.06a.25.25,0,0,1,.06.16l.06.13a.2.2,0,0,1,.06.12s.05.08,0,.13a0,0,0,0,1,0,0l.08.13a.35.35,0,0,1,.1.21s.06.06,0,.1,0,0,0,0,.06.13.11.19a.84.84,0,0,1,.18.38l0,0a.26.26,0,0,1,.09.18l0,.06a.11.11,0,0,1,.06.13s0,0,0,0l.15.23a.24.24,0,0,1,.09.15l0,.06H3l.14,0H5.75c0-.12-.13-.19-.17-.29l0,0-.2-.29c-.05,0-.05-.1-.09-.15l-.13-.19c-.1-.09,0-.15.05-.19a.37.37,0,0,0,.14-.07s.08-.07.14-.06l.14-.1a.51.51,0,0,1,.23-.12c.09,0,.15-.13.25-.16h0l.13-.07h0a.4.4,0,0,1,.21-.12l.28-.18s.1,0,.1-.1a.35.35,0,0,1-.07-.12l0,0-.07-.13a.79.79,0,0,1-.15-.25.33.33,0,0,1-.07-.13c0-.05-.08,0-.13,0s-.1.08-.17.08L6,29a.24.24,0,0,1-.12.07s-.06.06-.1,0l-.17.1a.61.61,0,0,1-.27.15l-.21.14a.34.34,0,0,1-.17.08l-.11.07c-.19.14-.19.14-.27-.06a.27.27,0,0,1-.07-.13,1.05,1.05,0,0,1-.15-.3.91.91,0,0,1-.13-.26s0,0,0-.06l-.06-.13s0,0,0-.06L4,28.46s0,0,0-.06A1.77,1.77,0,0,1,3.8,28a0,0,0,0,1,0,0l0-.07s0,0,0-.06a1.09,1.09,0,0,1-.1-.25h0l-.06-.16s0-.05,0-.09L3.41,27a.71.71,0,0,1-.09-.28v0h0l0-.07a.69.69,0,0,1-.09-.31L3.13,26s0-.08,0-.12A2,2,0,0,1,3,25.44H3a.57.57,0,0,1-.06-.25c0-.05,0-.1,0-.16a.81.81,0,0,1-.06-.31h0a1.63,1.63,0,0,1-.09-.48h0a.39.39,0,0,1,0-.21h0a.22.22,0,0,1,0-.16v0a9,9,0,0,1-.15-1.47h0v0a2.73,2.73,0,0,1,0-.57v-.07s0,0,0,0h2a5.06,5.06,0,0,0,0-.87H2.55c-.06,0-.1,0-.07-.08v0a2.79,2.79,0,0,1,0-.58h0a8.92,8.92,0,0,1,.15-1.46h0v-.05a.3.3,0,0,1,0-.16h0a.36.36,0,0,1,0-.2h0a.23.23,0,0,1,0-.16h0a.29.29,0,0,1,0-.16h0a.22.22,0,0,1,0-.16h0a.23.23,0,0,1,0-.16,2,2,0,0,1,.08-.41A3.11,3.11,0,0,1,3,16.75a2.4,2.4,0,0,1,.12-.44,1,1,0,0,1,.07-.23h0a1.76,1.76,0,0,1,.12-.39,2.43,2.43,0,0,1,.13-.38A1.21,1.21,0,0,1,3.59,15l.11-.26h0a1,1,0,0,1,.12-.3.94.94,0,0,1,.1-.23.07.07,0,0,1,0-.06l0-.09A.22.22,0,0,1,4,13.92l.13-.28a2.92,2.92,0,0,1,.25-.5A.24.24,0,0,1,4.49,13a.22.22,0,0,1,.06-.13.14.14,0,0,1,.06-.12c.12,0,.17.05.25.1L5,13a.18.18,0,0,1,.16.09l.28.16a0,0,0,0,1,.06,0l.26.15s0,0,.07,0a.38.38,0,0,1,.15.09l.3.16s.07,0,.1,0,0,0,0,0a.13.13,0,0,0,.06-.05h0a.26.26,0,0,1,.09-.16h0a.17.17,0,0,1,.06-.12,1.4,1.4,0,0,1,.16-.26c0-.07.12-.13,0-.2a2.07,2.07,0,0,1-.32-.19s0,0-.06,0l-.16-.1h0s0,0-.06,0L6,12.49a.4.4,0,0,1-.18-.1l-.1-.06a.71.71,0,0,1-.22-.13l-.16-.09c-.28-.14-.28-.14-.1-.39a.21.21,0,0,1,0-.06l.23-.35h0a.16.16,0,0,1,0-.09l.13-.17h0s0,0,0-.05a.41.41,0,0,1,.1-.13A1.12,1.12,0,0,1,6,10.65l0,0,.14-.18s0,0,0-.07l.1-.13,0,0,.08-.09,0,0,.16-.2,0,0a.35.35,0,0,1,.11-.13.1.1,0,0,1,0-.06l.14-.16a0,0,0,0,1,0,0A.22.22,0,0,1,7,9.39H7a.47.47,0,0,1,.13-.15,1.07,1.07,0,0,1,.18-.19,9.88,9.88,0,0,1,.92-.91h0l.31-.29s0,0,0,0l.12-.11s0,0,.06,0l.32-.26c0-.07.12-.1.18-.15l.17-.13h0L9.55,7a1.77,1.77,0,0,1,.35-.26A.1.1,0,0,1,10,6.72a.57.57,0,0,1,.22-.15.41.41,0,0,1,.19-.13l.28-.19.22-.15c.08-.06.12,0,.13.06l.1.16a.29.29,0,0,1,.09.15l.16.29a.09.09,0,0,1,0,.09L11.5,7a.18.18,0,0,1,.09.15l0,.07a.2.2,0,0,1,.09.15l0,.07a.2.2,0,0,1,.1.15l0,.06a.51.51,0,0,1,.09.16s.08,0,.12,0l.53-.3c.08,0,.12-.1.06-.19a.45.45,0,0,1-.12-.21l-.19-.32a.48.48,0,0,1-.12-.22l-.08-.13,0,0L12,6l-.05-.1-.07-.12-.06-.1c-.09-.09,0-.1.07-.13s.16-.08.24-.13a.37.37,0,0,1,.2-.09c.06,0,.1-.09.18-.1a2.64,2.64,0,0,1,.38-.18.15.15,0,0,1,.09,0,2.21,2.21,0,0,1,.35-.16c.23-.12.48-.18.72-.28s.34-.12.51-.18A2.16,2.16,0,0,1,15,4.24a.08.08,0,0,1,.08,0,.36.36,0,0,1,.2-.06h0a.6.6,0,0,1,.23-.06h0a.34.34,0,0,1,.22,0L16,4a2.63,2.63,0,0,1,.57-.13h0a.23.23,0,0,1,.16,0,.8.8,0,0,1,.34-.07,4.29,4.29,0,0,1,.8-.12h0a.58.58,0,0,1,.23,0h0a.45.45,0,0,1,.23,0h.08a.58.58,0,0,1,.23,0,.12.12,0,0,1,.08,0c.33,0,.65,0,1-.06.12,0,.09.07.09.14,0,.57,0,1.15,0,1.72,0,.13,0,.18.16.17a5.42,5.42,0,0,1,.57,0c.11,0,.14,0,.14-.14,0-.58,0-1.16,0-1.74,0-.13,0-.16.16-.15a4,4,0,0,1,.49,0h0a2,2,0,0,1,.42,0h.11a.61.61,0,0,1,.23,0h.05a.58.58,0,0,1,.23,0h0a.58.58,0,0,1,.23,0h0a5.39,5.39,0,0,1,.79.12l.34.07a.23.23,0,0,1,.16,0h0a.72.72,0,0,1,.29.06h0a.71.71,0,0,1,.25.06.22.22,0,0,0,.16,0,.1.1,0,0,1,.1,0h0a.46.46,0,0,1,.23.06h0a.6.6,0,0,1,.23.06h0a.33.33,0,0,1,.19.06s.06,0,.1,0a.43.43,0,0,1,.22.06h0a.94.94,0,0,1,.28.1.68.68,0,0,1,.25.09l.35.13a.17.17,0,0,1,.15.06l.48.19h0a5.37,5.37,0,0,1,.94.44h0c.07,0,.14,0,.19.11l.31.16c.17,0,.09.1,0,.17L28.52,6h0a.38.38,0,0,1-.13.22l-.35.6A.18.18,0,0,1,28,7l0,.06a.17.17,0,0,1-.06.12l-.07.1s-.05.1,0,.16l.07,0a.29.29,0,0,1,.15.09l.1.07a.12.12,0,0,1,.12.06l.07,0c.08,0,.12.09.21.08a.34.34,0,0,1,.1-.16,0,0,0,0,1,0-.06,1.59,1.59,0,0,1,.13-.22h0a1,1,0,0,1,.13-.22A.51.51,0,0,1,29,7a.39.39,0,0,1,.1-.16,1.83,1.83,0,0,1,.18-.34l.1-.16a.11.11,0,0,1,.05-.09c.05,0,0-.16.14-.12l.07,0a.2.2,0,0,1,.13.09l.43.29a.21.21,0,0,1,.15.09l0,0a.38.38,0,0,1,.22.15l.25.19a.42.42,0,0,1,.22.15l.35.29a.36.36,0,0,1,.19.15l.19.16a.14.14,0,0,1,.11.1l.07.06a.51.51,0,0,1,.22.19l.1.1a.11.11,0,0,1,.1.09l.06.06a.48.48,0,0,1,.21.19l0,0a.45.45,0,0,1,.18.18l.07.07a.72.72,0,0,1,.22.24l.28.3a.25.25,0,0,1,.13.14l0,0a.27.27,0,0,1,.13.15l.18.22a.37.37,0,0,1,.16.19l.13.16a.18.18,0,0,1,.09.12h0l.19.25a.27.27,0,0,1,.12.16l.1.14a.08.08,0,0,1,.06.08s.07.05.06.1l.1.13a1.07,1.07,0,0,1,.19.28h0a.58.58,0,0,1,.15.25c0,.08.19.14,0,.25a.54.54,0,0,1-.16.1h0a.27.27,0,0,1-.17.08l-.11.08a.66.66,0,0,1-.26.14l-.12.08a.42.42,0,0,1-.16.09.27.27,0,0,1-.16.08l-.17.1c0,.05-.07.06-.11.07s-.19.08-.23.18a.48.48,0,0,0,.1.17.32.32,0,0,1,.1.18l0,0a.64.64,0,0,1,.14.22c0,.09.1.1.18.06l0,0,.17-.1s0,0,0,0l.17-.09.21-.12a.12.12,0,0,1,.1-.06s.06-.08.12-.07l.16-.1A.51.51,0,0,1,35.4,13a.35.35,0,0,1,.16-.08l.06,0a.37.37,0,0,1,.16-.09c.08,0,.1,0,.13.07a.5.5,0,0,1,.12.24l0,.06a.14.14,0,0,1,.07.13l.06.12a.28.28,0,0,1,.09.19l0,.07a.15.15,0,0,1,.07.12.25.25,0,0,1,.06.16l.16.35a.2.2,0,0,1,.06.15l.13.32a.2.2,0,0,1,.06.15l.13.34a1.12,1.12,0,0,1,.12.35,1.32,1.32,0,0,0,.1.3.11.11,0,0,1,0,.11s0,.07,0,.1a.33.33,0,0,1,.06.22l.13.45a.48.48,0,0,1,.06.24h0a.54.54,0,0,1,.06.25s0,0,0,0a.32.32,0,0,1,0,.14h0a5.53,5.53,0,0,1,.16.81h0a.33.33,0,0,1,0,.19.39.39,0,0,0,0,.21.58.58,0,0,1,0,.23h0A7.68,7.68,0,0,1,38,20.12h0a4.17,4.17,0,0,1,0,.61c0,.05,0,.07-.07.07H36a4.22,4.22,0,0,0,0,.87h.05q.94,0,1.89,0s.07,0,.06.07a3,3,0,0,1,0,.6h0a9,9,0,0,1-.13,1.27h0a.66.66,0,0,1,0,.24h0v0a.22.22,0,0,1,0,.16h0a.44.44,0,0,1,0,.2h0a.18.18,0,0,1,0,.16h0a.87.87,0,0,1-.06.32h0c0,.05,0,.11,0,.15l0,.19a.12.12,0,0,1,0,.1,0,0,0,0,1,0,0,.57.57,0,0,1-.06.25h0a2,2,0,0,1-.12.48h0a.42.42,0,0,0-.06.21.65.65,0,0,1-.06.23h0a.48.48,0,0,1-.07.21l-.13.39a.58.58,0,0,1-.09.25h0a.29.29,0,0,1-.07.18l-.16.42a.18.18,0,0,1-.06.15l0,.07a.39.39,0,0,1-.09.22c0,.06,0,.11-.07.15-.16.35-.33.69-.5,1,0,.05,0,.1-.06.12s-.08.14-.16.14l-.17-.1a.05.05,0,0,1,0,0,.42.42,0,0,1-.16-.09,3.3,3.3,0,0,1-.32-.18l-.18-.11a.32.32,0,0,1-.16-.09L34.52,29a.51.51,0,0,1-.16-.09,1.27,1.27,0,0,1-.22-.13c-.11,0-.08.12-.15.16h0a.29.29,0,0,1-.1.15l-.13.22a.09.09,0,0,1,0,.1c0,.06-.05.11,0,.16l.1.06a.32.32,0,0,1,.22.12l.28.17a.2.2,0,0,1,.16.09l.06,0a.24.24,0,0,1,.16.09l.32.19a.76.76,0,0,1,.28.15s.14,0,.06.1l0,.06a1,1,0,0,1-.18.29h0a.59.59,0,0,1-.17.24l-.22.32c0,.08,0,.12.08.12H37.4a.22.22,0,0,0,.14,0,.48.48,0,0,1,.12-.22l.1-.16h0a.17.17,0,0,1,.06-.12l.09-.16a.85.85,0,0,1,.13-.25l.07-.12a0,0,0,0,1,0-.06.42.42,0,0,1,.09-.16.18.18,0,0,1,.06-.14h0a.7.7,0,0,1,.14-.27.85.85,0,0,1,.11-.26,1.39,1.39,0,0,1,.12-.28,1.47,1.47,0,0,1,.14-.28.24.24,0,0,1,.05-.16l.11-.25h0l.11-.31.07-.17L39.51,27a1.7,1.7,0,0,1,.1-.32h0a.14.14,0,0,1,0-.12.42.42,0,0,1,.05-.22l0-.09s0,0,0,0a2.42,2.42,0,0,1,.13-.53.15.15,0,0,1,0-.13.66.66,0,0,1,.05-.28l.1-.51a.38.38,0,0,1,0-.21.29.29,0,0,1,0-.16,0,0,0,0,1,0,0,1.59,1.59,0,0,1,.06-.38h0a7.08,7.08,0,0,1,.09-.79h0a1,1,0,0,1,0-.35h0v-.12h0a1.38,1.38,0,0,1,0-.35h0v-.09a2.82,2.82,0,0,1,0-.58h0a.92.92,0,0,1,0-.33V21a.92.92,0,0,1,0-.33,2.51,2.51,0,0,1,0-.55V20a1.23,1.23,0,0,1,0-.33v-.14a1.24,1.24,0,0,1,0-.33h0v0a.13.13,0,0,1,0-.06c0-.3-.07-.59-.11-.88v0h0a.3.3,0,0,1,0-.16,0,0,0,0,1,0,0,.29.29,0,0,1,0-.16V17.8h0a1.13,1.13,0,0,1-.06-.32h0s0,0,0-.06L39.92,17a.87.87,0,0,1-.05-.28,6,6,0,0,1-.19-.73.25.25,0,0,1,0-.15,0,0,0,0,1,0,0l-.13-.41a1.71,1.71,0,0,1-.09-.3h0a1.51,1.51,0,0,1-.1-.3.08.08,0,0,1,0-.07.28.28,0,0,1-.06-.18l-.07-.19s0,0,0-.08h0l-.07-.17L39,14a1.06,1.06,0,0,1-.09-.25v0l-.07-.17,0,0a.12.12,0,0,1,0-.12,1.11,1.11,0,0,1-.14-.29L38.58,13l-.09-.22a.87.87,0,0,1-.14-.31l-.05-.1,0-.06-.07-.15,0-.06a.86.86,0,0,1-.13-.23s0,0,0,0L38,11.66a.1.1,0,0,1,0-.08.21.21,0,0,1-.06-.1l-.07-.13,0,0a2.36,2.36,0,0,1-.22-.38s-.06,0-.06-.1a0,0,0,0,1,0,0,.12.12,0,0,1-.06-.1.64.64,0,0,1-.14-.22s-.05,0-.05-.06,0,0,0-.07l-.1-.15-.07-.1L36.94,10a1.4,1.4,0,0,1-.22-.32.28.28,0,0,1-.09-.13.2.2,0,0,1-.08-.1,2.15,2.15,0,0,1-.18-.24s-.06,0-.06-.1A3.65,3.65,0,0,1,36,8.66l-.09-.11-.12-.15-.1-.13a.15.15,0,0,1-.09-.1l-.1-.12L35.4,8l-.14-.16h0a.43.43,0,0,1-.11-.12.13.13,0,0,1-.06-.07l-.17-.19s-.06,0-.05-.06l-.06-.07a.33.33,0,0,1-.16-.15l-.1-.1h0A.34.34,0,0,1,34.43,7h0l-.13-.13,0,0-.07-.07a.12.12,0,0,1-.06-.06s-.08,0-.1-.1l0,0h0l-.19-.17a.77.77,0,0,1-.19-.17h0l-.16-.14A.2.2,0,0,1,33.39,6l-.13-.1a.09.09,0,0,1-.06-.06l-.13-.1h0s0,0-.06,0l-.09-.08-.26-.2-.09-.07a.43.43,0,0,1-.19-.16s-.05,0-.06,0L32.19,5a.38.38,0,0,1-.13-.09l0,0a.23.23,0,0,1-.09-.08.59.59,0,0,1-.19-.13l-.41-.27,0,0L31,4.21a.19.19,0,0,1-.1,0l-.15-.11-.26-.14-.1-.07-.74-.41s-.06,0-.07,0l-.23-.13a.25.25,0,0,1-.14-.06l0,0h0L29,3.11a.18.18,0,0,1-.13-.06L28.76,3s0,0,0,0,0,0,0,0a.3.3,0,0,1-.15-.07h0a.26.26,0,0,1-.13-.06,1,1,0,0,1-.29-.12L28,2.64a.08.08,0,0,1-.07,0l-.16-.07a.7.7,0,0,1-.24-.09l-.28-.11a1.73,1.73,0,0,1-.32-.11l-.19-.07a1.31,1.31,0,0,1-.28-.09L26.15,2l-.22-.07h0c-.05,0-.09,0-.13,0s-.11,0-.16,0h0l-.36-.1a.25.25,0,0,1-.17,0l-.35-.08-.44-.1h0a.3.3,0,0,1-.16,0h0a.2.2,0,0,1-.13,0h0a.29.29,0,0,1-.16,0,.22.22,0,0,1-.16,0h0a.41.41,0,0,1-.19,0h0l-.66-.1h-.06a.6.6,0,0,1-.23,0h0a1,1,0,0,1-.29,0h0c-.7,0-1.4-.09-2.11-.08s-1.21,0-1.81.09h0a.46.46,0,0,1-.26,0H18a.44.44,0,0,1-.2,0h-.08a.25.25,0,0,1-.17,0h-.1a2.2,2.2,0,0,1-.37.06.58.58,0,0,1-.19,0h0a.31.31,0,0,1-.19,0h-.05L15,1.79a.11.11,0,0,1-.11,0,.38.38,0,0,1-.23.06s-.05.05-.09,0L14,2.1l-.12,0c-.23.1-.46.17-.7.25h0a2.05,2.05,0,0,1-.41.16h0c-.29.13-.58.27-.88.37l-.06,0a2.64,2.64,0,0,1-.38.18h0l-1.47.8h0l-1.52,1a1.2,1.2,0,0,1-.34.25l0,0-.87.72-.51.44h0L5.57,7.46h0c-.22.25-.44.5-.67.74l0,0A9.36,9.36,0,0,1,4.24,9l-.15.19a.6.6,0,0,1-.16.23h0a2.92,2.92,0,0,1-.29.4c-.12.24-.31.43-.44.66l-.09.16a.22.22,0,0,1-.1.15l0,0c0,.05-.06.07-.06.12a.18.18,0,0,1-.1.15c0,.07-.07.17-.14.23a.27.27,0,0,1-.07.13c0,.1-.09.16-.13.25v0a.4.4,0,0,1-.09.17h0l-.12.23a.62.62,0,0,1-.12.26l0,.05a.62.62,0,0,1-.18.36v0a3.47,3.47,0,0,1-.16.41.12.12,0,0,1-.06.12l0,0c0,.05,0,.08,0,.13a.25.25,0,0,1-.06.16.21.21,0,0,1-.07.15h0c0,.09-.07.16-.07.25a.17.17,0,0,1-.06.15l0,0c0,.07,0,.11-.05.17s0,.07,0,.09-.09.15-.07.25a.28.28,0,0,1-.07.19L1,15.41a.32.32,0,0,1-.06.21l0,.07A.9.9,0,0,1,.79,16a.86.86,0,0,1-.06.23v.12a1.62,1.62,0,0,1-.09.38h0c-.05,0,0,.1,0,.15v0a.58.58,0,0,1-.06.26h0a3.06,3.06,0,0,1-.1.51,0,0,0,0,1,0,0,.22.22,0,0,1,0,.16,0,0,0,0,1,0,0,.3.3,0,0,1,0,.16,0,0,0,0,1,0,0,.3.3,0,0,1,0,.16v0c0,.32-.07.65-.12,1h0a1.46,1.46,0,0,1,0,.36h0v.08c0,.13,0,.27-.06.39s.06.07,0,.11a2.51,2.51,0,0,1,0,.55h0a.92.92,0,0,1,0,.33v.35A.92.92,0,0,1,.12,21.71Z"/><path class="cls-1" d="M29.86,28.1A.49.49,0,0,1,30,28l.13-.12.16-.2.2-.34.08-.15a.28.28,0,0,1,.05-.16.12.12,0,0,1,0-.1,3,3,0,0,0,.07-.94h0l-.12-.48h0l-.14-.29h0l-.05-.09-.1-.16c-.11-.2-.25-.39-.34-.6l-.2-.35s-.08-.08-.08-.15l-.1-.16a1,1,0,0,1-.16-.28l-.19-.32a.42.42,0,0,1-.09-.16l-.09-.16a1.86,1.86,0,0,1-.19-.34h0l-.1-.16s0,0,0-.05a.56.56,0,0,1-.09-.17.19.19,0,0,1-.07-.12h0a.26.26,0,0,1-.09-.16.61.61,0,0,1-.13-.22h0l-.1-.16a.53.53,0,0,1-.11-.21l-.05-.07a.77.77,0,0,1-.14-.25l-.17-.28h0a.78.78,0,0,1-.12-.22.21.21,0,0,1-.06-.1h0L27.44,20a.92.92,0,0,1-.16-.27.24.24,0,0,1-.06-.11.23.23,0,0,1-.06-.12h0L27,19.21a.52.52,0,0,1-.12-.22,1.31,1.31,0,0,1-.17-.28.16.16,0,0,1-.05-.1l-.13-.22a.38.38,0,0,1-.09-.15l-.11-.19a1.68,1.68,0,0,1-.21-.37l-.06-.1a.16.16,0,0,1-.06-.12.34.34,0,0,1-.1-.16.37.37,0,0,1-.09-.16.54.54,0,0,1-.1-.16.59.59,0,0,1-.12-.22l-.07-.12h0l-.06-.1a.14.14,0,0,1-.06-.11l-.07-.11a.89.89,0,0,1-.15-.27l-.1-.17a.5.5,0,0,1-.12-.21.42.42,0,0,1-.1-.17.8.8,0,0,1-.13-.22s0,0,0,0a2.22,2.22,0,0,1-.25-.42.32.32,0,0,1-.1-.18l-.14-.23h0a.53.53,0,0,1-.11-.21L24,13.93a.76.76,0,0,1-.15-.28.34.34,0,0,1-.1-.16,1.12,1.12,0,0,1-.16-.28c0-.08-.12-.13-.12-.21a.42.42,0,0,1-.1-.17l-.09-.16s0,0,0-.05a1.87,1.87,0,0,1-.22-.39h0a.61.61,0,0,1-.13-.22,1.39,1.39,0,0,1-.18-.31l-.1-.16-.25-.44L22.25,11l-.06-.1-.34-.41a0,0,0,0,1,0,0l-.11-.09c-.09,0-.13-.12-.21-.16l-.11-.06h0s0,0-.05,0L21.21,10l-.49-.16a.46.46,0,0,1-.2,0H20a.34.34,0,0,1-.2,0,.12.12,0,0,1-.12,0,.15.15,0,0,1-.13,0l-.36.17a.19.19,0,0,1-.11.05h0l-.1.07a.75.75,0,0,1-.18.13h0l-.25.24s0,.09-.1.1l-.13.19a1,1,0,0,1-.18.31h0l-.13.22a.2.2,0,0,1-.06.13h0a.51.51,0,0,1-.09.16s0,.07-.07.09,0,.06-.06.07a2.55,2.55,0,0,1-.23.43.3.3,0,0,1-.08.16.27.27,0,0,1-.1.16l-.09.15a1,1,0,0,1-.19.34h0l-.06.1a.2.2,0,0,1-.1.16l-.12.22s0,.06,0,.06l-.16.29a1,1,0,0,1-.18.31l-.16.29a.56.56,0,0,1-.13.22.13.13,0,0,1-.06.09l0,.06a.1.1,0,0,1-.06.1l-.16.28a.52.52,0,0,1-.12.22c0,.06,0,.12-.1.16l-.13.22a.13.13,0,0,1-.06.11l-.28.48a.71.71,0,0,1-.16.28l-.1.16a1.94,1.94,0,0,1-.31.54l0,.06a.17.17,0,0,1-.06.12h0l-.45.76a.43.43,0,0,1-.12.22l-.1.16s0,.07,0,.1l-.17.28a.37.37,0,0,1-.09.16.42.42,0,0,1-.1.17h0l-.16.26a1.48,1.48,0,0,1-.25.44l-.22.38a.21.21,0,0,1-.1.16l-.16.28a.23.23,0,0,1-.08.16.19.19,0,0,1-.07.12l-.06.1a.45.45,0,0,1-.13.22.32.32,0,0,1-.09.16l-.09.15a.13.13,0,0,1-.07.12l-.06.11a.78.78,0,0,1-.16.28.92.92,0,0,1-.16.27l-.19.33a.24.24,0,0,1-.09.16.17.17,0,0,1-.06.11h0l-.29.48a.37.37,0,0,1-.12.22.78.78,0,0,1-.16.28l-.13.22a.43.43,0,0,1-.12.22l-.16.26s0,.05,0,.06l0,.06a.82.82,0,0,1-.12.25h0a.25.25,0,0,1-.06.14h0a.14.14,0,0,0,0,.11l-.06.23h0a.3.3,0,0,1,0,.16h0v.63h0a.87.87,0,0,1,.06.32l.06.17a.77.77,0,0,1,.1.23,1.88,1.88,0,0,0,.31.48.36.36,0,0,1,.15.15l.07.07s.08,0,.09.09l.19.13a1.17,1.17,0,0,1,.27.15l.08,0a.2.2,0,0,1,.15.06s.06,0,.1,0l.66.09h16a3.4,3.4,0,0,0,1.34-.22l.12-.07s0,0,.06,0l.16-.1h0Zm-1.11-.71a1.51,1.51,0,0,1-.42.05H12.12a1.12,1.12,0,0,1-1.1-.71,1.09,1.09,0,0,1,.08-1.05l1.43-2.48,5.38-9.32,1.32-2.28a1.15,1.15,0,0,1,2,0l6,10.34c.72,1.24,1.44,2.48,2.15,3.73A1.15,1.15,0,0,1,28.75,27.39Z"/><polygon class="cls-1" points="25.52 16.64 25.52 16.64 25.52 16.64 25.53 16.63 25.52 16.64"/><polygon class="cls-1" points="17.7 11.86 17.7 11.86 17.7 11.86 17.7 11.86"/><path class="cls-1" d="M34.1,35.54a7,7,0,0,0-.92,0c-.12,0-.16,0-.16.16,0,.51,0,1,0,1.54v1.55c0,.12,0,.15.15.15h.64a1.5,1.5,0,0,0,1.41-.8,2,2,0,0,0,.16-1.18A1.46,1.46,0,0,0,34.1,35.54Z"/><path class="cls-1" d="M24,35.47h-.8c-.09,0-.12,0-.12.12s0,.4,0,.61v.62c0,.08,0,.11.1.11.3,0,.61,0,.92,0a.61.61,0,0,0,.61-.45A.71.71,0,0,0,24,35.47Z"/><path class="cls-1" d="M16.51,35.47a5.91,5.91,0,0,0-.94,0c-.08,0-.08,0-.08.1v1.25c0,.06,0,.12.09.12.3,0,.6,0,.9,0a.73.73,0,0,0,0-1.42Z"/><path class="cls-1" d="M24.76,18.56l-3.89-6.73a.7.7,0,0,0-1.25,0c-.67,1.15-1.33,2.31-2,3.47L11.5,25.89a.9.9,0,0,0-.12.36.7.7,0,0,0,.75.73H28.36a.72.72,0,0,0,.52-.18.71.71,0,0,0,.09-.95C27.57,23.43,26.16,21,24.76,18.56Zm-4,6.58a.7.7,0,0,1-1.12,0,1,1,0,0,1,0-1.25.7.7,0,0,1,1.17,0,1.05,1.05,0,0,1,.18.64A.91.91,0,0,1,20.81,25.14Zm.11-5-.21,2.63c0,.15-.05.2-.2.19h-.57c-.1,0-.14,0-.15-.13-.07-1-.16-1.94-.24-2.91,0-.54-.1-1.08-.14-1.63,0-.26,0-.52,0-.78h0v-.65a1,1,0,0,1,.28-.71.76.76,0,0,1,1.2.07,1.1,1.1,0,0,1,.21.68A27.05,27.05,0,0,1,20.92,20.15Z"/></g></svg>