<svg width="54" height="56" viewBox="0 0 54 56" fill="none" xmlns="http://www.w3.org/2000/svg" xmlns:xlink="http://www.w3.org/1999/xlink">
<path d="M36.883,50.165C36.883,49.692 36.883,49.219 36.883,48.747C36.883,47.02 36.883,47.02 35.083,47.02C34.389,47.02 33.693,47.02 32.997,47.02C31.754,47.002 30.56,46.541 29.634,45.721C28.707,44.901 28.11,43.778 27.952,42.557C27.639,40.26 29.303,37.89 31.682,37.185C33.049,36.779 34.439,36.978 35.816,36.978C36.625,36.978 36.922,36.82 36.907,35.944C36.881,34.246 36.617,32.497 37.478,30.89C37.757,30.373 37.337,30.218 37.011,30.021L33.925,28.148C42.658,21.958 42.064,11.707 37.59,6.094C32.305,-0.537 22.816,-1.969 16.276,2.889C12.515,5.68 10.251,9.35 9.821,14.002C9.299,19.757 11.782,24.209 16.261,27.778C13.113,28.892 10.473,30.504 8.3,32.776C2.867,38.461 0.782,45.506 0.008,53.08C-0.107,54.199 0.571,53.982 1.192,53.982C13.132,53.982 25.069,53.982 37.006,53.982C37.267,53.982 37.598,54.124 37.874,53.801C37.032,52.724 36.867,51.468 36.883,50.165Z" fill="#F08A21"/>
<path d="M51.232,39.774C49.237,39.774 47.241,39.74 45.233,39.774C44.503,39.792 44.27,39.593 44.291,38.854C44.341,36.962 44.328,35.071 44.291,33.169C44.27,31.618 43.217,30.44 41.923,30.468C40.786,30.491 40.05,31.471 40.026,33.078C40,34.841 39.974,36.606 40.039,38.365C40.071,39.192 39.779,39.381 38.996,39.358C37.22,39.304 35.438,39.311 33.662,39.358C32.217,39.391 30.999,40.516 31.04,41.684C31.087,42.95 32.225,43.909 33.719,43.916C35.545,43.916 37.371,43.945 39.197,43.916C39.875,43.901 40.123,44.105 40.092,44.79C40.045,45.824 40.079,46.857 40.079,47.891C40.079,48.795 40.079,49.7 40.079,50.599C40.105,52.111 41.057,53.207 42.33,53.217C43.603,53.227 44.615,52.129 44.633,50.633C44.657,48.824 44.667,47.015 44.633,45.206C44.617,44.529 44.836,44.309 45.515,44.322C47.424,44.358 49.333,44.348 51.253,44.322C52.831,44.307 53.971,43.392 53.995,42.167C54.031,40.787 52.886,39.774 51.232,39.774Z" fill="#F08A21"/>
<path d="M48.293,47.731C48.217,47.421 48.332,46.955 47.787,47.028C47.242,47.1 47.484,47.56 47.471,47.844C47.38,49.912 47.852,52.052 46.37,53.977C47.153,53.977 47.748,53.961 48.348,53.977C48.828,53.995 49.06,53.879 48.984,53.328C48.718,51.468 48.739,49.571 48.293,47.731Z" fill="#F08A21"/>
</svg>
