<svg width="68" height="68" viewBox="0 0 68 68" fill="none" xmlns="http://www.w3.org/2000/svg" xmlns:xlink="http://www.w3.org/1999/xlink">
<circle cx="34" cy="34" r="34" fill="#D9D9D9"/>
<path d="M29.999,12C29.999,9.791 31.79,8 33.999,8L33.999,8C36.208,8 37.999,9.791 37.999,12L37.999,56C37.999,58.209 36.208,60 33.999,60L33.999,60C31.79,60 29.999,58.209 29.999,56L29.999,12Z" transform="rotate(-90 33.999 34)" fill="#F1983D"/>
<path d="M30.001,12C30.001,9.791 31.792,8 34.001,8L34.001,8C36.21,8 38.001,9.791 38.001,12L38.001,56C38.001,58.209 36.21,60 34.001,60L34.001,60C31.792,60 30.001,58.209 30.001,56L30.001,12Z" transform="rotate(-270 34.001 34)" fill="#F1983D"/>
</svg>
