<svg width="58" height="56" viewBox="0 0 58 56" fill="none" xmlns="http://www.w3.org/2000/svg" xmlns:xlink="http://www.w3.org/1999/xlink">
<path d="M25.179,0C11.294,0 0,10.905 0,24.31C0,37.716 11.294,48.621 25.179,48.621C29.567,48.621 33.739,47.509 37.336,45.564C37.527,45.881 37.743,46.183 37.984,46.467L45.177,53.622C45.842,54.343 46.652,54.926 47.558,55.335C48.464,55.743 49.447,55.969 50.446,55.997C51.446,56.025 52.441,55.856 53.37,55.5C54.3,55.144 55.144,54.608 55.851,53.925C56.558,53.242 57.113,52.427 57.482,51.53C57.851,50.633 58.026,49.672 57.997,48.707C57.967,47.742 57.734,46.793 57.311,45.918C56.888,45.043 56.284,44.261 55.537,43.62L48.127,36.674C47.833,36.442 47.52,36.233 47.192,36.049C49.134,32.576 50.357,28.547 50.357,24.31C50.357,10.905 39.063,0 25.179,0ZM25.179,6.946C35.178,6.946 43.163,14.656 43.163,24.31C43.163,28.408 41.724,32.229 39.35,35.146C39.278,35.215 39.207,35.285 39.135,35.354C38.988,35.419 38.844,35.488 38.703,35.562C37.982,36.095 37.371,36.755 36.905,37.507C33.739,40.077 29.639,41.605 25.179,41.605C15.179,41.605 7.194,33.896 7.194,24.241C7.194,14.586 15.179,6.876 25.179,6.876L25.179,6.946Z" fill="#F08A21"/>
</svg>
