<svg width="60" height="56" viewBox="0 0 60 56" fill="none" xmlns="http://www.w3.org/2000/svg" xmlns:xlink="http://www.w3.org/1999/xlink">
<path d="M26.047,0C11.684,0 0,10.905 0,24.31C0,37.716 11.684,48.621 26.047,48.621C30.586,48.621 34.903,47.509 38.624,45.564C38.821,45.881 39.045,46.183 39.293,46.467L46.735,53.622C47.422,54.343 48.26,54.926 49.198,55.335C50.135,55.743 51.152,55.969 52.186,55.997C53.22,56.025 54.249,55.856 55.211,55.5C56.172,55.144 57.045,54.608 57.777,53.925C58.508,53.242 59.082,52.427 59.464,51.53C59.846,50.633 60.027,49.672 59.997,48.707C59.966,47.742 59.725,46.793 59.287,45.918C58.85,45.043 58.225,44.261 57.452,43.62L49.786,36.674C49.482,36.442 49.159,36.233 48.819,36.049C50.828,32.576 52.093,28.547 52.093,24.31C52.093,10.905 40.41,0 26.047,0ZM26.047,6.946C36.391,6.946 44.652,14.656 44.652,24.31C44.652,28.408 43.163,32.229 40.707,35.146C40.633,35.215 40.559,35.285 40.484,35.354C40.333,35.419 40.184,35.488 40.038,35.562C39.291,36.095 38.66,36.755 38.177,37.507C34.903,40.077 30.661,41.605 26.047,41.605C15.702,41.605 7.442,33.896 7.442,24.241C7.442,14.586 15.702,6.876 26.047,6.876L26.047,6.946Z" fill="#505050"/>
</svg>
