<svg width="76" height="60" viewBox="0 0 76 60" fill="none" xmlns="http://www.w3.org/2000/svg" xmlns:xlink="http://www.w3.org/1999/xlink">
<path d="M52.338,-0.154C47.528,-0.154 43.377,2.468 40.83,6.438C45.075,10.484 47.622,16.028 47.622,22.396C47.622,24.568 47.339,26.516 46.773,28.464C48.565,29.288 50.358,29.888 52.338,29.888C60.168,29.888 66.488,23.145 66.488,14.904C66.488,6.663 60.168,-0.079 52.338,-0.079L52.338,-0.154ZM24.04,7.337C16.21,7.337 9.89,14.08 9.89,22.321C9.89,30.562 16.21,37.304 24.04,37.304C31.869,37.304 38.189,30.562 38.189,22.321C38.189,14.08 31.869,7.337 24.04,7.337ZM68.846,31.011C64.79,34.832 59.224,37.155 52.904,37.304C55.451,40.151 57.055,43.597 57.055,47.343L57.055,52.288L75.921,52.288L75.921,39.852C75.921,35.956 72.997,32.585 68.846,30.936L68.846,31.011ZM7.532,38.503C3.382,40.151 0.457,43.522 0.457,47.418L0.457,59.854L47.622,59.854L47.622,47.418C47.622,43.522 44.698,40.151 40.547,38.503C36.302,42.474 30.548,44.796 24.04,44.796C17.531,44.796 11.777,42.399 7.532,38.503Z" fill="#A6A6A6"/>
</svg>
