<svg width="74" height="60" viewBox="0 0 74 60" fill="none" xmlns="http://www.w3.org/2000/svg" xmlns:xlink="http://www.w3.org/1999/xlink">
<path d="M1.022,-0.838C0.482,-0.838 0.212,-0.495 0.212,-0.066L0.212,41.168C0.212,41.597 0.572,41.94 1.022,41.94L17.301,41.94C17.751,41.94 18.111,41.597 18.111,41.168L18.111,-0.066C18.111,-0.58 17.751,-0.838 17.301,-0.838L1.022,-0.838ZM54.987,-0.838C54.537,-0.838 54.177,-0.495 54.177,-0.066L54.177,41.168C54.177,41.597 54.537,41.94 54.987,41.94L71.266,41.94C71.716,41.94 72.076,41.597 72.076,41.168L72.076,-0.066C72.076,-0.58 71.716,-0.838 71.266,-0.838L54.987,-0.838ZM28.004,16.308C27.465,16.308 27.195,16.651 27.195,17.079L27.195,41.168C27.195,41.597 27.555,41.94 28.004,41.94L44.284,41.94C44.734,41.94 45.093,41.597 45.093,41.168L45.093,17.079C45.093,16.565 44.734,16.308 44.284,16.308L28.004,16.308ZM0.212,50.598L0.212,59.171L72.166,59.171L72.166,50.598L0.212,50.598Z" fill="#A6A6A6"/>
</svg>
