<svg width="52" height="56" viewBox="0 0 52 56" fill="none" xmlns="http://www.w3.org/2000/svg" xmlns:xlink="http://www.w3.org/1999/xlink">
<path d="M22.574,0C10.126,0 0,10.905 0,24.31C0,37.716 10.126,48.621 22.574,48.621C26.508,48.621 30.249,47.509 33.474,45.564C33.645,45.881 33.839,46.183 34.054,46.467L40.504,53.622C41.099,54.343 41.826,54.926 42.638,55.335C43.45,55.743 44.332,55.969 45.228,55.997C46.124,56.025 47.016,55.856 47.849,55.5C48.682,55.144 49.439,54.608 50.073,53.925C50.707,53.242 51.205,52.427 51.536,51.53C51.866,50.633 52.024,49.672 51.997,48.707C51.971,47.742 51.762,46.793 51.382,45.918C51.003,45.043 50.462,44.261 49.791,43.62L43.148,36.674C42.885,36.442 42.604,36.233 42.31,36.049C44.051,32.576 45.148,28.547 45.148,24.31C45.148,10.905 35.022,0 22.574,0ZM22.574,6.946C31.539,6.946 38.698,14.656 38.698,24.31C38.698,28.408 37.408,32.229 35.28,35.146C35.215,35.215 35.151,35.285 35.086,35.354C34.955,35.419 34.826,35.488 34.699,35.562C34.053,36.095 33.505,36.755 33.087,37.507C30.249,40.077 26.573,41.605 22.574,41.605C13.609,41.605 6.45,33.896 6.45,24.241C6.45,14.586 13.609,6.876 22.574,6.876L22.574,6.946Z" fill="#505050"/>
</svg>
