<svg width="646" height="240" viewBox="0 0 646 240" fill="none" xmlns="http://www.w3.org/2000/svg" xmlns:xlink="http://www.w3.org/1999/xlink">
<path d="M135.738,184.342L52.276,184.615C51.592,184.607 50.928,184.259 50.378,183.622C49.828,182.984 49.422,182.089 49.216,181.065L45.738,162.773L120.541,162.227C122.093,162.324 123.621,161.603 124.881,160.178C126.142,158.753 127.063,156.706 127.496,154.364L133.86,121.601C132.116,122.107 130.347,122.363 128.574,122.366C119.904,122.352 111.591,116.941 105.457,107.32C99.323,97.699 95.868,84.651 95.85,71.038C95.872,67.159 96.163,63.296 96.719,59.516L26.612,60.062L22.056,35.818C21.573,33.223 20.586,30.928 19.234,29.254C17.881,27.58 16.229,26.611 14.509,26.481L2.581,25.553C1.793,25.493 1.023,25.924 0.436,26.753C-0.15,27.581 -0.504,28.739 -0.548,29.975C-0.568,31.214 -0.283,32.417 0.249,33.332C0.78,34.248 1.516,34.806 2.303,34.89L14.231,35.818C14.718,35.86 15.184,36.133 15.569,36.601C15.954,37.069 16.239,37.71 16.387,38.439L43.686,183.522C44.246,186.478 45.397,189.073 46.969,190.922C48.541,192.771 50.451,193.775 52.415,193.788L135.877,193.788C136.664,193.774 137.416,193.273 137.969,192.393C138.522,191.514 138.832,190.328 138.832,189.092C138.848,188.452 138.778,187.815 138.627,187.22C138.476,186.626 138.247,186.087 137.955,185.64C137.664,185.193 137.316,184.846 136.934,184.622C136.552,184.399 136.145,184.303 135.738,184.342Z" fill="#A41E22"/>
<path d="M60.412,238.673C66.673,238.673 71.749,230.703 71.749,220.872C71.749,211.041 66.673,203.071 60.412,203.071C54.151,203.071 49.075,211.041 49.075,220.872C49.075,230.703 54.151,238.673 60.412,238.673Z" fill="#A41E22"/>
<path d="M125.443,203.071C122.436,203.071 119.553,204.947 117.427,208.285C115.301,211.623 114.106,216.151 114.106,220.872C114.106,225.593 115.301,230.121 117.427,233.459C119.553,236.798 122.436,238.673 125.443,238.673C128.45,238.673 131.333,236.798 133.459,233.459C135.585,230.121 136.78,225.593 136.78,220.872C136.78,216.151 135.585,211.623 133.459,208.285C131.333,204.947 128.45,203.071 125.443,203.071Z" fill="#A41E22"/>
<path d="M128.26,29.157C122.478,29.213 116.864,32.213 112.261,37.708C107.658,43.202 104.315,50.893 102.734,59.626C102.022,63.383 101.658,67.282 101.656,71.202C101.656,76.721 102.349,82.186 103.695,87.284C105.041,92.382 107.014,97.013 109.501,100.913C111.988,104.813 114.94,107.905 118.189,110.012C121.438,112.119 124.918,113.2 128.433,113.193C130.904,113.181 133.362,112.629 135.736,111.555C141.336,109.077 146.266,103.794 149.776,96.508C153.285,89.223 155.182,80.337 155.176,71.202C155.181,65.66 154.486,60.171 153.134,55.053C151.781,49.934 149.796,45.286 147.294,41.378C144.792,37.469 141.822,34.377 138.555,32.28C135.288,30.182 131.789,29.121 128.26,29.157ZM140.709,82.178C140.872,82.479 141.012,82.809 141.127,83.161C141.66,84.338 141.91,85.772 141.833,87.211C141.757,88.65 141.359,90.001 140.709,91.023C140.308,91.632 139.836,92.114 139.318,92.443C138.606,92.882 137.826,92.981 137.078,92.728C136.33,92.476 135.646,91.883 135.111,91.023L128.572,80.758L122,91.023C121.632,91.608 121.192,92.072 120.709,92.388C120.225,92.705 119.707,92.868 119.183,92.868C118.659,92.868 118.141,92.705 117.657,92.388C117.174,92.072 116.735,91.608 116.366,91.023C115.631,89.84 115.22,88.253 115.22,86.6C115.22,84.947 115.631,83.361 116.366,82.178L122.904,71.912L116.366,61.646C115.994,61.049 115.699,60.344 115.497,59.571C115.321,58.838 115.227,58.062 115.219,57.278C115.214,56.458 115.312,55.645 115.509,54.885C115.706,54.126 115.997,53.436 116.366,52.855C116.735,52.271 117.174,51.807 117.657,51.49C118.141,51.173 118.659,51.011 119.183,51.011C119.707,51.011 120.225,51.173 120.709,51.49C121.192,51.807 121.632,52.271 122,52.855L126.243,59.462L128.572,63.121L130.903,59.462L135.111,52.855C135.476,52.272 135.912,51.809 136.393,51.493C136.873,51.177 137.389,51.015 137.91,51.015C138.431,51.015 138.947,51.177 139.427,51.493C139.908,51.809 140.344,52.272 140.709,52.855C141.089,53.425 141.39,54.112 141.594,54.873C141.797,55.634 141.899,56.452 141.892,57.278C141.886,57.991 141.792,58.696 141.613,59.353C141.439,60.224 141.128,61.013 140.709,61.646L134.172,71.912L140.709,82.178Z" fill="#A41E22"/>
<path d="M331.141,177.189C331.124,176.917 331.124,176.642 331.141,176.37C331.141,176.042 331.142,175.878 330.759,175.878L191.656,175.878C191.447,175.878 191.169,175.878 191.064,175.878C191.064,176.261 191.064,176.588 191.064,176.97L191.064,226.114C191.134,226.673 191.134,227.248 191.064,227.807C191.117,227.855 191.177,227.88 191.238,227.88C191.299,227.88 191.359,227.855 191.412,227.807L330.515,227.807C330.724,227.807 330.967,227.807 331.072,227.807C331.072,227.807 331.072,227.807 331.072,227.424C331.054,227.152 331.054,226.878 331.072,226.605L331.141,177.189ZM215.895,191.822C215.895,192.423 215.894,192.587 215.407,192.587L208.905,192.587C208.453,192.587 208.348,192.587 208.382,193.461C208.382,195.044 208.382,196.682 208.382,198.266C208.382,198.976 208.383,199.14 208.939,199.14L214.503,199.14C214.92,199.14 215.025,199.139 215.025,199.958C215.025,200.777 215.025,202.853 215.025,204.327C215.025,205.801 215.025,205.146 214.503,205.146L208.905,205.146C208.453,205.146 208.348,205.146 208.382,206.02L208.382,211.48C208.382,212.081 208.383,212.244 208.87,212.244L215.372,212.244C215.825,212.244 215.929,212.244 215.895,213.118C215.895,214.592 215.895,216.122 215.895,217.596C215.895,218.251 215.894,218.469 215.372,218.469L203.932,218.469C203.515,218.469 203.445,218.469 203.445,217.65L203.445,202.525C203.445,197.502 203.445,192.533 203.445,187.509C203.445,186.799 203.444,186.635 204.036,186.635L215.338,186.635C215.79,186.635 215.929,186.635 215.895,187.509C215.871,188.856 215.871,190.293 215.895,191.822ZM232.413,218.197C232.125,218.264 231.83,218.182 231.573,217.966C231.317,217.75 231.111,217.409 230.987,216.995C229.839,214.155 228.622,211.535 227.509,208.422C227.386,208.8 227.247,209.165 227.092,209.514L224.136,217.487C224.064,217.706 223.955,217.889 223.819,218.015C223.684,218.14 223.528,218.203 223.371,218.197L218.885,218.197C218.711,218.197 218.537,218.197 218.398,218.197C218.42,217.905 218.506,217.634 218.642,217.432L224.484,202.853C224.592,202.655 224.651,202.403 224.651,202.143C224.651,201.882 224.592,201.631 224.484,201.433L218.503,187.345L218.224,186.69C218.224,186.362 218.468,186.69 218.572,186.69L223.441,186.69C223.572,186.679 223.703,186.724 223.819,186.82C223.936,186.916 224.033,187.06 224.101,187.236L227.927,196.136C228.17,196.136 228.205,195.699 228.275,195.426C229.318,192.696 230.326,189.966 231.335,187.236C231.335,186.908 231.578,186.635 231.891,186.635L237.004,186.635C237.004,187.017 237.004,187.181 237.004,187.4L231.091,202.143C230.996,202.296 230.943,202.502 230.943,202.716C230.943,202.93 230.996,203.137 231.091,203.29L237.142,217.541L237.525,218.469C235.543,217.978 233.978,217.978 232.413,217.978L232.413,218.197ZM254.913,199.412C254.641,201.133 254.061,202.695 253.241,203.914C252.422,205.134 251.396,205.959 250.287,206.293C248.671,206.759 247.025,206.924 245.384,206.784C244.55,206.784 244.654,206.784 244.654,207.876L244.654,217.432C244.654,218.033 244.654,218.197 244.167,218.197L240.238,218.197C239.82,218.197 239.715,218.196 239.715,217.377C239.715,212.354 239.715,207.33 239.715,202.307C239.715,197.283 239.715,192.205 239.715,187.181C239.715,186.581 239.716,186.362 240.203,186.362L248.236,186.362C249.181,186.295 250.125,186.532 251.01,187.058C251.895,187.584 252.703,188.388 253.383,189.42C254.2,190.702 254.776,192.314 255.046,194.077C255.316,195.841 255.27,197.687 254.913,199.412ZM262.668,202.252C262.668,207.276 262.668,212.299 262.668,217.268C262.668,218.033 262.668,218.197 262.077,218.197L258.321,218.197C257.834,218.197 257.695,218.196 257.695,217.268C257.695,207.603 257.695,197.938 257.695,188.328C257.695,186.362 257.695,186.362 258.947,186.362L262.077,186.362C262.529,186.362 262.668,186.362 262.668,187.236C262.703,192.259 262.703,197.283 262.703,202.252L262.668,202.252ZM276.926,218.197C276.613,218.197 276.508,218.197 276.369,217.541L272.614,206.621C272.48,206.295 272.281,206.048 272.048,205.919C271.815,205.791 271.561,205.788 271.327,205.911C271.084,205.911 271.327,206.456 271.327,206.729L271.327,216.777C271.327,218.087 271.327,217.869 270.632,217.869L266.876,217.869C266.528,217.869 266.389,217.869 266.389,217.159L266.389,186.799C266.389,186.253 266.389,186.035 266.841,186.035L275.257,186.035C276.227,186.006 277.19,186.281 278.092,186.843C278.994,187.406 279.815,188.244 280.508,189.311C281.196,190.466 281.691,191.87 281.95,193.398C282.209,194.926 282.224,196.531 281.993,198.07C281.763,199.609 281.294,201.035 280.629,202.222C279.963,203.409 279.121,204.319 278.178,204.873C277.621,205.2 277.691,205.473 277.934,206.129L282.003,217.049C282.035,217.161 282.051,217.282 282.051,217.405C282.051,217.527 282.035,217.648 282.003,217.759L276.926,218.197ZM297.478,191.768C297.478,192.478 297.479,192.587 296.957,192.587L290.523,192.587C290.071,192.587 289.932,192.587 289.967,193.515C289.967,195.154 289.967,196.737 289.967,198.375C289.967,198.976 289.967,199.14 290.419,199.14L296.053,199.14C296.47,199.14 296.609,199.139 296.574,200.013C296.539,200.887 296.574,202.853 296.574,204.272C296.574,205.692 296.575,205.146 296.018,205.146L290.523,205.146C290.106,205.146 289.932,205.146 289.967,205.965C289.967,207.767 289.967,209.515 289.967,211.426C289.967,212.136 289.967,212.299 290.523,212.299L296.922,212.299C297.34,212.299 297.478,212.299 297.444,213.118C297.444,214.702 297.444,216.285 297.444,217.814C297.444,218.36 297.444,218.524 297.027,218.524L285.481,218.524C285.029,218.524 285.028,218.196 285.028,217.705L285.028,202.58C285.028,197.611 285.028,192.641 285.028,187.672C285.028,186.908 285.029,186.69 285.62,186.69L296.922,186.69C297.34,186.69 297.478,186.69 297.444,187.509C297.467,188.82 297.478,190.239 297.478,191.768ZM314.588,215.521C312.843,217.219 310.833,218.126 308.781,218.142L301.165,218.142C300.748,218.142 300.678,218.142 300.678,217.323L300.678,187.181C300.678,186.471 300.678,186.307 301.2,186.307C303.773,186.307 306.346,186.307 308.92,186.307C310.637,186.247 312.335,186.897 313.842,188.19C315.35,189.484 316.614,191.377 317.509,193.679C318.871,197.226 319.326,201.45 318.784,205.502C318.242,209.554 316.743,213.134 314.588,215.521Z" fill="#A41E22"/>
<path d="M215.095,50.343L215.121,50.386L215.095,50.343Z" fill="#A41E22"/>
<path d="M191.204,117.616C191.256,118.688 191.256,119.765 191.204,120.837L191.204,121.438C191.257,122.09 191.257,122.751 191.204,123.404L191.204,124.005C191.272,124.6 191.272,125.21 191.204,125.806C191.338,126.869 191.42,127.945 191.447,129.028C191.587,130.12 191.691,131.212 191.761,132.304C191.708,132.682 191.708,133.073 191.761,133.451C191.891,134.032 191.973,134.638 192.004,135.253C192.056,135.777 192.056,136.312 192.004,136.836L192.004,137.546L192.282,139.075C192.439,139.726 192.545,140.404 192.595,141.096C192.595,141.642 192.838,142.078 192.803,142.624C192.94,143.303 193.045,143.996 193.117,144.699C193.268,145.035 193.353,145.435 193.36,145.846C193.482,146.161 193.554,146.516 193.569,146.883L193.569,147.375C193.725,147.855 193.83,148.371 193.882,148.904C193.882,149.231 194.055,149.505 193.882,149.887C193.984,150.053 194.065,150.25 194.118,150.465C194.172,150.681 194.198,150.911 194.195,151.143C194.369,151.143 194.195,151.689 194.404,151.853C194.483,151.949 194.546,152.073 194.589,152.215C194.631,152.358 194.651,152.515 194.647,152.672C194.647,153.163 194.925,153.436 194.855,153.873L195.308,155.402C195.342,155.513 195.359,155.634 195.359,155.757C195.359,155.879 195.342,156.001 195.308,156.112L195.308,156.439C195.451,156.678 195.536,156.986 195.551,157.313L195.76,158.023C195.76,158.023 195.76,158.46 195.968,158.678C196.177,158.896 196.142,159.115 195.968,159.388L196.246,160.152C196.449,160.453 196.574,160.862 196.594,161.299C196.594,161.299 196.803,161.299 196.594,161.79C196.594,161.79 196.838,162.5 197.012,162.828C197.323,163.431 197.537,164.143 197.638,164.903C197.832,165.146 197.956,165.499 197.985,165.886L197.985,166.213C198.068,166.273 198.135,166.377 198.173,166.507C198.212,166.638 198.219,166.785 198.194,166.923L198.716,168.234C198.802,168.327 198.875,168.448 198.929,168.59C198.983,168.731 199.017,168.889 199.028,169.053L199.028,169.38L199.516,169.38L208.766,169.38C208.766,168.725 208.314,168.343 208.175,167.743L207.479,166.213C207.479,166.213 207.479,165.613 207.166,165.34L206.714,164.302C206.366,163.811 206.54,163.483 206.888,163.319C207.068,163.228 207.234,163.08 207.375,162.883C207.498,162.697 207.657,162.582 207.827,162.555L208.349,162.009C208.584,161.706 208.856,161.483 209.149,161.354C209.462,161.354 209.67,160.644 210.018,160.534L210.435,160.098C210.657,159.796 210.918,159.572 211.2,159.443L212.174,158.514C212.174,158.514 212.522,158.514 212.522,157.968C212.408,157.763 212.324,157.521 212.278,157.258L212.034,156.603C211.816,156.174 211.641,155.695 211.513,155.183C211.393,155.007 211.308,154.779 211.27,154.528C211.27,154.2 210.992,154.528 210.818,154.528C210.644,154.528 210.469,154.965 210.191,154.965L209.67,155.511C209.557,155.698 209.411,155.83 209.252,155.893C209.252,155.893 209.044,156.221 208.905,155.893L208.314,156.439C208.044,156.832 207.724,157.13 207.375,157.313L206.61,158.023C206.465,158.271 206.266,158.427 206.053,158.459L205.671,158.897C205.01,159.607 205.01,159.606 204.732,158.514C204.606,158.345 204.52,158.114 204.488,157.859C204.253,157.346 204.077,156.774 203.967,156.166C203.771,155.724 203.607,155.247 203.48,154.747C203.48,154.747 203.48,154.746 203.48,154.419L203.236,153.709C203.236,153.709 203.236,153.709 203.236,153.382L202.958,152.508C202.958,152.508 202.958,152.507 202.958,152.18C202.682,151.42 202.46,150.614 202.297,149.778L202.297,149.45C202.279,149.39 202.269,149.325 202.269,149.259C202.269,149.193 202.279,149.127 202.297,149.068C202.125,148.653 202.007,148.189 201.95,147.703L201.741,146.829C201.741,146.829 201.741,146.829 201.741,146.392L201.289,144.426C201.118,143.957 201.011,143.436 200.976,142.897L200.976,142.569C200.788,142.052 200.68,141.472 200.663,140.877L200.385,139.621C200.385,139.621 200.385,139.184 200.385,138.966C200.177,138.119 200.025,137.241 199.932,136.345C199.794,135.923 199.722,135.455 199.724,134.98C199.724,134.98 199.724,134.434 199.724,134.161C199.585,133.604 199.515,133.011 199.516,132.413C199.321,131.572 199.215,130.687 199.202,129.792C199.149,129.433 199.149,129.06 199.202,128.7C199.136,128.419 199.136,128.108 199.202,127.827C198.889,125.196 198.715,122.53 198.681,119.855C198.612,118.802 198.612,117.74 198.681,116.687L198.681,116.36L205.636,116.36C205.74,114.781 205.74,113.189 205.636,111.609L198.959,111.609C198.75,111.609 198.611,111.609 198.681,111.172C198.612,110.119 198.612,109.058 198.681,108.005C198.746,105.33 198.932,102.667 199.237,100.033C199.202,99.904 199.184,99.764 199.184,99.623C199.184,99.482 199.202,99.343 199.237,99.214C199.184,98.855 199.184,98.481 199.237,98.122C199.167,97.841 199.167,97.529 199.237,97.248C199.171,96.967 199.171,96.656 199.237,96.375C199.237,96.375 199.237,95.774 199.237,95.501C199.237,95.228 199.237,94.901 199.237,94.682C199.256,93.918 199.35,93.162 199.516,92.443C199.606,91.683 199.734,90.934 199.898,90.204C199.984,89.389 200.112,88.585 200.281,87.802C200.337,87.365 200.43,86.943 200.558,86.546C200.644,85.796 200.785,85.063 200.976,84.362C201.09,83.652 201.241,82.958 201.428,82.287C201.503,81.697 201.632,81.126 201.811,80.594L202.193,79.119C202.265,78.537 202.407,77.981 202.61,77.482C202.684,77.054 202.801,76.648 202.958,76.281C202.94,76.221 202.93,76.155 202.93,76.089C202.93,76.023 202.94,75.957 202.958,75.898L202.958,75.407C202.92,75.193 202.92,74.966 202.958,74.751L203.445,73.168C203.666,72.218 203.946,71.303 204.279,70.438C204.329,70.181 204.426,69.953 204.558,69.782C204.555,69.647 204.573,69.512 204.609,69.389C204.645,69.266 204.699,69.157 204.767,69.072C204.764,68.945 204.781,68.818 204.818,68.703C204.854,68.589 204.908,68.49 204.975,68.417C205.392,68.09 205.566,68.417 205.844,68.908L206.401,69.455C206.512,69.461 206.62,69.509 206.717,69.594C206.814,69.68 206.896,69.801 206.957,69.946L207.931,70.82L208.14,70.82L209.044,71.693C209.044,71.693 209.217,71.693 209.252,71.693C209.467,71.789 209.66,71.979 209.809,72.24L210.853,73.113C210.853,73.113 211.095,73.113 211.2,73.113C211.226,73.137 211.257,73.15 211.287,73.15C211.318,73.15 211.347,73.137 211.374,73.113C211.434,72.76 211.555,72.44 211.722,72.185C211.741,71.936 211.815,71.704 211.93,71.53C212.082,71.026 212.269,70.55 212.487,70.11C212.487,69.783 212.904,69.4 212.487,69.018C212.086,68.758 211.711,68.409 211.374,67.981C211.374,67.981 211.2,67.981 211.165,67.981L210.574,67.38L210.4,67.38L209.844,66.833C209.609,66.74 209.393,66.552 209.218,66.288L208.87,65.96C208.598,65.796 208.34,65.576 208.105,65.305L207.548,64.758C206.574,63.994 206.575,63.995 207.201,62.684L207.201,62.302L208.001,60.445C208.001,60.445 208.001,60.009 208.21,59.899L208.661,59.025C208.661,59.025 208.661,59.025 208.661,58.698C208.733,58.445 208.84,58.221 208.975,58.042C209.119,57.582 209.306,57.159 209.531,56.786L210.018,55.804C210.002,55.678 210.002,55.548 210.018,55.421L210.4,54.712L210.644,54.166L211.2,53.074C211.297,52.801 211.428,52.56 211.583,52.364C211.564,52.314 211.555,52.257 211.555,52.2C211.555,52.142 211.564,52.086 211.583,52.036L212.069,51.162C212.155,50.955 212.261,50.771 212.383,50.616C212.517,50.305 212.681,50.028 212.869,49.797C213.05,49.412 213.261,49.064 213.496,48.76C214.492,46.996 215.56,45.335 216.695,43.791L217.773,42.208L218.225,41.606C218.246,41.541 218.275,41.484 218.311,41.437C218.347,41.39 218.389,41.355 218.434,41.334L219.547,39.914C219.547,39.532 219.964,39.368 220.172,39.095L220.728,38.385L221.181,37.894C221.544,37.361 221.94,36.885 222.363,36.474C222.41,36.431 222.465,36.408 222.52,36.408C222.575,36.408 222.628,36.431 222.676,36.474C222.904,36.104 223.176,35.807 223.476,35.6C223.641,35.256 223.873,35.007 224.136,34.89L225.11,33.853L225.875,33.034C226.153,32.706 226.293,33.033 226.328,33.361L226.64,34.29C226.73,34.377 226.806,34.497 226.861,34.64C226.915,34.782 226.947,34.943 226.953,35.109L227.544,36.638C227.605,36.691 227.653,36.772 227.684,36.869C227.715,36.966 227.727,37.076 227.718,37.184L227.962,37.839C228.055,37.935 228.132,38.064 228.186,38.216C228.241,38.368 228.271,38.539 228.275,38.713L228.275,39.04C228.449,39.255 228.561,39.569 228.588,39.914L228.588,40.241C228.685,40.334 228.768,40.462 228.828,40.614C228.888,40.766 228.925,40.937 228.936,41.115L228.936,41.443C229.079,41.674 229.186,41.954 229.248,42.262C229.248,42.262 229.527,42.262 229.666,42.262L231.509,40.569C231.787,40.569 231.927,40.023 231.718,39.586C231.514,39.251 231.369,38.836 231.3,38.385L230.64,36.638C230.437,36.292 230.282,35.882 230.187,35.436L229.945,34.781L229.248,32.924L229.075,32.379L228.797,31.723L228.623,31.232C228.31,30.686 228.623,30.631 228.831,30.468C229.04,30.304 229.423,30.085 229.701,29.812C229.887,29.521 230.134,29.346 230.396,29.32C230.605,29.32 230.744,28.829 231.022,28.775C231.43,28.349 231.875,28.018 232.344,27.792C232.344,27.792 232.344,27.792 232.657,27.792C233.039,27.424 233.447,27.13 233.874,26.918C234.674,26.208 235.543,25.935 236.343,25.334C237.143,24.734 237.56,24.68 238.151,24.352C238.707,23.955 239.291,23.661 239.89,23.478C239.89,23.478 239.89,23.478 240.203,23.478C240.423,23.312 240.657,23.201 240.899,23.15C241.147,22.942 241.418,22.812 241.698,22.768C241.961,22.662 242.236,22.662 242.498,22.768L243.367,22.386C244.003,22.066 244.655,21.829 245.315,21.676C245.402,21.609 245.497,21.574 245.594,21.574C245.69,21.574 245.785,21.609 245.871,21.676C246.237,21.388 246.645,21.256 247.054,21.294C247.953,20.92 248.873,20.683 249.801,20.584C250.065,20.5 250.337,20.5 250.601,20.584C250.877,20.504 251.16,20.504 251.436,20.584L251.714,20.584C251.978,20.5 252.25,20.5 252.514,20.584C252.514,20.584 252.687,20.584 252.792,20.584C253.944,20.341 255.106,20.214 256.269,20.202C256.686,20.202 256.582,20.639 256.582,20.967C256.582,24.134 256.582,27.246 256.582,30.413C256.582,31.068 256.582,31.395 257.139,31.341C257.798,31.259 258.461,31.259 259.121,31.341C259.469,31.341 259.608,31.341 259.608,30.577C259.608,27.355 259.608,24.188 259.608,21.021C259.608,20.311 259.608,20.147 260.164,20.202C260.72,20.146 261.278,20.146 261.834,20.202C262.33,20.094 262.833,20.094 263.329,20.202L263.712,20.202C263.974,20.093 264.249,20.093 264.511,20.202C264.775,20.118 265.047,20.118 265.311,20.202C265.575,20.122 265.847,20.122 266.111,20.202C267.051,20.301 267.982,20.539 268.893,20.912L270.041,21.239C270.235,21.155 270.439,21.155 270.632,21.239C270.979,21.237 271.323,21.349 271.641,21.567C271.937,21.625 272.229,21.734 272.51,21.894C272.51,22.167 272.857,21.894 273.031,21.894C273.092,21.854 273.157,21.833 273.222,21.833C273.288,21.833 273.354,21.854 273.414,21.894C273.681,21.918 273.942,22.03 274.179,22.222C274.459,22.267 274.731,22.396 274.979,22.604C275.203,22.621 275.419,22.735 275.605,22.932C275.605,22.932 275.848,22.932 275.953,22.932C276.226,22.942 276.491,23.074 276.718,23.314C277.072,23.368 277.415,23.535 277.726,23.805C278.039,23.882 278.336,24.069 278.596,24.352L279.778,25.007C279.88,24.998 279.982,25.021 280.078,25.078C280.174,25.134 280.262,25.222 280.335,25.334L281.969,26.427C283.118,27.031 284.225,27.817 285.273,28.775C285.516,28.775 285.759,28.774 285.898,29.32L287.011,30.194C287.602,30.194 287.324,30.741 287.011,31.177L286.49,32.597C286.416,33.042 286.258,33.441 286.037,33.744L284.821,37.02C284.82,37.195 284.791,37.367 284.736,37.52C284.681,37.673 284.602,37.801 284.508,37.894L284.508,38.221C284.507,38.354 284.484,38.485 284.441,38.6C284.399,38.714 284.337,38.81 284.264,38.876L284.055,39.423C284.055,39.75 283.846,40.023 284.055,40.296L284.264,40.296C284.483,40.337 284.684,40.515 284.821,40.788L285.168,41.115C285.342,41.115 285.447,41.115 285.551,41.443L285.794,41.443C286.072,41.443 286.247,41.934 286.56,41.88C286.622,41.556 286.728,41.257 286.872,41.006C286.872,41.006 286.872,41.006 286.872,40.679C286.997,40.255 287.149,39.853 287.325,39.477C287.42,39.048 287.574,38.656 287.776,38.33C287.815,37.992 287.926,37.684 288.09,37.456C288.15,37.103 288.27,36.783 288.437,36.529C288.618,35.888 288.828,35.268 289.063,34.672L289.411,33.798C289.411,33.798 289.411,33.471 289.585,33.307C289.759,33.143 289.585,32.433 290.072,32.652L290.28,32.652C290.373,32.654 290.465,32.696 290.544,32.773C290.624,32.85 290.689,32.959 290.733,33.088L292.262,34.672C292.467,34.736 292.651,34.91 292.784,35.163C293.083,35.318 293.349,35.602 293.55,35.983L294.419,37.02C294.726,37.177 294.994,37.483 295.184,37.894L296.401,39.423C296.678,39.586 296.912,39.894 297.061,40.296L297.688,41.115C297.782,41.137 297.871,41.2 297.945,41.296C298.019,41.393 298.074,41.519 298.105,41.661L298.348,42.044C298.661,42.242 298.927,42.585 299.113,43.026L299.461,43.573C299.539,43.594 299.612,43.652 299.668,43.74C299.724,43.828 299.76,43.941 299.774,44.064L299.983,44.391C300.289,44.631 300.552,44.988 300.748,45.429C300.997,45.685 301.211,46.019 301.374,46.412L301.617,46.794C301.941,47.141 302.204,47.61 302.382,48.159L303.356,49.742C303.556,49.922 303.706,50.215 303.773,50.562C303.883,50.651 303.979,50.775 304.057,50.925C304.135,51.076 304.192,51.249 304.225,51.435L304.852,52.637C305.105,52.85 305.302,53.199 305.408,53.62L305.86,54.494C305.943,54.567 306.014,54.668 306.068,54.791C306.123,54.915 306.158,55.055 306.173,55.203L306.833,56.568C306.937,56.661 307.028,56.786 307.1,56.936C307.172,57.087 307.224,57.259 307.251,57.442L307.598,58.152C307.651,58.197 307.697,58.259 307.733,58.334C307.769,58.41 307.794,58.497 307.807,58.589C307.863,58.653 307.911,58.734 307.946,58.828C307.982,58.922 308.006,59.026 308.016,59.135L308.363,59.845C308.634,60.296 308.857,60.812 309.025,61.373C309.258,61.766 309.435,62.231 309.546,62.738C309.546,63.23 310.172,63.503 309.546,64.158C309.373,64.385 309.172,64.553 308.955,64.65C308.804,64.895 308.61,65.066 308.398,65.141L308.016,65.523C307.748,65.879 307.442,66.157 307.112,66.342L306.694,66.725C306.529,66.94 306.341,67.106 306.138,67.216C305.991,67.47 305.796,67.642 305.582,67.707L304.99,68.253C304.885,68.43 304.754,68.562 304.608,68.636C304.365,69.018 303.947,69.018 303.808,69.618C303.877,69.95 303.996,70.25 304.156,70.492C304.156,70.82 304.469,71.093 304.469,71.475C304.682,71.819 304.847,72.228 304.955,72.676C304.955,73.168 305.304,73.222 305.582,73.004L306.138,72.458C306.138,72.458 306.138,72.458 306.347,72.458L306.903,71.912L307.668,71.257C307.762,71.098 307.883,70.984 308.016,70.929C308.016,70.929 308.224,70.492 308.433,70.547L308.99,70.001C309.152,69.791 309.342,69.641 309.546,69.564C309.697,69.318 309.89,69.147 310.102,69.072L310.311,69.072C310.467,68.838 310.659,68.669 310.868,68.581C311.111,68.581 311.18,68.581 311.285,68.963C311.515,69.32 311.672,69.776 311.737,70.274L311.737,70.656C311.737,70.656 311.945,71.038 311.945,71.311L312.189,72.021C312.28,72.144 312.355,72.294 312.409,72.463C312.463,72.632 312.494,72.815 312.502,73.004L312.502,73.386C312.57,73.463 312.627,73.56 312.669,73.673C312.711,73.786 312.736,73.912 312.745,74.042C312.865,74.296 312.938,74.599 312.954,74.915L313.511,76.826C313.58,76.933 313.634,77.06 313.67,77.201C313.706,77.342 313.722,77.494 313.719,77.646L314.137,79.393C314.219,79.497 314.284,79.631 314.326,79.783C314.368,79.935 314.387,80.101 314.38,80.267L314.832,82.068C315.038,82.684 315.179,83.348 315.25,84.034C315.318,84.602 315.435,85.153 315.597,85.672C315.597,85.672 315.597,86 315.597,86.273C315.597,86.546 315.597,86.655 315.597,86.764C315.75,87.117 315.824,87.539 315.806,87.965L316.257,90.423C316.396,90.825 316.468,91.276 316.466,91.733C316.605,92.155 316.677,92.624 316.675,93.098C316.709,93.209 316.727,93.33 316.727,93.453C316.727,93.576 316.709,93.698 316.675,93.808C316.947,95.271 317.133,96.769 317.231,98.286C317.299,98.642 317.299,99.022 317.231,99.378C317.179,99.737 317.179,100.11 317.231,100.47C317.282,100.903 317.282,101.347 317.231,101.78C317.491,104.052 317.631,106.353 317.649,108.66C317.649,109.753 317.649,110.899 317.649,111.991C317.649,113.083 317.649,112.374 317.37,112.374L310.659,112.374C310.572,113.954 310.572,115.544 310.659,117.124L310.833,117.124C313.036,117.124 315.226,117.124 317.405,117.124C317.405,117.124 317.614,117.124 317.614,117.452C317.684,118.541 317.684,119.638 317.614,120.728C317.596,123.035 317.456,125.336 317.196,127.608C317.25,128.022 317.25,128.45 317.196,128.864C317.247,129.15 317.247,129.452 317.196,129.738C317.242,130.098 317.242,130.47 317.196,130.83C317.266,131.13 317.266,131.458 317.196,131.758C317.198,132.356 317.127,132.949 316.988,133.506C317.055,133.787 317.055,134.097 316.988,134.379L316.988,135.362C317.014,135.457 317.027,135.559 317.027,135.663C317.027,135.766 317.014,135.868 316.988,135.963C316.99,136.437 316.918,136.906 316.78,137.328C316.715,138.226 316.574,139.108 316.362,139.949C316.235,140.303 316.153,140.692 316.119,141.096C316.121,141.536 316.049,141.969 315.91,142.351C315.869,142.743 315.774,143.115 315.632,143.443L315.215,145.573C315.158,146.069 315.052,146.548 314.902,146.993C314.889,147.353 314.804,147.697 314.658,147.976L314.102,150.214C314.113,150.367 314.1,150.522 314.064,150.665C314.027,150.808 313.968,150.935 313.893,151.033L313.893,151.416C313.871,151.858 313.761,152.278 313.58,152.617C313.579,152.773 313.557,152.926 313.515,153.068C313.473,153.209 313.412,153.335 313.337,153.436C312.746,155.347 312.189,157.259 311.598,158.897C311.609,159.026 311.594,159.157 311.557,159.274C311.52,159.391 311.462,159.488 311.389,159.552C311.111,160.316 311.111,160.316 310.833,160.316L310.241,159.77C310.019,159.696 309.814,159.526 309.65,159.279C309.276,158.992 308.916,158.663 308.572,158.295L307.946,157.695C307.734,157.62 307.541,157.449 307.39,157.204L306.624,156.494C306.423,156.404 306.235,156.256 306.068,156.057C305.793,155.856 305.536,155.599 305.303,155.293C304.921,155.293 304.991,155.948 304.782,156.166C304.699,156.471 304.581,156.748 304.434,156.985L303.982,158.241C304.025,158.417 304.025,158.612 303.982,158.787C303.982,158.787 303.808,159.334 303.982,159.607L304.33,159.934C304.629,160.025 304.899,160.276 305.095,160.644L306.068,161.518C306.173,161.536 306.274,161.589 306.364,161.674C306.454,161.758 306.531,161.873 306.591,162.009L306.833,162.009C306.94,162.02 307.044,162.064 307.14,162.139C307.235,162.214 307.321,162.318 307.39,162.445L308.468,163.483C308.847,163.63 309.195,163.932 309.476,164.357C309.476,164.357 309.963,164.357 309.685,164.903L309.685,165.23C309.51,165.789 309.3,166.319 309.059,166.814C308.928,167.315 308.725,167.763 308.468,168.124L307.703,169.871C307.703,170.308 307.703,170.527 307.981,170.527L316.849,170.527C317.007,170.611 317.178,170.611 317.336,170.527C317.336,170.036 317.58,169.762 317.753,169.38L318.101,168.452C318.1,168.333 318.119,168.215 318.156,168.11C318.192,168.005 318.245,167.916 318.31,167.851L318.623,166.923C318.717,166.444 318.87,165.999 319.074,165.613L319.318,164.903C319.318,164.903 319.318,164.903 319.318,164.575C319.375,164.259 319.47,163.963 319.597,163.702C319.628,163.415 319.712,163.149 319.839,162.937C319.924,162.392 320.091,161.886 320.327,161.463C320.403,160.96 320.532,160.48 320.709,160.043C320.775,159.509 320.918,159.004 321.127,158.569C321.241,158.017 321.392,157.486 321.578,156.985C321.588,156.683 321.662,156.396 321.787,156.166L322.135,154.801L322.552,153.054L322.796,152.18L324.082,146.01C324.156,145.426 324.273,144.858 324.43,144.317C324.377,144.088 324.377,143.837 324.43,143.607C324.445,143.188 324.517,142.779 324.639,142.406L324.639,141.914C324.705,140.922 324.856,139.948 325.091,139.021C325.059,138.909 325.043,138.788 325.043,138.665C325.043,138.543 325.059,138.423 325.091,138.311C325.061,137.786 325.121,137.258 325.265,136.782L325.613,133.997C325.546,133.622 325.546,133.225 325.613,132.85C325.561,132.565 325.561,132.262 325.613,131.977C325.631,131.275 325.701,130.578 325.821,129.902C325.874,128.474 325.978,127.051 326.134,125.642C326.082,124.99 326.082,124.329 326.134,123.677L326.134,123.076C326.065,122.425 326.065,121.761 326.134,121.11L326.134,120.674C326.064,119.621 326.064,118.559 326.134,117.506C326.064,116.911 326.064,116.3 326.134,115.705L326.134,113.63C326.064,113.034 326.064,112.424 326.134,111.828C326.065,110.83 326.065,109.823 326.134,108.824L326.134,108.169C326.065,107.592 326.065,106.999 326.134,106.421L326.134,105.603C326.081,105.005 326.081,104.398 326.134,103.801C326.118,103.693 326.118,103.581 326.134,103.473C326.134,101.89 325.89,100.252 325.751,98.668C325.699,98.383 325.699,98.08 325.751,97.794C325.681,97.513 325.681,97.201 325.751,96.92C325.628,96.357 325.559,95.769 325.543,95.173C325.526,95.047 325.526,94.917 325.543,94.791L325.23,92.607C325.146,92.088 325.146,91.543 325.23,91.023C324.961,89.734 324.741,88.422 324.569,87.092C324.517,86.807 324.517,86.504 324.569,86.218L324.152,83.979C323.993,83.462 323.888,82.91 323.839,82.342C323.692,81.832 323.576,81.301 323.491,80.758C323.491,80.758 323.491,80.758 323.491,80.376C323.355,80.072 323.282,79.709 323.282,79.338L323.005,78.301C323.005,78.301 323.005,78.3 323.005,77.864L322.761,76.936L322.761,76.226C322.61,75.795 322.492,75.337 322.413,74.861L322.17,73.987C322.122,73.794 322.122,73.579 322.17,73.386C321.991,72.88 321.839,72.35 321.717,71.803L321.439,70.875L321.127,69.728C320.911,69.197 320.735,68.63 320.604,68.035L320.604,67.489L320.604,67.107L320.327,66.288C320.148,65.905 320.006,65.481 319.909,65.032L319.7,64.377C319.668,64.217 319.668,64.045 319.7,63.885C319.599,63.738 319.528,63.549 319.492,63.339L319.249,62.684C318.953,62.031 318.697,61.337 318.484,60.609C318.484,60.609 318.275,60.609 318.275,60.117C318.166,59.98 318.092,59.786 318.066,59.571C317.871,59.236 317.718,58.848 317.614,58.425C317.614,58.425 317.614,58.425 317.614,58.042C317.614,57.66 317.614,58.043 317.614,57.715L317.266,56.896L317.023,56.35L316.71,55.531C316.405,55.026 316.147,54.456 315.945,53.838C315.799,53.62 315.68,53.361 315.597,53.074C315.49,52.946 315.405,52.776 315.353,52.582C315.353,52.09 314.867,51.763 314.728,51.217C314.661,51.171 314.604,51.095 314.567,50.997C314.53,50.899 314.513,50.785 314.519,50.671C314.065,49.952 313.658,49.166 313.302,48.323L312.989,47.722L312.572,46.903L312.189,46.194C312.063,46.085 311.965,45.911 311.91,45.702L311.528,44.992L311.354,44.665L310.868,43.791C310.707,43.628 310.574,43.402 310.485,43.135C310.427,43.122 310.373,43.076 310.335,43.006C310.296,42.936 310.275,42.846 310.276,42.754L309.685,41.77C309.685,41.77 309.476,41.771 309.476,41.388L309.267,41.06C309.033,40.857 308.841,40.554 308.711,40.187L308.398,39.641C308.226,39.481 308.083,39.256 307.981,38.985L307.529,38.276L307.286,37.948C307.189,37.865 307.114,37.729 307.077,37.566C306.931,37.463 306.809,37.291 306.729,37.074L306.103,36.146C305.845,35.91 305.62,35.595 305.443,35.218L304.886,34.454C304.755,34.339 304.638,34.192 304.538,34.017L304.121,33.416C304.053,33.449 303.981,33.449 303.913,33.416L303.46,32.815C303.41,32.816 303.362,32.789 303.323,32.739C303.285,32.689 303.26,32.62 303.251,32.543L302.939,32.16L302.035,31.013L301.721,30.631C301.445,30.464 301.213,30.157 301.061,29.758C301.061,29.758 301.061,29.758 300.852,29.758L300.4,29.212C300.229,29.1 300.075,28.932 299.948,28.72C299.824,28.638 299.716,28.506 299.635,28.338C299.394,28.153 299.171,27.914 298.974,27.628L297.548,26.099L296.47,24.953C296.358,25.02 296.235,25.02 296.123,24.953L295.566,24.407L294.697,23.587L294.349,23.205L291.741,20.967C291.741,20.967 291.567,20.967 291.532,20.967L290.733,20.257C290.542,20.23 290.36,20.116 290.21,19.929L289.654,19.492C289.59,19.545 289.518,19.572 289.445,19.572C289.373,19.572 289.301,19.545 289.237,19.492L288.785,19.11C288.591,19.031 288.413,18.882 288.264,18.673C288.084,18.646 287.913,18.531 287.776,18.345C287.427,18.231 287.096,18.008 286.802,17.69L286.281,17.308C286.281,17.308 286.107,17.308 286.037,17.308L285.481,16.926C285.177,16.836 284.883,16.669 284.612,16.434L283.638,15.833C283.269,15.682 282.908,15.481 282.56,15.233L281.899,14.851C281.55,14.762 281.21,14.597 280.891,14.359L279.917,13.868L279.152,13.486C279.152,13.486 278.874,13.486 278.735,13.486C278.596,13.486 278.352,13.486 278.178,13.486L276.927,12.885C276.736,12.993 276.526,12.993 276.335,12.885L275.118,12.503L273.587,11.902C273.406,11.984 273.213,11.984 273.031,11.902C272.961,11.955 272.884,11.983 272.806,11.983C272.727,11.983 272.65,11.955 272.58,11.902C272.41,11.986 272.227,11.986 272.058,11.902C271.876,11.984 271.683,11.984 271.501,11.902C271.284,11.985 271.058,11.985 270.841,11.902C270.069,11.801 269.302,11.618 268.545,11.356L268.337,11.356C268.073,11.44 267.8,11.44 267.537,11.356C267.202,11.44 266.863,11.44 266.529,11.356C264.094,11.356 261.625,10.864 259.191,10.864C256.756,10.864 254.983,11.192 252.861,11.356C252.562,11.437 252.256,11.437 251.957,11.356C251.728,11.44 251.49,11.44 251.262,11.356L252.27,11.356C252.077,11.44 251.873,11.44 251.679,11.356C251.641,11.382 251.599,11.395 251.557,11.395C251.515,11.395 251.474,11.382 251.436,11.356C251.013,11.518 250.582,11.628 250.149,11.683C249.931,11.763 249.705,11.763 249.488,11.683C249.271,11.767 249.045,11.767 248.828,11.683L248.653,11.683L243.02,13.649C242.897,13.725 242.76,13.725 242.637,13.649C242.387,13.841 242.115,13.953 241.838,13.977C241.783,14.016 241.724,14.036 241.664,14.036C241.604,14.036 241.544,14.016 241.489,13.977C240.808,14.388 240.112,14.734 239.403,15.014L239.021,15.014C238.226,15.542 237.414,15.997 236.586,16.379C236.132,16.75 235.655,17.043 235.161,17.253C234.152,17.963 233.143,18.728 232.1,19.328L231.891,19.328C231.476,19.732 231.033,20.062 230.57,20.311L225.423,24.679L220.172,30.14C219.811,30.685 219.401,31.145 218.955,31.505L215.93,35.436L214.156,37.839L210.33,43.736C209.6,45.101 208.835,46.521 208.036,47.777C207.366,49.256 206.646,50.678 205.879,52.036L205.323,53.074C205.217,53.553 205.038,53.984 204.802,54.33C204.505,55.101 204.168,55.832 203.793,56.514C203.376,57.824 202.715,58.861 202.263,60.117C202.168,60.428 202.051,60.721 201.915,60.991C201.88,61.316 201.768,61.609 201.602,61.81C201.602,61.81 201.394,62.193 201.359,62.466C201.355,62.64 201.324,62.81 201.27,62.962C201.215,63.114 201.138,63.244 201.046,63.339C200.837,63.722 200.802,64.213 200.558,64.595C200.315,64.977 200.559,65.087 200.281,65.25C200.002,65.414 200.002,66.179 199.863,66.616C199.828,66.96 199.732,67.281 199.585,67.543L199.168,68.8C199.088,69.321 198.934,69.806 198.716,70.219L198.716,70.492C198.654,71.251 198.419,71.949 198.054,72.458C198.054,72.458 197.603,73.932 197.498,74.697C197.394,75.461 197.498,75.243 197.289,75.352C197.289,75.625 197.289,75.789 197.289,76.007C197.28,76.326 197.206,76.631 197.081,76.881C197.078,77.036 197.055,77.189 197.013,77.33C196.971,77.471 196.912,77.597 196.838,77.7C196.838,78.192 196.629,78.519 196.629,79.011C196.633,79.168 196.613,79.324 196.57,79.467C196.528,79.609 196.465,79.733 196.385,79.829C196.385,80.157 196.385,80.43 196.211,80.703C196.037,80.976 196.211,81.085 196.211,81.194C196.211,81.304 195.899,82.068 195.968,82.559C195.974,82.749 195.955,82.939 195.913,83.117C195.871,83.296 195.807,83.459 195.725,83.597L195.308,85.836C195.319,86.253 195.232,86.661 195.064,86.983L195.064,87.365C195.023,87.912 194.929,88.446 194.786,88.948C194.754,89.363 194.683,89.767 194.577,90.15L194.577,90.805C194.526,91.514 194.422,92.21 194.264,92.88C194.225,93.007 194.203,93.148 194.203,93.29C194.203,93.432 194.225,93.572 194.264,93.699C194.266,94.174 194.194,94.642 194.056,95.064C194.007,96.01 193.89,96.944 193.707,97.849C193.76,98.134 193.76,98.437 193.707,98.723C193.76,99.008 193.76,99.311 193.707,99.596C193.76,99.881 193.76,100.184 193.707,100.47C193.707,102.272 193.464,104.019 193.256,105.93C193.309,106.565 193.309,107.207 193.256,107.841L193.256,108.279C193.256,108.988 193.256,109.753 193.047,110.408C192.838,111.063 193.256,110.79 193.047,111.063C193.115,112.062 193.115,113.068 193.047,114.066C193.116,114.662 193.116,115.273 193.047,115.869L193.047,117.725C192.439,117.977 191.798,117.939 191.204,117.616Z" fill="#A41E22"/>
<path d="M279.5,89.919L279.526,89.876L279.5,89.919Z" fill="#A41E22"/>
<path d="M309.372,193.188C308.296,193.051 307.214,193.051 306.138,193.188C305.721,193.188 305.582,193.188 305.617,194.007L305.617,210.934C305.617,211.589 305.616,211.753 306.138,211.698L308.363,211.698C309.365,211.779 310.361,211.405 311.23,210.621C312.1,209.836 312.807,208.675 313.267,207.276C313.851,205.26 314.044,203.019 313.823,200.832C313.783,198.934 313.312,197.122 312.496,195.72C311.68,194.319 310.572,193.421 309.372,193.188Z" fill="#A41E22"/>
<path d="M274.353,192.805L271.571,192.805C271.258,192.805 271.188,192.805 271.188,193.461L271.188,200.232C271.188,200.614 271.188,200.777 271.501,200.777L274.735,200.777C275.214,200.798 275.682,200.56 276.062,200.103C276.442,199.646 276.711,198.997 276.822,198.266C277,197.649 277.072,196.969 277.03,196.295C276.989,195.621 276.836,194.975 276.586,194.423C276.336,193.87 275.998,193.43 275.606,193.146C275.215,192.862 274.783,192.745 274.353,192.805Z" fill="#A41E22"/>
<path d="M248.202,192.751C247.114,192.615 246.02,192.615 244.932,192.751C244.654,192.751 244.655,193.024 244.655,193.297L244.655,200.177C244.655,200.505 244.654,200.778 244.932,200.778C245.986,200.887 247.044,200.887 248.097,200.778C248.39,200.743 248.675,200.618 248.937,200.41C249.199,200.202 249.431,199.914 249.622,199.564C249.813,199.214 249.958,198.808 250.048,198.37C250.139,197.931 250.172,197.47 250.149,197.01C250.219,196.527 250.224,196.026 250.161,195.539C250.099,195.053 249.972,194.593 249.788,194.19C249.604,193.787 249.367,193.451 249.093,193.202C248.82,192.954 248.516,192.801 248.202,192.751Z" fill="#A41E22"/>
<path d="M276.892,100.415C272.371,88.184 267.861,75.934 263.364,63.666C263.161,63.035 262.85,62.504 262.466,62.133C262.082,61.762 261.641,61.565 261.19,61.565C260.739,61.565 260.298,61.762 259.914,62.133C259.53,62.504 259.22,63.035 259.017,63.666C256.687,70 254.357,76.28 252.061,82.614L230.779,140.44C230.538,141.03 230.394,141.706 230.361,142.406C230.341,142.95 230.394,143.494 230.518,144.003C230.643,144.512 230.834,144.973 231.081,145.355C231.328,145.738 231.625,146.033 231.951,146.221C232.276,146.409 232.624,146.486 232.97,146.446L289.376,146.446C289.709,146.481 290.044,146.412 290.36,146.243C290.676,146.075 290.968,145.809 291.219,145.463C291.663,144.817 291.94,143.937 291.998,142.99C292.055,142.044 291.89,141.098 291.532,140.331L276.892,100.415ZM263.155,136.399C262.924,136.875 262.628,137.26 262.287,137.525C261.946,137.791 261.57,137.929 261.19,137.929C260.81,137.929 260.435,137.791 260.094,137.525C259.753,137.26 259.456,136.875 259.225,136.399C258.732,135.431 258.462,134.227 258.462,132.987C258.462,131.746 258.732,130.542 259.225,129.574C259.452,129.056 259.756,128.632 260.11,128.34C260.465,128.047 260.859,127.894 261.26,127.894C261.66,127.894 262.055,128.047 262.409,128.34C262.764,128.632 263.067,129.056 263.294,129.574C263.717,130.617 263.936,131.832 263.921,133.068C263.908,134.281 263.638,135.453 263.155,136.399ZM263.538,109.097C263.294,113.848 263.016,118.652 262.807,123.458C262.807,124.222 262.599,124.55 262.077,124.441C261.556,124.332 260.79,124.441 260.13,124.441C259.469,124.441 259.643,124.441 259.608,123.786C259.365,118.325 259.052,112.865 258.774,107.841C258.774,104.892 258.426,101.944 258.286,98.94C258.286,97.521 258.286,96.102 258.286,94.682C258.286,93.481 258.286,92.334 258.286,91.187C258.275,90.463 258.354,89.742 258.522,89.067C258.689,88.392 258.94,87.777 259.26,87.256C259.522,86.779 259.85,86.402 260.22,86.157C260.589,85.911 260.989,85.803 261.39,85.84C261.79,85.877 262.18,86.058 262.528,86.37C262.877,86.682 263.174,87.116 263.398,87.638C263.894,88.72 264.161,90.018 264.163,91.351C264.183,97.299 263.974,103.243 263.538,109.151L263.538,109.097Z" fill="#A41E22"/>
<path d="M415.717,19.71C415.717,21.239 415.961,21.73 417.004,21.785C420.481,21.785 420.481,21.785 420.481,27.573C420.516,28.118 420.516,28.667 420.481,29.211C420.203,31.723 420.967,31.832 422.289,31.45C429.125,29.621 436.11,29.621 442.946,31.45C444.129,31.777 444.893,31.723 444.65,29.375C444.615,28.702 444.615,28.027 444.65,27.354C444.65,21.894 444.65,21.894 448.127,21.894C449.275,21.894 449.692,21.458 449.657,19.546C449.657,14.086 449.657,8.189 449.657,2.565C449.657,0.053 449.345,-0.821 447.606,-0.821C438.39,-0.821 429.21,-0.821 420.029,-0.821C415.473,-0.821 415.473,-0.821 415.786,6.387L415.786,12.393C415.717,14.796 415.717,17.253 415.717,19.71Z" fill="#F08921"/>
<path d="M497.961,51.271C493.023,43.681 488.156,35.982 483.287,28.338L482.173,26.699L479.392,31.504C478.14,33.579 475.914,35.491 475.914,37.729C475.914,39.968 478.14,41.825 479.392,43.954L479.704,44.391C480.469,45.265 480.365,46.029 479.704,47.012C478.417,48.868 477.236,50.944 475.914,52.855C475.149,53.947 474.975,54.656 475.914,55.912C477.487,58.154 478.985,60.524 480.4,63.011C481.096,64.212 481.512,64.595 482.312,63.011C483.112,61.428 484.851,59.134 485.999,57.059C487.146,54.984 487.25,55.858 487.98,57.059C488.711,58.261 490.102,60.281 491.076,62.028C492.05,63.775 492.189,63.229 492.884,62.028C494.554,59.189 496.362,56.568 498.101,53.783C498.657,53.073 498.692,52.418 497.961,51.271Z" fill="#F08921"/>
<path d="M492.92,116.742C492.967,114.413 492.766,112.088 492.327,109.862C490.416,95.85 486.534,82.686 480.964,71.334C475.394,59.982 468.279,50.73 460.137,44.254C451.996,37.779 443.035,34.244 433.911,33.909C424.787,33.573 415.731,36.446 407.406,42.317C395.286,50.919 385.28,65.483 378.899,83.807C372.518,102.131 370.11,123.218 372.038,143.881C372.943,155.283 375.309,166.278 378.993,176.206C379.973,179.615 381.249,182.793 382.784,185.653C388.284,198.08 395.67,208.158 404.275,214.975C409.832,219.804 415.921,222.935 422.22,224.203C422.889,224.775 423.658,224.986 424.411,224.804C425.106,224.804 425.802,225.295 426.497,225.405C449.936,227.753 468.855,214.484 482.556,184.342C490.984,166.019 494.708,143.386 492.989,120.947C493.239,119.567 493.215,118.1 492.92,116.742ZM459.883,197.666C451.98,205.566 442.852,209.928 433.487,210.279L431.366,210.279C418.417,209.68 406.082,201.477 396.799,187.291C393.409,181.991 390.453,176.048 388,169.599L387.235,167.579C383.235,155.205 381.218,141.484 381.359,127.608C381.718,108.504 386.399,90.225 394.562,76.046C402.725,61.868 413.836,52.718 425.906,50.235C435.537,48.239 445.33,50.587 454.143,57.005L455.5,57.825L456.821,58.971C457.546,59.9 458.371,60.621 459.256,61.101L460.229,62.138C469.397,71.562 476.442,85.279 480.364,101.344C482.063,108.514 483.151,116.005 483.599,123.622L483.599,136.291C482.954,148.711 480.474,160.724 476.357,171.377C472.24,182.03 466.6,191.031 459.883,197.666Z" fill="#F08921"/>
<path d="M440.302,142.733C439.888,141.662 439.684,140.423 439.715,139.171C439.746,137.918 440.011,136.708 440.477,135.69C441.162,133.862 441.454,131.737 441.311,129.628C441.336,126.984 440.842,124.393 439.897,122.205C438.951,120.017 437.599,118.338 436.025,117.397C435.391,117.01 434.824,116.392 434.371,115.595C433.918,114.798 433.59,113.844 433.417,112.81C430.078,98.249 426.705,83.688 423.297,69.127C423.019,67.926 422.915,66.179 421.698,66.779C420.481,67.38 420.933,68.745 421.072,70.11C422.846,85.782 424.55,101.508 426.393,117.179C426.519,117.958 426.521,118.773 426.4,119.553C426.278,120.334 426.038,121.056 425.698,121.656C424.962,122.942 424.399,124.448 424.044,126.084C423.688,127.72 423.547,129.452 423.629,131.175C423.71,132.899 424.012,134.579 424.517,136.114C425.022,137.65 425.719,139.01 426.567,140.112C427.668,141.376 428.571,143.015 429.21,144.907C429.849,146.799 430.206,148.894 430.253,151.033C430.253,152.671 430.774,154.31 430.809,155.948C430.809,158.46 431.679,158.951 433.035,158.35L441.172,154.91C442.528,154.364 442.841,153.327 442.32,151.306C441.798,149.286 441.033,145.463 440.302,142.733Z" fill="#F08921"/>
<path d="M480.086,133.56L480.086,124.714L472.054,129.246L480.086,133.56Z" fill="#F08921"/>
<path d="M474.348,94.135C473.548,92.279 472.853,90.258 472.088,88.129L466.629,98.177L473.584,96.265C474.419,96.046 475.009,95.719 474.348,94.135Z" fill="#F08921"/>
<path d="M390.4,163.811C390.4,165.339 391.234,166.213 391.408,167.579L393.043,171.455L398.398,161.518L392.452,162.937C391.861,163.811 391.06,163.374 390.4,163.811Z" fill="#F08921"/>
<path d="M432.132,67.707L433.626,60.936C435.017,54.711 435.017,54.821 430.705,55.039C429.558,55.039 429.383,55.64 429.731,57.169C430.496,60.445 431.227,63.721 432.132,67.707Z" fill="#F08921"/>
<path d="M410.5,196.136C411.439,197.064 411.682,196.519 411.821,195.099C412.204,191.55 412.621,188.001 413.108,184.178L406.64,192.805C408.1,193.898 409.353,194.935 410.5,196.136Z" fill="#F08921"/>
<path d="M473.793,162.227C471.637,161.79 469.515,161.025 466.838,160.315L472.4,170.418C473.165,168.343 473.758,166.595 474.453,164.957C475.149,163.319 475.184,162.555 473.793,162.227Z" fill="#F08921"/>
<path d="M454.213,196.136L459.083,191.713L452.613,182.977C453.204,188 453.691,192.041 454.213,196.136Z" fill="#F08921"/>
<path d="M392.556,89.222L389.739,96.92L398.085,99.269L392.556,89.222Z" fill="#F08921"/>
<path d="M410.849,63.339L406.919,66.833C406.501,67.216 405.911,67.544 406.571,68.472L412.413,76.389C411.822,71.529 411.37,67.598 410.849,63.339Z" fill="#F08921"/>
<path d="M453.518,62.738C452.997,66.942 452.545,70.765 452.058,74.642L452.51,75.024L458.42,67.052L453.518,62.738Z" fill="#F08921"/>
<path d="M385.114,126.079L385.114,134.761L393.008,130.447L385.114,126.079Z" fill="#F08921"/>
<path d="M430.148,204.272L435.713,204.272C434.808,200.231 433.94,196.409 432.931,191.822C431.888,196.464 431.052,200.286 430.148,204.272Z" fill="#F08921"/>
<path d="M606.983,155.183L606.635,153.217L606.287,152.016L606.287,151.633L606.044,150.978C605.709,150.191 605.408,149.37 605.141,148.521L604.618,147.102C604.618,147.102 604.409,146.774 604.409,146.501L604.166,145.846C603.981,145.509 603.839,145.12 603.749,144.699L603.263,143.388C603.155,143.198 603.071,142.975 603.018,142.733L602.81,142.078C602.591,141.669 602.415,141.208 602.288,140.713L602.046,140.057C601.942,139.85 601.87,139.606 601.837,139.348C601.731,139.23 601.656,139.055 601.628,138.856C601.52,138.666 601.437,138.443 601.385,138.201C601.241,137.95 601.133,137.651 601.071,137.327L600.828,136.672C600.679,136.427 600.572,136.126 600.516,135.798L600.516,135.526C600.342,135.226 600.211,134.872 600.132,134.488L599.68,133.341C599.553,133.08 599.459,132.783 599.402,132.467C599.313,132.358 599.252,132.204 599.228,132.031L598.811,130.884C598.632,130.561 598.49,130.191 598.393,129.792C598.361,129.65 598.361,129.497 598.393,129.355C598.341,129.302 598.298,129.229 598.267,129.143C598.237,129.058 598.221,128.962 598.22,128.864L597.802,127.826C597.645,127.569 597.537,127.247 597.49,126.898C597.311,126.544 597.16,126.16 597.038,125.751C597.022,125.691 597.013,125.626 597.013,125.56C597.013,125.494 597.022,125.43 597.038,125.369L596.69,124.495C596.583,124.303 596.501,124.081 596.447,123.84L596.169,123.076C595.95,122.598 595.763,122.085 595.612,121.547L595.438,121.165C595.412,121.003 595.412,120.835 595.438,120.673C595.312,120.483 595.226,120.234 595.194,119.963C595.07,119.815 594.985,119.601 594.951,119.362C594.844,119.17 594.762,118.948 594.708,118.707C594.561,118.45 594.443,118.155 594.36,117.834L594.36,117.288L594.36,116.905C594.308,116.852 594.265,116.779 594.235,116.693C594.204,116.608 594.187,116.512 594.185,116.414L594.012,116.031C593.838,115.692 593.709,115.303 593.63,114.885L593.352,114.23C593.214,113.971 593.109,113.674 593.039,113.356C592.938,113.138 592.855,112.899 592.795,112.646C592.651,112.384 592.533,112.09 592.447,111.773C592.204,111.222 591.996,110.636 591.822,110.025C591.753,109.938 591.695,109.831 591.654,109.709C591.612,109.587 591.585,109.453 591.577,109.315L591.195,108.387C591.056,108.16 590.959,107.877 590.917,107.568L590.499,106.476C590.314,106.139 590.173,105.75 590.083,105.329C589.975,105.139 589.891,104.916 589.838,104.674C589.673,104.316 589.535,103.932 589.422,103.528C589.422,103.2 589.108,103.036 589.108,102.654C588.989,102.476 588.905,102.249 588.865,101.999L588.623,101.343C588.385,100.874 588.185,100.361 588.03,99.814C587.892,99.535 587.787,99.221 587.717,98.886C587.511,98.514 587.345,98.089 587.23,97.63L586.987,96.975L586.327,95.173L586.118,94.682L586.118,94.299L585.249,92.607L585.006,92.224C584.762,92.224 584.657,91.733 584.449,91.569L584.17,91.569L583.822,91.242L582.537,90.586C582.376,90.643 582.21,90.643 582.049,90.586L579.163,90.586C579.086,90.637 579.004,90.664 578.92,90.664C578.836,90.664 578.752,90.637 578.675,90.586C578.621,90.626 578.562,90.646 578.502,90.646C578.442,90.646 578.382,90.626 578.327,90.586C578.279,90.625 578.225,90.644 578.171,90.644C578.117,90.644 578.063,90.625 578.015,90.586L577.042,91.242C576.963,91.288 576.876,91.288 576.797,91.242L576.521,91.242C576.521,91.242 576.206,91.624 576.067,91.788L575.407,92.77C575.407,92.77 575.407,93.153 575.164,93.207L574.816,93.972C574.7,94.431 574.535,94.856 574.328,95.228L574.016,96.102C573.994,96.307 573.934,96.497 573.843,96.647C573.775,96.877 573.692,97.097 573.598,97.303C573.598,97.303 573.599,97.63 573.425,97.685C573.425,97.685 572.973,98.832 572.834,99.432C572.809,99.691 572.721,99.925 572.59,100.087C572.564,100.346 572.478,100.58 572.347,100.743L572.104,101.398C571.99,101.891 571.825,102.352 571.617,102.763L571.442,103.145C571.438,103.277 571.415,103.405 571.372,103.52C571.33,103.634 571.27,103.73 571.199,103.8L570.887,104.729L570.469,105.93C570.367,106.399 570.2,106.828 569.982,107.186L569.566,108.333C569.518,108.682 569.409,109.003 569.251,109.261C569.251,109.261 569.252,109.589 569.078,109.643C569.078,109.643 569.077,110.025 568.903,110.08L568.521,111.226C568.453,111.558 568.333,111.858 568.173,112.1C568.169,112.232 568.146,112.361 568.103,112.475C568.061,112.589 568.002,112.685 567.93,112.755L567.618,113.629C567.617,113.727 567.599,113.823 567.569,113.908C567.538,113.994 567.495,114.067 567.443,114.12L566.713,116.086C566.643,116.521 566.498,116.918 566.295,117.233L566.052,117.888C565.854,118.673 565.585,119.409 565.252,120.072C565.284,120.213 565.284,120.368 565.252,120.509C564.835,121.547 564.453,122.584 564.071,123.676C564.029,124.013 563.918,124.32 563.757,124.55L563.514,125.205C563.514,125.205 563.514,125.478 563.514,125.587L563.096,126.734C563.058,126.986 562.974,127.214 562.853,127.39C562.807,127.652 562.725,127.895 562.61,128.099L562.193,129.191C562.019,129.814 561.798,130.402 561.532,130.939L560.975,132.522C560.965,132.658 560.933,132.788 560.885,132.902C560.837,133.016 560.772,133.11 560.697,133.177L560.315,134.324C560.268,134.571 560.184,134.795 560.07,134.98C560.046,135.152 559.985,135.307 559.897,135.416L559.724,135.853C559.669,136.198 559.56,136.516 559.41,136.781C559.362,137.011 559.279,137.217 559.167,137.382L558.924,138.037C558.923,138.135 558.905,138.231 558.875,138.317C558.844,138.403 558.801,138.475 558.749,138.528L558.749,138.911C558.666,139.354 558.524,139.763 558.331,140.112C558.226,140.505 558.087,140.873 557.915,141.204L557.428,142.515C557.39,142.766 557.306,142.994 557.185,143.17C557.179,143.266 557.159,143.36 557.129,143.444C557.099,143.529 557.059,143.602 557.01,143.661L556.28,145.627C556.224,145.955 556.117,146.256 555.968,146.501C555.871,146.917 555.729,147.305 555.55,147.647L555.202,148.576C555.154,148.893 555.045,149.179 554.889,149.395L554.472,150.487C554.403,150.857 554.298,151.207 554.159,151.524C554.179,151.705 554.179,151.89 554.159,152.071C554.137,152.148 554.125,152.231 554.125,152.316C554.125,152.401 554.137,152.485 554.159,152.562L554.159,153.49C554.159,153.49 554.159,153.927 554.159,154.146L554.159,156.712C554.267,157.129 554.325,157.573 554.332,158.022L554.507,158.732C554.603,159.032 554.684,159.342 554.75,159.66C554.963,160.366 555.231,161.027 555.55,161.626C555.71,161.768 555.842,161.976 555.932,162.227L556.107,162.554C556.107,162.554 556.35,162.555 556.35,162.882L556.837,163.428C557.106,163.539 557.356,163.744 557.567,164.029C557.701,163.944 557.851,163.944 557.985,164.029C557.985,164.029 558.158,164.029 558.228,164.029L559.966,164.465L600.028,164.465C601.214,164.562 602.399,164.265 603.506,163.592L603.818,163.592C603.818,163.592 603.819,163.592 603.993,163.592L604.409,163.21L604.723,162.773C604.723,162.773 604.932,162.391 605.071,162.336L605.384,161.79L605.802,161.025L606.323,159.606L606.532,158.95C606.498,158.754 606.498,158.546 606.532,158.35C606.497,158.209 606.497,158.054 606.532,157.913C606.671,156.648 606.671,155.356 606.532,154.091L606.983,155.183ZM601.906,160.971C601.537,161.055 601.163,161.055 600.794,160.971L558.645,160.971C558.038,161.007 557.439,160.749 556.929,160.231C556.418,159.713 556.021,158.961 555.793,158.077C555.593,157.389 555.508,156.632 555.545,155.878C555.581,155.124 555.738,154.396 556.002,153.763L559.724,143.661L573.634,105.439L577.112,96.102C577.366,95.347 577.746,94.716 578.212,94.276C578.678,93.836 579.21,93.603 579.754,93.603C580.297,93.603 580.832,93.836 581.297,94.276C581.763,94.716 582.143,95.347 582.398,96.102C587.568,110.117 592.737,124.186 597.907,138.31C599.785,143.389 601.663,148.412 603.506,153.49C603.818,154.111 604.024,154.845 604.107,155.625C604.19,156.404 604.146,157.204 603.98,157.95C603.813,158.696 603.529,159.364 603.154,159.892C602.78,160.42 602.327,160.792 601.837,160.971L601.906,160.971Z" fill="#F08921"/>
<path d="M591.438,125.151C587.96,115.977 584.726,106.804 581.353,97.849C581.207,97.363 580.975,96.952 580.686,96.664C580.396,96.376 580.062,96.224 579.72,96.224C579.377,96.224 579.041,96.376 578.752,96.664C578.462,96.952 578.231,97.363 578.084,97.849L572.868,111.991L556.976,155.238C556.8,155.684 556.692,156.189 556.662,156.712C556.646,157.118 556.686,157.523 556.779,157.903C556.872,158.282 557.016,158.626 557.2,158.91C557.385,159.195 557.606,159.414 557.849,159.553C558.092,159.692 558.352,159.747 558.61,159.715L600.794,159.715C601.288,159.768 601.774,159.513 602.149,159.005C602.488,158.523 602.704,157.863 602.755,157.149C602.806,156.435 602.69,155.717 602.427,155.128C598.741,144.936 595.078,134.943 591.438,125.151ZM581.18,152.016C581.008,152.367 580.786,152.652 580.533,152.847C580.28,153.043 580.002,153.145 579.72,153.145C579.437,153.145 579.158,153.043 578.905,152.847C578.651,152.652 578.431,152.367 578.259,152.016C577.898,151.281 577.702,150.378 577.702,149.449C577.702,148.521 577.898,147.618 578.259,146.883C578.428,146.489 578.655,146.166 578.922,145.943C579.188,145.719 579.487,145.603 579.789,145.603C580.092,145.603 580.388,145.719 580.655,145.943C580.922,146.166 581.151,146.489 581.319,146.883C581.656,147.653 581.825,148.571 581.805,149.504C581.753,150.352 581.535,151.154 581.18,151.798L581.18,152.016ZM581.492,131.648C581.284,135.252 581.109,138.801 580.935,142.569C580.935,143.17 580.937,143.388 580.38,143.334L578.92,143.334C578.676,143.334 578.571,143.334 578.536,142.788L577.911,130.884C577.911,128.7 577.633,126.461 577.563,124.277C577.528,123.204 577.528,122.129 577.563,121.055C577.563,120.182 577.563,119.308 577.563,118.434C577.54,117.346 577.79,116.287 578.259,115.486C578.46,115.129 578.709,114.85 578.989,114.67C579.27,114.489 579.572,114.411 579.874,114.443C580.176,114.475 580.471,114.615 580.733,114.852C580.996,115.09 581.22,115.419 581.389,115.814C581.757,116.605 581.952,117.563 581.944,118.544C581.941,122.849 581.791,127.151 581.492,131.43L581.492,131.648Z" fill="#F08921"/>
<path d="M561.774,22.713C561.774,24.242 561.982,24.788 563.026,24.843C566.503,24.843 566.503,24.843 566.503,30.303C566.538,30.848 566.538,31.397 566.503,31.942C566.26,34.453 567.025,34.562 568.312,34.235C575.148,32.405 582.132,32.405 588.968,34.235C590.15,34.562 590.916,34.562 590.673,32.16C590.638,31.487 590.638,30.812 590.673,30.139C590.673,24.679 590.673,24.679 594.15,24.679C595.333,24.679 595.714,24.242 595.714,22.277C595.714,16.816 595.714,10.974 595.714,5.295C595.714,2.783 595.402,1.909 593.663,1.963C584.482,1.963 575.303,1.963 566.087,1.963C561.531,1.963 561.531,1.964 561.844,9.171L561.844,15.178C561.774,17.853 561.774,20.256 561.774,22.713Z" fill="#F08921"/>
<path d="M644.018,54.166L629.344,31.177L628.23,29.539C627.256,31.286 626.388,32.87 625.449,34.344C624.51,35.819 621.971,38.33 621.971,40.624C621.971,42.917 624.197,44.665 625.449,46.794L625.761,47.231C626.526,48.159 626.422,48.869 625.761,49.852C624.474,51.763 623.292,53.838 622.005,55.695C620.718,57.551 621.031,57.496 622.005,58.807C623.566,61.031 625.053,63.382 626.457,65.851C627.153,67.107 627.57,67.434 628.369,65.851C629.169,64.267 630.909,61.974 632.091,59.954C633.274,57.934 633.342,58.753 634.037,59.954C634.733,61.155 636.16,63.23 637.169,64.922C638.177,66.615 638.246,66.124 638.941,64.922C640.645,62.083 642.42,59.462 644.193,56.677C644.715,56.076 644.749,55.421 644.018,54.166Z" fill="#F08921"/>
<path d="M639.011,119.691C639.032,117.36 638.821,115.039 638.385,112.811C636.478,98.8 632.601,85.637 627.035,74.285C621.469,62.933 614.354,53.679 606.215,47.203C598.076,40.727 589.118,37.192 579.996,36.857C570.874,36.522 561.821,39.394 553.498,45.265C541.37,53.836 531.354,68.386 524.971,86.707C518.588,105.027 516.187,126.116 518.131,146.774C519.063,158.223 521.49,169.247 525.26,179.155C526.214,182.572 527.479,185.754 529.016,188.601C534.534,201.003 541.915,211.074 550.506,217.924C556.08,222.688 562.162,225.816 568.451,227.152C569.124,227.705 569.893,227.897 570.641,227.698C571.327,227.977 572.024,228.178 572.728,228.299C596.202,230.701 615.086,217.378 628.787,187.236C637.23,168.925 640.957,146.282 639.22,123.841C639.412,122.456 639.339,121.012 639.011,119.691ZM605.94,200.56C598.038,208.461 588.91,212.822 579.544,213.173L577.423,213.173C564.479,212.595 552.143,204.411 542.856,190.24C539.466,184.921 536.509,178.959 534.057,172.493L533.293,170.528C529.308,158.125 527.292,144.393 527.416,130.503C527.79,111.404 532.475,93.137 540.635,78.963C548.796,64.789 559.9,55.633 571.964,53.129C581.599,51.125 591.396,53.494 600.201,59.954C600.653,60.282 601.141,60.5 601.593,60.773L602.879,61.865C603.595,62.814 604.423,63.537 605.314,63.995L606.322,65.087C615.471,74.505 622.502,88.201 626.422,104.238C628.116,111.41 629.204,118.9 629.657,126.517C629.657,130.721 629.657,134.98 629.657,139.184C629.011,151.619 626.532,163.647 622.416,174.318C618.3,184.99 612.659,194.011 605.94,200.669L605.94,200.56Z" fill="#F08921"/>
<path d="M626.144,136.563L626.144,127.771L618.112,132.249L626.144,136.563Z" fill="#F08921"/>
<path d="M620.406,97.193C619.641,95.282 618.946,93.262 618.146,91.132L612.687,101.179L619.642,99.268C620.477,99.05 621.067,98.777 620.406,97.193Z" fill="#F08921"/>
<path d="M536.459,166.814C536.459,168.343 537.292,169.216 537.466,170.636L539.101,174.458C540.909,171.128 542.578,168.015 544.49,164.575L538.51,165.994C537.919,166.868 537.154,166.377 536.459,166.814Z" fill="#F08921"/>
<path d="M578.19,70.547L579.684,63.83C581.075,57.606 581.076,57.66 576.764,57.879C575.616,57.879 575.441,58.534 575.789,60.062C576.554,63.448 577.286,66.724 578.19,70.547Z" fill="#F08921"/>
<path d="M556.558,199.14C557.497,200.123 557.74,199.522 557.88,198.102C558.262,194.553 558.68,191.003 559.167,187.181C556.906,190.184 554.889,192.641 552.733,195.808C554.159,196.9 555.411,197.939 556.558,199.14Z" fill="#F08921"/>
<path d="M619.851,165.23C617.695,164.794 615.574,164.084 612.896,163.319L618.459,173.421C619.224,171.401 619.816,169.653 620.512,167.961C621.207,166.268 621.242,165.558 619.851,165.23Z" fill="#F08921"/>
<path d="M600.307,199.412L605.175,194.935L598.672,186.252C599.263,191.003 599.75,195.099 600.307,199.412Z" fill="#F08921"/>
<path d="M538.614,92.388L535.797,100.088L544.144,102.435L538.614,92.388Z" fill="#F08921"/>
<path d="M558.505,79.447C557.879,74.533 557.427,70.656 556.906,66.342L552.977,69.892C552.559,70.274 551.968,70.547 552.628,71.475C554.437,73.987 556.245,76.39 558.505,79.447Z" fill="#F08921"/>
<path d="M604.479,70.056L599.576,65.742C599.055,69.946 598.602,73.823 598.15,77.7L598.568,78.082L604.479,70.056Z" fill="#F08921"/>
<path d="M531.207,129.137L531.207,137.819L539.067,133.451L531.207,129.137Z" fill="#F08921"/>
<path d="M576.242,207.057L581.771,207.057L578.989,194.662C577.981,199.467 577.111,203.289 576.242,207.057Z" fill="#F08921"/>
</svg>
