<svg width="162" height="38" viewBox="0 0 162 38" fill="none" xmlns="http://www.w3.org/2000/svg" xmlns:xlink="http://www.w3.org/1999/xlink">
<path d="M34.139,29.383L13.322,29.427C13.152,29.425 12.986,29.37 12.849,29.269C12.712,29.168 12.61,29.026 12.559,28.864L11.692,25.963L30.349,25.876C30.736,25.891 31.117,25.777 31.431,25.551C31.746,25.325 31.975,25 32.084,24.629L33.671,19.433C33.236,19.513 32.795,19.554 32.352,19.554C30.19,19.552 28.116,18.694 26.587,17.168C25.057,15.642 24.195,13.573 24.19,11.414C24.196,10.799 24.269,10.186 24.407,9.587L6.921,9.673L5.785,5.828C5.664,5.416 5.418,5.053 5.081,4.787C4.744,4.522 4.332,4.368 3.902,4.347L0.927,4.2C0.731,4.191 0.539,4.259 0.393,4.39C0.246,4.522 0.158,4.705 0.147,4.901C0.142,5.098 0.213,5.289 0.346,5.434C0.478,5.579 0.662,5.668 0.858,5.681L3.833,5.828C3.955,5.835 4.071,5.878 4.167,5.952C4.263,6.027 4.334,6.128 4.371,6.244L11.18,29.253C11.32,29.722 11.607,30.134 11.999,30.427C12.391,30.72 12.867,30.879 13.357,30.881L34.174,30.881C34.37,30.879 34.558,30.8 34.696,30.66C34.834,30.521 34.911,30.333 34.911,30.137C34.915,30.035 34.897,29.934 34.86,29.84C34.822,29.746 34.765,29.66 34.692,29.589C34.62,29.518 34.533,29.463 34.438,29.428C34.342,29.392 34.241,29.377 34.139,29.383Z" fill="#A41E22"/>
<path d="M15.352,38C16.913,38 18.179,36.736 18.179,35.177C18.179,33.618 16.913,32.354 15.352,32.354C13.79,32.354 12.524,33.618 12.524,35.177C12.524,36.736 13.79,38 15.352,38Z" fill="#A41E22"/>
<path d="M31.572,32.354C30.822,32.354 30.102,32.651 29.572,33.181C29.042,33.71 28.744,34.428 28.744,35.177C28.744,35.926 29.042,36.644 29.572,37.173C30.102,37.703 30.822,38 31.572,38C32.321,38 33.041,37.703 33.571,37.173C34.101,36.644 34.399,35.926 34.399,35.177C34.399,34.428 34.101,33.71 33.571,33.181C33.041,32.651 32.321,32.354 31.572,32.354Z" fill="#A41E22"/>
<path d="M32.274,4.772C30.832,4.781 29.432,5.256 28.284,6.128C27.136,6.999 26.302,8.219 25.908,9.604C25.73,10.2 25.639,10.818 25.639,11.44C25.639,12.315 25.812,13.182 26.147,13.99C26.483,14.799 26.975,15.533 27.595,16.152C28.216,16.77 28.952,17.261 29.762,17.595C30.573,17.929 31.441,18.1 32.317,18.099C32.934,18.097 33.547,18.01 34.139,17.84C35.536,17.447 36.765,16.609 37.641,15.453C38.516,14.298 38.989,12.888 38.988,11.44C38.989,10.561 38.816,9.69 38.478,8.879C38.141,8.067 37.646,7.33 37.022,6.71C36.398,6.09 35.657,5.6 34.842,5.267C34.027,4.934 33.154,4.766 32.274,4.772ZM35.379,13.18C35.42,13.228 35.455,13.281 35.483,13.336C35.616,13.523 35.679,13.751 35.66,13.979C35.641,14.207 35.541,14.421 35.379,14.583C35.279,14.68 35.161,14.756 35.032,14.809C34.855,14.878 34.66,14.894 34.474,14.854C34.287,14.814 34.116,14.72 33.983,14.583L32.352,12.955L30.713,14.583C30.621,14.676 30.511,14.75 30.391,14.8C30.27,14.85 30.141,14.876 30.01,14.876C29.88,14.876 29.75,14.85 29.63,14.8C29.509,14.75 29.4,14.676 29.308,14.583C29.124,14.396 29.022,14.144 29.022,13.882C29.022,13.62 29.124,13.368 29.308,13.18L30.938,11.552L29.308,9.924C29.215,9.83 29.141,9.718 29.091,9.595C29.047,9.479 29.024,9.356 29.022,9.231C29.02,9.101 29.045,8.972 29.094,8.852C29.143,8.732 29.216,8.622 29.308,8.53C29.4,8.437 29.509,8.364 29.63,8.314C29.75,8.263 29.88,8.238 30.01,8.238C30.141,8.238 30.27,8.263 30.391,8.314C30.511,8.364 30.621,8.437 30.713,8.53L31.771,9.578L32.352,10.158L32.933,9.578L33.983,8.53C34.074,8.438 34.183,8.364 34.303,8.314C34.423,8.264 34.551,8.238 34.681,8.238C34.811,8.238 34.94,8.264 35.059,8.314C35.179,8.364 35.288,8.438 35.379,8.53C35.474,8.62 35.549,8.729 35.6,8.85C35.651,8.971 35.676,9.101 35.674,9.231C35.673,9.345 35.649,9.456 35.605,9.561C35.561,9.699 35.484,9.824 35.379,9.924L33.749,11.552L35.379,13.18Z" fill="#A41E22"/>
<path d="M82.877,28.249C82.872,28.206 82.872,28.162 82.877,28.119C82.877,28.067 82.877,28.041 82.781,28.041L48.086,28.041C48.034,28.041 47.965,28.041 47.939,28.041C47.939,28.102 47.939,28.154 47.939,28.214L47.939,36.008C47.956,36.097 47.956,36.188 47.939,36.277C47.952,36.284 47.967,36.288 47.982,36.288C47.997,36.288 48.012,36.284 48.026,36.277L82.721,36.277C82.773,36.277 82.833,36.277 82.859,36.277C82.859,36.277 82.859,36.277 82.859,36.216C82.855,36.173 82.855,36.129 82.859,36.086L82.877,28.249ZM54.132,30.57C54.132,30.665 54.132,30.691 54.01,30.691L52.388,30.691C52.276,30.691 52.25,30.691 52.258,30.829C52.258,31.081 52.258,31.34 52.258,31.592C52.258,31.704 52.258,31.73 52.397,31.73L53.785,31.73C53.889,31.73 53.915,31.73 53.915,31.86C53.915,31.99 53.915,32.319 53.915,32.553C53.915,32.787 53.915,32.683 53.785,32.683L52.388,32.683C52.276,32.683 52.25,32.683 52.258,32.821L52.258,33.687C52.258,33.783 52.258,33.808 52.38,33.808L54.002,33.808C54.114,33.808 54.141,33.809 54.132,33.947C54.132,34.181 54.132,34.423 54.132,34.657C54.132,34.761 54.132,34.796 54.002,34.796L51.148,34.796C51.044,34.796 51.027,34.796 51.027,34.666L51.027,32.267C51.027,31.47 51.027,30.682 51.027,29.886C51.027,29.773 51.027,29.747 51.174,29.747L53.993,29.747C54.106,29.747 54.141,29.747 54.132,29.886C54.126,30.099 54.126,30.327 54.132,30.57ZM58.252,34.752C58.18,34.763 58.107,34.75 58.042,34.716C57.978,34.682 57.927,34.628 57.896,34.562C57.61,34.112 57.306,33.696 57.029,33.202C56.998,33.262 56.963,33.32 56.925,33.375L56.187,34.64C56.169,34.675 56.142,34.704 56.108,34.724C56.075,34.744 56.036,34.754 55.997,34.752L54.878,34.752C54.834,34.752 54.791,34.752 54.756,34.752C54.762,34.706 54.783,34.663 54.817,34.631L56.274,32.319C56.301,32.288 56.316,32.248 56.316,32.206C56.316,32.165 56.301,32.125 56.274,32.094L54.782,29.86L54.713,29.756C54.713,29.704 54.774,29.756 54.8,29.756L56.014,29.756C56.047,29.754 56.079,29.761 56.108,29.776C56.137,29.792 56.162,29.814 56.179,29.842L57.133,31.254C57.194,31.254 57.202,31.185 57.22,31.141C57.48,30.708 57.731,30.275 57.983,29.842C57.983,29.79 58.044,29.747 58.122,29.747L59.397,29.747C59.397,29.808 59.397,29.834 59.397,29.868L57.922,32.206C57.898,32.231 57.885,32.263 57.885,32.297C57.885,32.331 57.898,32.364 57.922,32.388L59.431,34.649L59.527,34.796C59.033,34.718 58.642,34.718 58.252,34.718L58.252,34.752ZM63.864,31.773C63.796,32.046 63.651,32.294 63.447,32.487C63.242,32.681 62.987,32.812 62.71,32.865C62.307,32.939 61.897,32.965 61.487,32.942C61.279,32.942 61.305,32.943 61.305,33.116L61.305,34.631C61.305,34.727 61.305,34.752 61.184,34.752L60.204,34.752C60.099,34.752 60.073,34.752 60.073,34.623C60.073,33.826 60.073,33.029 60.073,32.232C60.073,31.436 60.073,30.63 60.073,29.834C60.073,29.738 60.073,29.704 60.195,29.704L62.199,29.704C62.434,29.693 62.67,29.731 62.89,29.814C63.111,29.897 63.313,30.025 63.482,30.189C63.686,30.392 63.83,30.648 63.897,30.927C63.964,31.207 63.953,31.5 63.864,31.773ZM65.798,32.224C65.798,33.02 65.798,33.817 65.798,34.605C65.798,34.726 65.798,34.752 65.651,34.752L64.714,34.752C64.592,34.752 64.558,34.752 64.558,34.605C64.558,33.072 64.558,31.54 64.558,30.015C64.558,29.704 64.558,29.704 64.87,29.704L65.651,29.704C65.763,29.704 65.798,29.704 65.798,29.842C65.807,30.639 65.807,31.436 65.807,32.224L65.798,32.224ZM69.354,34.752C69.276,34.752 69.25,34.753 69.215,34.649L68.279,32.917C68.245,32.865 68.196,32.826 68.138,32.805C68.08,32.785 68.016,32.785 67.958,32.804C67.897,32.804 67.958,32.891 67.958,32.934L67.958,34.527C67.958,34.735 67.958,34.7 67.784,34.7L66.848,34.7C66.761,34.7 66.726,34.7 66.726,34.588L66.726,29.773C66.726,29.686 66.726,29.652 66.839,29.652L68.938,29.652C69.18,29.647 69.42,29.691 69.645,29.78C69.87,29.869 70.075,30.002 70.248,30.171C70.419,30.355 70.543,30.577 70.607,30.82C70.672,31.062 70.676,31.316 70.618,31.561C70.561,31.805 70.444,32.031 70.278,32.219C70.112,32.407 69.902,32.552 69.667,32.639C69.528,32.691 69.545,32.735 69.606,32.839L70.621,34.571C70.629,34.588 70.633,34.608 70.633,34.627C70.633,34.646 70.629,34.665 70.621,34.683L69.354,34.752ZM74.481,30.561C74.481,30.674 74.481,30.691 74.35,30.691L72.746,30.691C72.633,30.691 72.598,30.691 72.607,30.838C72.607,31.098 72.607,31.349 72.607,31.609C72.607,31.704 72.607,31.73 72.72,31.73L74.125,31.73C74.229,31.73 74.264,31.73 74.255,31.869C74.246,32.007 74.255,32.319 74.255,32.544C74.255,32.769 74.255,32.683 74.116,32.683L72.746,32.683C72.642,32.683 72.598,32.683 72.607,32.813C72.607,33.098 72.607,33.376 72.607,33.679C72.607,33.791 72.607,33.817 72.746,33.817L74.342,33.817C74.446,33.817 74.481,33.817 74.472,33.947C74.472,34.198 74.472,34.449 74.472,34.692C74.472,34.778 74.472,34.804 74.368,34.804L71.488,34.804C71.375,34.804 71.375,34.752 71.375,34.674L71.375,32.276C71.375,31.488 71.375,30.7 71.375,29.911C71.375,29.79 71.375,29.756 71.523,29.756L74.342,29.756C74.446,29.756 74.481,29.756 74.472,29.886C74.478,30.093 74.481,30.319 74.481,30.561ZM78.748,34.328C78.313,34.597 77.811,34.741 77.299,34.744L75.4,34.744C75.296,34.744 75.278,34.744 75.278,34.614L75.278,29.834C75.278,29.721 75.279,29.695 75.409,29.695C76.051,29.695 76.692,29.695 77.334,29.695C77.763,29.685 78.186,29.788 78.562,29.994C78.938,30.199 79.253,30.499 79.477,30.864C79.816,31.427 79.93,32.097 79.794,32.739C79.659,33.382 79.285,33.95 78.748,34.328Z" fill="#A41E22"/>
<path d="M53.932,8.132L53.94,8.139L53.932,8.132Z" fill="#A41E22"/>
<path d="M47.974,18.801C47.986,18.971 47.986,19.142 47.974,19.312L47.974,19.407C47.987,19.511 47.987,19.615 47.974,19.719L47.974,19.814C47.991,19.909 47.991,20.005 47.974,20.1C48.007,20.268 48.027,20.439 48.034,20.611C48.069,20.784 48.095,20.957 48.112,21.131C48.099,21.19 48.099,21.252 48.112,21.312C48.145,21.405 48.165,21.501 48.173,21.598C48.186,21.681 48.186,21.766 48.173,21.849L48.173,21.962L48.242,22.204C48.282,22.307 48.308,22.415 48.321,22.525C48.321,22.611 48.381,22.681 48.372,22.767C48.407,22.875 48.433,22.985 48.451,23.096C48.488,23.149 48.51,23.213 48.511,23.278C48.542,23.328 48.56,23.384 48.563,23.443L48.563,23.521C48.602,23.597 48.629,23.679 48.641,23.763C48.641,23.815 48.685,23.858 48.641,23.919C48.667,23.945 48.687,23.977 48.7,24.011C48.714,24.045 48.72,24.081 48.72,24.118C48.763,24.118 48.72,24.205 48.772,24.231C48.791,24.246 48.807,24.266 48.818,24.288C48.828,24.311 48.833,24.336 48.832,24.361C48.832,24.439 48.902,24.482 48.884,24.551L48.997,24.794C49.006,24.811 49.01,24.83 49.01,24.85C49.01,24.869 49.006,24.889 48.997,24.906L48.997,24.958C49.033,24.996 49.054,25.045 49.058,25.097L49.11,25.209C49.11,25.209 49.11,25.279 49.162,25.313C49.214,25.348 49.205,25.383 49.162,25.426L49.231,25.547C49.282,25.595 49.313,25.66 49.318,25.729C49.318,25.729 49.37,25.729 49.318,25.807C49.318,25.807 49.379,25.919 49.422,25.971C49.5,26.067 49.553,26.18 49.578,26.3C49.627,26.339 49.658,26.395 49.665,26.456L49.665,26.508C49.686,26.518 49.702,26.534 49.712,26.555C49.721,26.576 49.723,26.599 49.717,26.621L49.847,26.829C49.869,26.844 49.887,26.863 49.9,26.885C49.914,26.908 49.922,26.933 49.925,26.959L49.925,27.011L50.047,27.011L52.354,27.011C52.354,26.907 52.241,26.846 52.206,26.751L52.033,26.508C52.033,26.508 52.033,26.413 51.955,26.37L51.842,26.205C51.755,26.127 51.799,26.075 51.885,26.049C51.93,26.035 51.972,26.011 52.007,25.98C52.038,25.951 52.077,25.932 52.12,25.928L52.25,25.841C52.308,25.793 52.376,25.758 52.449,25.738C52.527,25.738 52.579,25.625 52.666,25.608L52.77,25.538C52.826,25.491 52.891,25.455 52.961,25.434L53.204,25.287C53.204,25.287 53.291,25.287 53.291,25.201C53.262,25.168 53.241,25.13 53.23,25.088L53.169,24.984C53.115,24.916 53.071,24.84 53.039,24.759C53.009,24.731 52.988,24.695 52.978,24.655C52.978,24.603 52.909,24.655 52.866,24.655C52.822,24.655 52.779,24.724 52.709,24.724L52.579,24.811C52.551,24.841 52.515,24.862 52.475,24.872C52.475,24.872 52.423,24.924 52.389,24.872L52.241,24.958C52.174,25.021 52.094,25.068 52.007,25.097L51.816,25.209C51.78,25.249 51.73,25.273 51.677,25.279L51.582,25.348C51.417,25.46 51.417,25.46 51.348,25.287C51.316,25.26 51.295,25.224 51.287,25.183C51.228,25.102 51.184,25.011 51.157,24.915C51.108,24.845 51.067,24.769 51.035,24.69C51.035,24.69 51.035,24.69 51.035,24.638L50.975,24.525C50.975,24.525 50.975,24.525 50.975,24.473L50.905,24.335C50.905,24.335 50.905,24.335 50.905,24.283C50.836,24.162 50.781,24.034 50.74,23.902L50.74,23.85C50.736,23.84 50.733,23.83 50.733,23.819C50.733,23.809 50.736,23.799 50.74,23.789C50.698,23.723 50.668,23.65 50.654,23.573L50.602,23.434C50.602,23.434 50.602,23.434 50.602,23.365L50.489,23.053C50.446,22.978 50.42,22.896 50.411,22.81L50.411,22.758C50.364,22.676 50.337,22.584 50.333,22.49L50.263,22.291C50.263,22.291 50.263,22.222 50.263,22.187C50.212,22.053 50.174,21.913 50.151,21.771C50.116,21.704 50.098,21.63 50.099,21.555C50.099,21.555 50.099,21.468 50.099,21.425C50.064,21.337 50.046,21.243 50.047,21.148C49.998,21.014 49.972,20.874 49.969,20.732C49.955,20.675 49.955,20.616 49.969,20.559C49.952,20.514 49.952,20.465 49.969,20.42C49.89,20.003 49.847,19.58 49.838,19.156C49.821,18.989 49.821,18.821 49.838,18.654L49.838,18.602L51.573,18.602C51.599,18.351 51.599,18.099 51.573,17.848L49.908,17.848C49.856,17.848 49.821,17.848 49.838,17.779C49.821,17.612 49.821,17.444 49.838,17.277C49.855,16.853 49.901,16.43 49.977,16.012C49.968,15.992 49.964,15.97 49.964,15.947C49.964,15.925 49.968,15.903 49.977,15.883C49.964,15.826 49.964,15.766 49.977,15.709C49.96,15.665 49.96,15.615 49.977,15.571C49.961,15.526 49.961,15.477 49.977,15.432C49.977,15.432 49.977,15.337 49.977,15.294C49.977,15.25 49.977,15.198 49.977,15.164C49.982,15.043 50.005,14.923 50.047,14.809C50.069,14.688 50.101,14.569 50.142,14.454C50.163,14.324 50.195,14.197 50.237,14.073C50.251,14.003 50.275,13.936 50.307,13.873C50.328,13.754 50.363,13.638 50.411,13.527C50.439,13.414 50.477,13.304 50.524,13.198C50.542,13.104 50.575,13.014 50.619,12.929L50.715,12.696C50.732,12.603 50.768,12.515 50.819,12.436C50.837,12.368 50.866,12.304 50.905,12.245C50.901,12.236 50.898,12.226 50.898,12.215C50.898,12.205 50.901,12.194 50.905,12.185L50.905,12.107C50.896,12.073 50.896,12.037 50.905,12.003L51.027,11.752C51.082,11.601 51.152,11.456 51.235,11.319C51.247,11.278 51.271,11.242 51.304,11.215C51.304,11.193 51.308,11.172 51.317,11.152C51.326,11.133 51.34,11.116 51.356,11.102C51.356,11.082 51.36,11.062 51.369,11.044C51.378,11.025 51.392,11.01 51.408,10.998C51.512,10.946 51.556,10.998 51.625,11.076L51.764,11.163C51.792,11.164 51.819,11.171 51.843,11.185C51.867,11.199 51.888,11.218 51.903,11.241L52.146,11.379L52.198,11.379L52.423,11.518C52.423,11.518 52.466,11.518 52.475,11.518C52.529,11.533 52.577,11.563 52.614,11.605L52.874,11.743C52.874,11.743 52.935,11.743 52.961,11.743C52.968,11.747 52.975,11.749 52.983,11.749C52.99,11.749 52.998,11.747 53.004,11.743C53.019,11.687 53.049,11.636 53.091,11.596C53.096,11.556 53.114,11.52 53.143,11.492C53.181,11.412 53.228,11.337 53.282,11.267C53.282,11.215 53.386,11.154 53.282,11.094C53.182,11.052 53.088,10.997 53.004,10.929C53.004,10.929 52.961,10.929 52.952,10.929L52.805,10.834L52.761,10.834L52.623,10.747C52.564,10.732 52.51,10.702 52.467,10.661L52.38,10.609C52.312,10.583 52.248,10.548 52.189,10.505L52.05,10.418C51.807,10.297 51.807,10.297 51.964,10.089L51.964,10.028L52.163,9.734C52.163,9.734 52.163,9.665 52.215,9.647L52.328,9.509C52.328,9.509 52.328,9.509 52.328,9.457C52.346,9.417 52.372,9.381 52.406,9.353C52.442,9.28 52.489,9.213 52.545,9.154L52.666,8.998C52.662,8.978 52.662,8.957 52.666,8.937L52.761,8.825L52.822,8.738L52.961,8.565C52.985,8.522 53.018,8.483 53.056,8.452C53.052,8.444 53.049,8.435 53.049,8.426C53.049,8.417 53.052,8.408 53.056,8.4L53.178,8.262C53.199,8.229 53.225,8.2 53.256,8.175C53.289,8.126 53.33,8.082 53.377,8.045C53.422,7.984 53.475,7.929 53.534,7.881C53.782,7.601 54.048,7.338 54.331,7.093L54.6,6.842L54.713,6.746C54.718,6.736 54.726,6.727 54.735,6.719C54.744,6.712 54.754,6.706 54.765,6.703L55.043,6.478C55.043,6.417 55.147,6.391 55.199,6.348L55.338,6.235L55.45,6.157C55.541,6.073 55.64,5.997 55.745,5.932C55.757,5.925 55.771,5.922 55.784,5.922C55.798,5.922 55.811,5.925 55.823,5.932C55.88,5.874 55.948,5.826 56.023,5.794C56.064,5.739 56.122,5.7 56.188,5.681L56.43,5.517L56.621,5.387C56.691,5.335 56.725,5.387 56.734,5.439L56.812,5.586C56.834,5.6 56.853,5.619 56.867,5.641C56.881,5.664 56.889,5.689 56.89,5.716L57.038,5.958C57.053,5.967 57.065,5.979 57.072,5.995C57.08,6.01 57.083,6.028 57.081,6.045L57.142,6.149C57.165,6.164 57.184,6.184 57.198,6.209C57.211,6.233 57.219,6.26 57.22,6.287L57.22,6.339C57.263,6.373 57.291,6.423 57.298,6.478L57.298,6.53C57.322,6.544 57.343,6.565 57.358,6.589C57.373,6.613 57.382,6.64 57.385,6.668L57.385,6.72C57.42,6.757 57.447,6.801 57.463,6.85C57.463,6.85 57.532,6.85 57.567,6.85L58.026,6.582C58.096,6.582 58.131,6.495 58.079,6.426C58.028,6.373 57.992,6.307 57.974,6.235L57.81,5.958C57.759,5.903 57.72,5.838 57.697,5.768L57.636,5.664L57.463,5.369L57.419,5.283L57.35,5.179L57.306,5.101C57.228,5.014 57.307,5.006 57.359,4.98C57.411,4.954 57.506,4.919 57.575,4.876C57.622,4.829 57.683,4.802 57.749,4.798C57.801,4.798 57.836,4.72 57.905,4.711C58.007,4.644 58.118,4.591 58.235,4.555C58.235,4.555 58.235,4.555 58.313,4.555C58.408,4.497 58.51,4.45 58.616,4.417C58.816,4.304 59.033,4.261 59.232,4.166C59.432,4.07 59.536,4.062 59.683,4.01C59.822,3.947 59.967,3.9 60.117,3.871C60.117,3.871 60.117,3.871 60.195,3.871C60.25,3.845 60.308,3.827 60.368,3.819C60.43,3.786 60.498,3.766 60.568,3.759C60.633,3.742 60.702,3.742 60.767,3.759L60.984,3.698C61.143,3.647 61.305,3.61 61.47,3.585C61.491,3.575 61.515,3.569 61.539,3.569C61.563,3.569 61.587,3.575 61.609,3.585C61.7,3.54 61.802,3.519 61.904,3.525C62.128,3.465 62.357,3.428 62.589,3.412C62.655,3.399 62.723,3.399 62.788,3.412C62.857,3.399 62.928,3.399 62.996,3.412L63.066,3.412C63.132,3.399 63.2,3.399 63.265,3.412C63.265,3.412 63.309,3.412 63.335,3.412C63.622,3.374 63.912,3.353 64.202,3.352C64.306,3.352 64.28,3.421 64.28,3.473C64.28,3.975 64.28,4.469 64.28,4.971C64.28,5.075 64.28,5.127 64.419,5.118C64.583,5.105 64.749,5.105 64.913,5.118C65,5.118 65.035,5.118 65.035,4.997C65.035,4.486 65.035,3.984 65.035,3.481C65.035,3.369 65.035,3.343 65.174,3.352C65.312,3.343 65.451,3.343 65.59,3.352C65.714,3.334 65.839,3.334 65.963,3.352L66.058,3.352C66.124,3.334 66.192,3.334 66.258,3.352C66.324,3.338 66.391,3.338 66.457,3.352C66.523,3.339 66.591,3.339 66.657,3.352C66.891,3.367 67.123,3.405 67.351,3.464L67.637,3.516C67.685,3.503 67.736,3.503 67.784,3.516C67.871,3.516 67.957,3.533 68.036,3.568C68.11,3.577 68.183,3.595 68.253,3.62C68.253,3.663 68.34,3.62 68.383,3.62C68.398,3.614 68.414,3.61 68.431,3.61C68.447,3.61 68.463,3.614 68.478,3.62C68.545,3.624 68.61,3.642 68.669,3.672C68.739,3.679 68.807,3.7 68.869,3.733C68.925,3.735 68.979,3.753 69.025,3.785C69.025,3.785 69.086,3.785 69.112,3.785C69.18,3.786 69.246,3.807 69.302,3.845C69.391,3.854 69.476,3.88 69.554,3.923C69.632,3.935 69.706,3.965 69.771,4.01L70.066,4.114C70.091,4.112 70.117,4.116 70.141,4.125C70.164,4.134 70.186,4.148 70.205,4.166L70.612,4.339C70.899,4.435 71.175,4.559 71.436,4.711C71.497,4.711 71.557,4.711 71.592,4.798L71.87,4.936C72.017,4.936 71.948,5.023 71.87,5.092L71.74,5.317C71.721,5.388 71.682,5.451 71.627,5.499L71.323,6.019C71.323,6.047 71.316,6.074 71.302,6.098C71.289,6.122 71.269,6.143 71.245,6.157L71.245,6.209C71.245,6.23 71.239,6.251 71.229,6.269C71.218,6.288 71.203,6.303 71.185,6.313L71.132,6.4C71.132,6.452 71.08,6.495 71.132,6.538L71.185,6.538C71.239,6.545 71.289,6.573 71.323,6.616L71.41,6.668C71.453,6.668 71.48,6.668 71.506,6.72L71.566,6.72C71.636,6.72 71.679,6.798 71.757,6.79C71.773,6.738 71.799,6.691 71.835,6.651C71.835,6.651 71.835,6.651 71.835,6.599C71.866,6.532 71.904,6.468 71.948,6.409C71.972,6.34 72.01,6.278 72.061,6.227C72.07,6.173 72.098,6.124 72.139,6.088C72.154,6.032 72.184,5.981 72.225,5.941C72.271,5.839 72.323,5.741 72.382,5.646L72.468,5.508C72.468,5.508 72.468,5.456 72.512,5.43C72.555,5.404 72.512,5.291 72.633,5.326L72.685,5.326C72.708,5.326 72.731,5.333 72.751,5.345C72.771,5.357 72.787,5.375 72.798,5.395L73.18,5.646C73.231,5.657 73.277,5.684 73.31,5.724C73.384,5.749 73.451,5.794 73.501,5.854L73.717,6.019C73.794,6.044 73.861,6.092 73.908,6.157L74.212,6.4C74.281,6.426 74.339,6.475 74.376,6.538L74.533,6.668C74.556,6.672 74.579,6.682 74.597,6.697C74.615,6.712 74.629,6.732 74.637,6.755L74.697,6.816C74.775,6.847 74.842,6.901 74.888,6.971L74.975,7.058C74.995,7.061 75.013,7.071 75.027,7.085C75.041,7.099 75.05,7.116 75.053,7.136L75.105,7.188C75.181,7.226 75.247,7.283 75.296,7.352C75.358,7.393 75.411,7.446 75.452,7.508L75.513,7.569C75.594,7.624 75.659,7.698 75.704,7.785L75.946,8.037C75.996,8.065 76.034,8.111 76.051,8.166C76.078,8.181 76.102,8.2 76.121,8.224C76.141,8.248 76.155,8.275 76.163,8.305L76.32,8.496C76.383,8.529 76.432,8.585 76.458,8.651L76.571,8.79C76.592,8.802 76.609,8.818 76.623,8.837C76.637,8.857 76.645,8.879 76.649,8.903L76.814,9.119C76.84,9.134 76.862,9.154 76.88,9.177C76.898,9.201 76.911,9.229 76.918,9.258L77.005,9.37C77.018,9.377 77.029,9.387 77.038,9.399C77.047,9.411 77.054,9.425 77.057,9.44C77.071,9.45 77.082,9.463 77.091,9.477C77.1,9.492 77.106,9.509 77.109,9.526L77.195,9.639C77.263,9.71 77.319,9.792 77.36,9.881C77.418,9.943 77.463,10.017 77.49,10.098C77.49,10.176 77.647,10.219 77.49,10.323C77.447,10.359 77.397,10.385 77.343,10.401C77.305,10.44 77.257,10.467 77.204,10.479L77.109,10.539C77.042,10.596 76.966,10.64 76.883,10.669L76.779,10.73C76.738,10.764 76.691,10.79 76.64,10.808C76.604,10.848 76.555,10.875 76.502,10.886L76.354,10.972C76.328,11 76.295,11.021 76.259,11.033C76.198,11.094 76.094,11.093 76.059,11.189C76.076,11.241 76.106,11.289 76.146,11.327C76.146,11.379 76.224,11.423 76.224,11.483C76.277,11.538 76.318,11.603 76.345,11.674C76.345,11.752 76.432,11.76 76.502,11.726L76.64,11.639C76.64,11.639 76.64,11.639 76.692,11.639L76.831,11.553L77.022,11.449C77.045,11.423 77.076,11.405 77.109,11.397C77.109,11.397 77.161,11.327 77.213,11.336L77.352,11.249C77.392,11.216 77.439,11.192 77.49,11.18C77.528,11.141 77.576,11.114 77.629,11.102L77.681,11.102C77.72,11.065 77.768,11.038 77.82,11.024C77.881,11.024 77.898,11.024 77.924,11.085C77.981,11.141 78.021,11.214 78.037,11.293L78.037,11.353C78.037,11.353 78.089,11.414 78.089,11.457L78.15,11.57C78.172,11.589 78.191,11.613 78.204,11.64C78.218,11.667 78.226,11.696 78.228,11.726L78.228,11.786C78.245,11.798 78.259,11.814 78.269,11.832C78.28,11.85 78.286,11.87 78.288,11.89C78.318,11.931 78.336,11.979 78.34,12.029L78.479,12.332C78.497,12.349 78.51,12.369 78.519,12.391C78.528,12.414 78.532,12.438 78.531,12.462L78.635,12.739C78.656,12.755 78.672,12.777 78.683,12.801C78.693,12.825 78.698,12.851 78.696,12.878L78.809,13.163C78.86,13.261 78.895,13.366 78.913,13.475C78.93,13.565 78.959,13.653 79,13.735C79,13.735 79,13.787 79,13.83C79,13.873 79,13.891 79,13.908C79.038,13.964 79.056,14.031 79.052,14.099L79.164,14.488C79.199,14.552 79.217,14.624 79.216,14.696C79.251,14.763 79.269,14.837 79.269,14.913C79.277,14.93 79.281,14.949 79.281,14.969C79.281,14.988 79.277,15.008 79.269,15.025C79.336,15.257 79.383,15.495 79.407,15.735C79.424,15.792 79.424,15.852 79.407,15.909C79.394,15.966 79.394,16.025 79.407,16.082C79.42,16.15 79.42,16.221 79.407,16.29C79.472,16.65 79.507,17.015 79.511,17.381C79.511,17.554 79.511,17.736 79.511,17.909C79.511,18.082 79.511,17.97 79.442,17.97L77.768,17.97C77.746,18.22 77.746,18.472 77.768,18.723L77.811,18.723C78.361,18.723 78.907,18.723 79.451,18.723C79.451,18.723 79.503,18.723 79.503,18.775C79.52,18.948 79.52,19.122 79.503,19.294C79.498,19.66 79.463,20.025 79.399,20.386C79.412,20.451 79.412,20.519 79.399,20.585C79.411,20.63 79.411,20.678 79.399,20.723C79.41,20.781 79.41,20.84 79.399,20.897C79.416,20.944 79.416,20.996 79.399,21.044C79.399,21.139 79.381,21.233 79.347,21.321C79.363,21.366 79.363,21.415 79.347,21.459L79.347,21.615C79.353,21.63 79.356,21.647 79.356,21.663C79.356,21.679 79.353,21.696 79.347,21.711C79.347,21.786 79.329,21.86 79.295,21.927C79.278,22.07 79.243,22.209 79.19,22.343C79.159,22.399 79.138,22.461 79.13,22.525C79.13,22.595 79.112,22.663 79.078,22.724C79.067,22.786 79.044,22.845 79.008,22.897L78.904,23.235C78.89,23.313 78.864,23.389 78.826,23.46C78.823,23.517 78.802,23.572 78.765,23.616L78.627,23.971C78.629,23.995 78.626,24.02 78.617,24.042C78.608,24.065 78.593,24.085 78.575,24.101L78.575,24.161C78.569,24.232 78.542,24.298 78.496,24.352C78.496,24.377 78.491,24.401 78.48,24.423C78.47,24.446 78.455,24.466 78.436,24.482C78.288,24.785 78.15,25.088 78.002,25.348C78.005,25.368 78.001,25.389 77.992,25.408C77.983,25.426 77.968,25.442 77.95,25.452C77.881,25.573 77.881,25.573 77.811,25.573L77.664,25.486C77.608,25.475 77.557,25.448 77.516,25.408C77.423,25.363 77.333,25.311 77.247,25.253L77.091,25.157C77.039,25.145 76.99,25.118 76.953,25.079L76.762,24.967C76.712,24.953 76.665,24.929 76.623,24.898C76.554,24.866 76.49,24.825 76.432,24.776C76.337,24.776 76.354,24.88 76.302,24.915C76.282,24.963 76.252,25.007 76.215,25.045L76.103,25.244C76.113,25.272 76.113,25.303 76.103,25.331C76.103,25.331 76.059,25.417 76.103,25.46L76.189,25.512C76.264,25.527 76.331,25.567 76.38,25.625L76.623,25.764C76.649,25.766 76.674,25.775 76.697,25.788C76.719,25.802 76.738,25.82 76.753,25.841L76.814,25.841C76.84,25.843 76.866,25.85 76.89,25.862C76.914,25.874 76.935,25.891 76.953,25.911L77.221,26.075C77.316,26.099 77.403,26.146 77.473,26.214C77.473,26.214 77.594,26.214 77.525,26.3L77.525,26.352C77.481,26.441 77.429,26.525 77.369,26.604C77.336,26.683 77.286,26.754 77.221,26.811L77.031,27.088C77.031,27.158 77.031,27.192 77.1,27.192L79.312,27.192C79.351,27.206 79.394,27.206 79.433,27.192C79.433,27.115 79.494,27.071 79.537,27.011L79.624,26.863C79.624,26.844 79.629,26.826 79.638,26.809C79.647,26.792 79.66,26.778 79.676,26.768L79.754,26.621C79.778,26.545 79.816,26.474 79.867,26.413L79.928,26.3C79.928,26.3 79.928,26.3 79.928,26.248C79.942,26.198 79.966,26.151 79.997,26.11C80.005,26.064 80.026,26.022 80.058,25.989C80.079,25.902 80.121,25.822 80.179,25.755C80.198,25.675 80.23,25.599 80.275,25.53C80.291,25.445 80.327,25.365 80.379,25.296C80.407,25.208 80.445,25.124 80.491,25.045C80.494,24.997 80.512,24.951 80.544,24.915L80.63,24.698L80.734,24.421L80.795,24.283L81.116,23.304C81.134,23.212 81.164,23.121 81.203,23.036C81.19,22.999 81.19,22.959 81.203,22.923C81.207,22.857 81.224,22.792 81.255,22.733L81.255,22.655C81.271,22.497 81.309,22.343 81.368,22.196C81.36,22.178 81.356,22.159 81.356,22.139C81.356,22.12 81.36,22.101 81.368,22.083C81.36,22 81.375,21.916 81.411,21.841L81.498,21.399C81.481,21.339 81.481,21.277 81.498,21.217C81.485,21.172 81.485,21.124 81.498,21.078C81.502,20.967 81.52,20.857 81.55,20.749C81.563,20.523 81.589,20.297 81.628,20.074C81.615,19.97 81.615,19.866 81.628,19.762L81.628,19.667C81.611,19.564 81.611,19.458 81.628,19.355L81.628,19.286C81.61,19.119 81.61,18.951 81.628,18.784C81.61,18.689 81.61,18.592 81.628,18.498L81.628,18.169C81.61,18.074 81.61,17.977 81.628,17.883C81.611,17.725 81.611,17.565 81.628,17.407L81.628,17.303C81.611,17.211 81.611,17.117 81.628,17.026L81.628,16.896C81.614,16.801 81.614,16.705 81.628,16.61C81.624,16.593 81.624,16.575 81.628,16.558C81.628,16.307 81.567,16.047 81.532,15.796C81.519,15.751 81.519,15.703 81.532,15.657C81.515,15.613 81.515,15.563 81.532,15.519C81.502,15.429 81.484,15.336 81.48,15.242C81.476,15.222 81.476,15.201 81.48,15.181L81.402,14.835C81.381,14.752 81.381,14.666 81.402,14.584C81.335,14.379 81.28,14.171 81.237,13.96C81.224,13.915 81.224,13.867 81.237,13.821L81.133,13.466C81.094,13.384 81.068,13.297 81.055,13.207C81.019,13.126 80.99,13.042 80.969,12.955C80.969,12.955 80.969,12.955 80.969,12.895C80.935,12.847 80.916,12.789 80.916,12.73L80.847,12.566C80.847,12.566 80.847,12.566 80.847,12.496L80.786,12.349L80.786,12.237C80.749,12.168 80.719,12.096 80.7,12.02L80.639,11.882C80.627,11.851 80.627,11.817 80.639,11.786C80.594,11.706 80.556,11.622 80.526,11.535L80.457,11.388L80.379,11.206C80.325,11.122 80.281,11.032 80.249,10.938L80.249,10.851L80.249,10.79L80.179,10.661C80.135,10.6 80.099,10.533 80.075,10.461L80.023,10.357C80.015,10.332 80.015,10.305 80.023,10.28C79.998,10.256 79.98,10.226 79.971,10.193L79.91,10.089C79.837,9.985 79.773,9.875 79.72,9.76C79.72,9.76 79.667,9.76 79.667,9.682C79.64,9.66 79.622,9.629 79.615,9.595C79.567,9.542 79.529,9.481 79.503,9.414C79.503,9.414 79.503,9.413 79.503,9.353C79.503,9.292 79.503,9.353 79.503,9.301L79.416,9.171L79.355,9.084L79.277,8.955C79.201,8.875 79.137,8.784 79.086,8.686C79.05,8.652 79.02,8.61 79,8.565C78.973,8.545 78.952,8.518 78.939,8.487C78.939,8.409 78.817,8.357 78.783,8.27C78.766,8.263 78.752,8.251 78.743,8.235C78.733,8.22 78.729,8.202 78.731,8.184C78.618,8.07 78.516,7.945 78.427,7.811L78.349,7.716L78.245,7.586L78.15,7.474C78.118,7.456 78.094,7.429 78.08,7.396L77.985,7.283L77.941,7.231L77.82,7.093C77.78,7.067 77.747,7.031 77.725,6.989C77.71,6.987 77.697,6.979 77.687,6.968C77.678,6.957 77.672,6.943 77.672,6.928L77.525,6.772C77.525,6.772 77.473,6.772 77.473,6.712L77.421,6.66C77.363,6.627 77.315,6.579 77.282,6.521L77.204,6.434C77.161,6.409 77.125,6.373 77.1,6.331L76.987,6.218L76.927,6.166C76.902,6.153 76.884,6.131 76.875,6.105C76.838,6.089 76.808,6.062 76.788,6.027L76.632,5.88C76.567,5.843 76.511,5.793 76.467,5.733L76.328,5.612C76.295,5.594 76.266,5.57 76.241,5.543L76.137,5.447C76.12,5.453 76.102,5.453 76.085,5.447L75.972,5.352C75.96,5.352 75.948,5.348 75.938,5.34C75.929,5.332 75.922,5.321 75.92,5.309L75.842,5.248L75.617,5.066L75.539,5.006C75.47,4.979 75.412,4.93 75.374,4.867C75.374,4.867 75.374,4.867 75.322,4.867L75.209,4.78C75.167,4.763 75.128,4.736 75.096,4.702C75.066,4.689 75.039,4.669 75.018,4.642C74.958,4.612 74.903,4.575 74.854,4.529L74.498,4.287L74.229,4.105C74.201,4.116 74.17,4.116 74.142,4.105L74.004,4.018L73.787,3.888L73.7,3.828L73.05,3.473C73.05,3.473 73.006,3.473 72.997,3.473L72.798,3.36C72.75,3.356 72.705,3.338 72.668,3.308L72.529,3.239C72.513,3.247 72.495,3.252 72.477,3.252C72.459,3.252 72.441,3.247 72.425,3.239L72.312,3.178C72.264,3.166 72.219,3.142 72.182,3.109C72.137,3.105 72.095,3.087 72.061,3.057C71.974,3.039 71.891,3.004 71.818,2.953L71.688,2.893C71.688,2.893 71.644,2.893 71.627,2.893L71.488,2.832C71.412,2.818 71.339,2.791 71.271,2.754L71.028,2.659C70.936,2.635 70.846,2.603 70.76,2.563L70.595,2.503C70.508,2.489 70.423,2.463 70.343,2.425L70.1,2.347L69.91,2.286C69.91,2.286 69.84,2.286 69.806,2.286C69.771,2.286 69.71,2.286 69.667,2.286L69.355,2.191C69.307,2.208 69.255,2.208 69.207,2.191L68.903,2.13L68.522,2.035C68.476,2.048 68.428,2.048 68.383,2.035C68.365,2.044 68.346,2.048 68.327,2.048C68.307,2.048 68.288,2.044 68.27,2.035C68.228,2.048 68.182,2.048 68.14,2.035C68.095,2.048 68.047,2.048 68.001,2.035C67.947,2.048 67.891,2.048 67.837,2.035C67.644,2.019 67.453,1.99 67.264,1.949L67.212,1.949C67.146,1.962 67.078,1.962 67.012,1.949C66.929,1.962 66.844,1.962 66.761,1.949C66.154,1.949 65.538,1.871 64.931,1.871C64.324,1.871 63.881,1.923 63.352,1.949C63.277,1.961 63.201,1.961 63.127,1.949C63.069,1.962 63.01,1.962 62.953,1.949L63.205,1.949C63.156,1.962 63.106,1.962 63.057,1.949C63.048,1.953 63.037,1.955 63.027,1.955C63.016,1.955 63.006,1.953 62.996,1.949C62.891,1.974 62.784,1.992 62.675,2.001C62.621,2.013 62.565,2.013 62.511,2.001C62.457,2.014 62.4,2.014 62.346,2.001L62.303,2.001L60.898,2.312C60.867,2.324 60.833,2.324 60.802,2.312C60.74,2.343 60.672,2.36 60.603,2.364C60.589,2.371 60.574,2.374 60.559,2.374C60.544,2.374 60.529,2.371 60.516,2.364C60.346,2.429 60.172,2.484 59.995,2.529L59.9,2.529C59.702,2.612 59.499,2.685 59.293,2.745C59.18,2.804 59.06,2.851 58.937,2.884C58.686,2.996 58.434,3.118 58.174,3.213L58.122,3.213C58.018,3.277 57.908,3.329 57.792,3.369L56.509,4.062L55.199,4.928C55.109,5.014 55.006,5.087 54.895,5.144L54.141,5.768L53.698,6.149L52.744,7.084C52.562,7.3 52.371,7.526 52.172,7.725C52.005,7.959 51.825,8.185 51.634,8.4L51.495,8.565C51.469,8.641 51.424,8.709 51.365,8.764C51.291,8.886 51.207,9.002 51.114,9.11C51.009,9.318 50.845,9.483 50.732,9.682C50.708,9.731 50.679,9.778 50.645,9.821C50.636,9.872 50.608,9.918 50.567,9.95C50.567,9.95 50.515,10.011 50.506,10.054C50.505,10.082 50.498,10.109 50.484,10.133C50.471,10.157 50.451,10.178 50.428,10.193C50.376,10.254 50.367,10.331 50.307,10.392C50.246,10.453 50.307,10.47 50.237,10.496C50.168,10.522 50.168,10.643 50.133,10.713C50.124,10.767 50.101,10.818 50.064,10.86L49.96,11.059C49.94,11.142 49.902,11.219 49.847,11.284L49.847,11.327C49.832,11.448 49.773,11.558 49.682,11.639C49.682,11.639 49.57,11.873 49.544,11.994C49.517,12.115 49.543,12.081 49.491,12.098C49.491,12.141 49.491,12.167 49.491,12.202C49.489,12.252 49.471,12.301 49.439,12.341C49.439,12.365 49.433,12.389 49.422,12.412C49.412,12.434 49.397,12.454 49.379,12.471C49.379,12.548 49.327,12.6 49.327,12.678C49.328,12.703 49.323,12.728 49.312,12.751C49.301,12.773 49.286,12.793 49.266,12.808C49.266,12.86 49.266,12.903 49.222,12.947C49.179,12.99 49.222,13.007 49.222,13.025C49.222,13.042 49.145,13.163 49.162,13.241C49.163,13.271 49.159,13.301 49.148,13.33C49.138,13.358 49.122,13.384 49.101,13.406L48.997,13.761C49,13.827 48.978,13.892 48.936,13.943L48.936,14.003C48.926,14.09 48.903,14.175 48.867,14.254C48.859,14.32 48.841,14.384 48.815,14.445L48.815,14.549C48.802,14.661 48.776,14.772 48.737,14.878C48.727,14.898 48.722,14.92 48.722,14.943C48.722,14.965 48.727,14.988 48.737,15.008C48.737,15.083 48.719,15.157 48.685,15.224C48.673,15.374 48.644,15.523 48.598,15.666C48.611,15.711 48.611,15.759 48.598,15.805C48.611,15.85 48.611,15.898 48.598,15.943C48.611,15.988 48.611,16.036 48.598,16.082C48.598,16.367 48.537,16.645 48.485,16.948C48.499,17.048 48.499,17.15 48.485,17.251L48.485,17.32C48.485,17.433 48.485,17.554 48.433,17.658C48.381,17.762 48.485,17.718 48.433,17.762C48.45,17.92 48.45,18.08 48.433,18.238C48.45,18.332 48.45,18.429 48.433,18.524L48.433,18.818C48.282,18.858 48.122,18.852 47.974,18.801Z" fill="#A41E22"/>
<path d="M69.996,14.409L70.003,14.402L69.996,14.409Z" fill="#A41E22"/>
<path d="M77.447,30.786C77.178,30.765 76.909,30.765 76.64,30.786C76.536,30.786 76.502,30.786 76.51,30.916L76.51,33.601C76.51,33.705 76.51,33.731 76.64,33.722L77.195,33.722C77.445,33.735 77.694,33.675 77.91,33.551C78.127,33.427 78.304,33.242 78.418,33.021C78.564,32.701 78.612,32.345 78.557,31.999C78.547,31.698 78.43,31.41 78.226,31.188C78.023,30.966 77.746,30.823 77.447,30.786Z" fill="#A41E22"/>
<path d="M68.713,30.726L68.019,30.726C67.941,30.726 67.923,30.726 67.923,30.83L67.923,31.903C67.923,31.964 67.923,31.99 68.001,31.99L68.808,31.99C68.927,31.993 69.044,31.955 69.139,31.883C69.234,31.81 69.301,31.708 69.328,31.592C69.373,31.494 69.391,31.386 69.38,31.279C69.37,31.172 69.332,31.07 69.27,30.982C69.207,30.894 69.123,30.825 69.025,30.78C68.927,30.735 68.82,30.716 68.713,30.726Z" fill="#A41E22"/>
<path d="M62.19,30.717C61.919,30.695 61.646,30.695 61.374,30.717C61.305,30.717 61.305,30.76 61.305,30.803L61.305,31.895C61.305,31.947 61.305,31.99 61.374,31.99C61.637,32.007 61.901,32.007 62.164,31.99C62.237,31.984 62.308,31.965 62.373,31.932C62.439,31.898 62.497,31.853 62.544,31.797C62.592,31.742 62.628,31.677 62.65,31.608C62.673,31.538 62.681,31.465 62.675,31.392C62.693,31.316 62.694,31.236 62.679,31.159C62.663,31.082 62.631,31.009 62.585,30.945C62.54,30.881 62.48,30.828 62.412,30.788C62.344,30.749 62.268,30.725 62.19,30.717Z" fill="#A41E22"/>
<path d="M69.346,16.073C68.218,14.133 67.093,12.19 65.972,10.245C65.921,10.145 65.843,10.06 65.748,10.002C65.652,9.943 65.542,9.912 65.429,9.912C65.317,9.912 65.207,9.943 65.111,10.002C65.015,10.06 64.938,10.145 64.887,10.245C64.306,11.249 63.725,12.245 63.153,13.25L57.844,22.421C57.784,22.514 57.748,22.622 57.74,22.733C57.735,22.819 57.748,22.905 57.779,22.986C57.81,23.067 57.858,23.14 57.92,23.2C57.981,23.261 58.055,23.308 58.137,23.338C58.218,23.368 58.304,23.38 58.391,23.373L72.46,23.373C72.543,23.379 72.626,23.368 72.705,23.341C72.784,23.314 72.857,23.272 72.919,23.217C73.03,23.115 73.099,22.975 73.113,22.825C73.128,22.675 73.087,22.525 72.997,22.403L69.346,16.073ZM65.919,21.78C65.862,21.855 65.788,21.916 65.703,21.959C65.618,22.001 65.524,22.022 65.429,22.022C65.335,22.022 65.241,22.001 65.156,21.959C65.071,21.916 64.997,21.855 64.939,21.78C64.816,21.626 64.749,21.436 64.749,21.239C64.749,21.042 64.816,20.851 64.939,20.697C64.996,20.615 65.072,20.548 65.16,20.502C65.249,20.455 65.347,20.431 65.447,20.431C65.547,20.431 65.645,20.455 65.734,20.502C65.822,20.548 65.898,20.615 65.954,20.697C66.06,20.863 66.114,21.056 66.11,21.252C66.107,21.444 66.04,21.63 65.919,21.78ZM66.015,17.45C65.954,18.203 65.885,18.965 65.833,19.727C65.833,19.849 65.781,19.901 65.651,19.883C65.521,19.866 65.33,19.883 65.165,19.883C65,19.883 65.044,19.883 65.035,19.779C64.974,18.913 64.896,18.047 64.827,17.251C64.827,16.783 64.74,16.315 64.705,15.839C64.705,15.614 64.705,15.389 64.705,15.164C64.705,14.973 64.705,14.791 64.705,14.61C64.702,14.495 64.722,14.38 64.764,14.273C64.806,14.166 64.868,14.069 64.948,13.986C65.013,13.91 65.095,13.851 65.187,13.812C65.28,13.773 65.379,13.756 65.479,13.761C65.579,13.767 65.676,13.796 65.763,13.846C65.85,13.895 65.924,13.964 65.98,14.047C66.104,14.218 66.171,14.424 66.171,14.636C66.176,15.579 66.124,16.521 66.015,17.459L66.015,17.45Z" fill="#A41E22"/>
<path d="M103.971,3.273C103.971,3.516 104.032,3.594 104.292,3.602C105.16,3.602 105.16,3.603 105.16,4.52C105.168,4.607 105.168,4.694 105.16,4.78C105.09,5.179 105.281,5.196 105.611,5.135C107.316,4.845 109.058,4.845 110.763,5.135C111.058,5.187 111.248,5.179 111.188,4.806C111.179,4.7 111.179,4.592 111.188,4.486C111.188,3.62 111.188,3.62 112.055,3.62C112.341,3.62 112.445,3.551 112.437,3.247C112.437,2.381 112.437,1.446 112.437,0.554C112.437,0.156 112.359,0.017 111.925,0.017C109.627,0.017 107.337,0.017 105.047,0.017C103.911,0.017 103.911,0.017 103.989,1.16L103.989,2.113C103.971,2.494 103.971,2.884 103.971,3.273Z" fill="#F08921"/>
<path d="M124.485,8.279C123.253,7.075 122.039,5.854 120.825,4.642L120.547,4.382L119.853,5.144C119.541,5.473 118.986,5.776 118.986,6.131C118.986,6.486 119.541,6.781 119.853,7.118L119.931,7.188C120.122,7.326 120.096,7.447 119.931,7.603C119.61,7.898 119.315,8.227 118.986,8.53C118.795,8.703 118.751,8.816 118.986,9.015C119.378,9.37 119.752,9.746 120.105,10.141C120.278,10.331 120.382,10.392 120.582,10.141C120.781,9.89 121.215,9.526 121.501,9.197C121.787,8.868 121.813,9.006 121.995,9.197C122.177,9.387 122.524,9.708 122.767,9.985C123.01,10.262 123.045,10.175 123.218,9.985C123.635,9.534 124.086,9.119 124.519,8.677C124.658,8.565 124.667,8.461 124.485,8.279Z" fill="#F08921"/>
<path d="M123.227,18.662C123.239,18.293 123.189,17.924 123.079,17.571C122.603,15.349 121.634,13.261 120.245,11.461C118.856,9.66 117.081,8.193 115.051,7.166C113.02,6.139 110.785,5.578 108.509,5.525C106.234,5.472 103.975,5.928 101.898,6.859C98.876,8.223 96.38,10.533 94.788,13.439C93.197,16.345 92.596,19.689 93.077,22.966C93.303,24.775 93.893,26.518 94.812,28.093C95.056,28.633 95.374,29.138 95.757,29.591C97.129,31.562 98.971,33.16 101.118,34.241C102.503,35.007 104.022,35.504 105.593,35.705C105.76,35.796 105.952,35.829 106.14,35.8C106.313,35.8 106.487,35.878 106.66,35.896C112.506,36.268 117.225,34.164 120.642,29.383C122.744,26.477 123.673,22.888 123.245,19.329C123.307,19.11 123.301,18.878 123.227,18.662ZM114.987,31.496C113.016,32.749 110.739,33.441 108.403,33.497L107.874,33.497C104.645,33.402 101.568,32.101 99.253,29.851C98.407,29.01 97.67,28.068 97.058,27.045L96.868,26.725C95.87,24.762 95.367,22.586 95.402,20.386C95.491,17.356 96.659,14.457 98.695,12.208C100.731,9.959 103.502,8.508 106.513,8.114C108.915,7.798 111.358,8.17 113.556,9.188L113.894,9.318L114.224,9.5C114.404,9.647 114.61,9.762 114.831,9.838L115.074,10.002C117.36,11.497 119.117,13.672 120.096,16.22C120.519,17.357 120.791,18.545 120.902,19.753L120.902,21.763C120.741,23.732 120.123,25.637 119.096,27.327C118.069,29.017 116.663,30.444 114.987,31.496Z" fill="#F08921"/>
<path d="M110.103,22.784C110,22.614 109.949,22.418 109.957,22.219C109.965,22.021 110.031,21.829 110.147,21.667C110.318,21.377 110.391,21.04 110.355,20.706C110.361,20.287 110.238,19.876 110.002,19.529C109.766,19.182 109.429,18.915 109.037,18.766C108.878,18.705 108.737,18.607 108.624,18.48C108.511,18.354 108.429,18.203 108.386,18.039C107.553,15.729 106.712,13.42 105.862,11.111C105.793,10.92 105.767,10.643 105.463,10.738C105.16,10.834 105.272,11.05 105.307,11.267C105.749,13.752 106.174,16.246 106.634,18.732C106.666,18.855 106.666,18.984 106.636,19.108C106.606,19.232 106.546,19.346 106.461,19.442C106.277,19.646 106.137,19.884 106.048,20.144C105.96,20.403 105.924,20.678 105.945,20.951C105.965,21.225 106.04,21.491 106.166,21.735C106.292,21.978 106.466,22.194 106.678,22.369C106.952,22.569 107.178,22.829 107.337,23.129C107.496,23.429 107.585,23.761 107.597,24.101C107.597,24.36 107.727,24.62 107.736,24.88C107.736,25.278 107.953,25.356 108.291,25.261L110.32,24.715C110.659,24.629 110.737,24.464 110.607,24.144C110.477,23.824 110.286,23.217 110.103,22.784Z" fill="#F08921"/>
<path d="M120.026,21.33L120.026,19.927L118.023,20.645L120.026,21.33Z" fill="#F08921"/>
<path d="M118.595,15.077C118.396,14.783 118.222,14.462 118.031,14.125L116.67,15.718L118.405,15.415C118.613,15.38 118.76,15.328 118.595,15.077Z" fill="#F08921"/>
<path d="M97.657,26.127C97.657,26.37 97.865,26.508 97.908,26.725L98.316,27.339L99.652,25.763L98.169,25.989C98.021,26.127 97.822,26.058 97.657,26.127Z" fill="#F08921"/>
<path d="M108.066,10.886L108.438,9.812C108.785,8.825 108.785,8.842 107.71,8.877C107.424,8.877 107.38,8.972 107.467,9.214C107.657,9.734 107.84,10.253 108.066,10.886Z" fill="#F08921"/>
<path d="M102.67,31.254C102.904,31.401 102.965,31.315 103,31.089C103.095,30.527 103.199,29.964 103.321,29.357L101.707,30.726C102.072,30.899 102.384,31.063 102.67,31.254Z" fill="#F08921"/>
<path d="M118.457,25.876C117.919,25.807 117.39,25.685 116.722,25.573L118.109,27.175C118.3,26.846 118.448,26.569 118.621,26.309C118.795,26.049 118.804,25.928 118.457,25.876Z" fill="#F08921"/>
<path d="M113.573,31.254L114.788,30.552L113.174,29.167C113.321,29.963 113.443,30.604 113.573,31.254Z" fill="#F08921"/>
<path d="M98.195,14.298L97.492,15.519L99.574,15.891L98.195,14.298Z" fill="#F08921"/>
<path d="M102.757,10.193L101.777,10.747C101.673,10.808 101.525,10.86 101.69,11.007L103.147,12.263C103,11.492 102.887,10.868 102.757,10.193Z" fill="#F08921"/>
<path d="M113.4,10.097C113.27,10.764 113.157,11.37 113.036,11.985L113.148,12.046L114.622,10.782L113.4,10.097Z" fill="#F08921"/>
<path d="M96.338,20.143L96.338,21.52L98.307,20.836L96.338,20.143Z" fill="#F08921"/>
<path d="M107.571,32.544L108.959,32.544C108.733,31.903 108.516,31.297 108.265,30.57C108.005,31.306 107.796,31.912 107.571,32.544Z" fill="#F08921"/>
<path d="M151.677,24.759L151.59,24.447L151.503,24.257L151.503,24.196L151.443,24.092C151.359,23.967 151.284,23.837 151.217,23.702L151.087,23.477C151.087,23.477 151.035,23.425 151.035,23.382L150.974,23.278C150.928,23.225 150.893,23.163 150.87,23.096L150.749,22.888C150.722,22.858 150.701,22.823 150.688,22.784L150.636,22.68C150.581,22.616 150.537,22.543 150.506,22.464L150.445,22.36C150.419,22.327 150.401,22.289 150.393,22.247C150.367,22.229 150.348,22.201 150.341,22.17C150.314,22.139 150.294,22.104 150.281,22.066C150.245,22.026 150.218,21.978 150.202,21.927L150.142,21.823C150.104,21.784 150.078,21.737 150.064,21.685L150.064,21.641C150.021,21.594 149.988,21.538 149.968,21.477L149.855,21.295C149.824,21.253 149.8,21.206 149.786,21.156C149.764,21.139 149.749,21.114 149.743,21.087L149.638,20.905C149.594,20.854 149.559,20.795 149.534,20.732C149.526,20.71 149.526,20.685 149.534,20.663C149.521,20.654 149.51,20.643 149.503,20.629C149.495,20.616 149.491,20.6 149.491,20.585L149.387,20.42C149.348,20.379 149.321,20.328 149.309,20.273C149.264,20.217 149.227,20.156 149.196,20.091C149.192,20.082 149.19,20.071 149.19,20.061C149.19,20.05 149.192,20.04 149.196,20.031L149.109,19.892C149.083,19.861 149.062,19.826 149.049,19.788L148.979,19.667C148.925,19.591 148.878,19.51 148.841,19.424L148.797,19.364C148.791,19.338 148.791,19.311 148.797,19.286C148.766,19.256 148.744,19.216 148.736,19.173C148.705,19.15 148.684,19.116 148.676,19.078C148.649,19.047 148.629,19.012 148.615,18.974C148.578,18.933 148.549,18.886 148.528,18.835L148.528,18.749L148.528,18.688C148.515,18.68 148.505,18.668 148.497,18.655C148.49,18.641 148.485,18.626 148.485,18.61L148.442,18.55C148.398,18.496 148.366,18.434 148.346,18.368L148.277,18.264C148.243,18.223 148.216,18.176 148.199,18.125C148.174,18.091 148.153,18.053 148.138,18.013C148.102,17.971 148.073,17.925 148.051,17.874C147.991,17.787 147.939,17.694 147.895,17.597C147.878,17.583 147.864,17.566 147.853,17.547C147.843,17.528 147.836,17.506 147.834,17.484L147.739,17.337C147.704,17.301 147.68,17.256 147.669,17.207L147.565,17.034C147.519,16.981 147.484,16.919 147.462,16.852C147.435,16.822 147.414,16.787 147.401,16.748C147.359,16.692 147.325,16.631 147.297,16.567C147.297,16.515 147.218,16.489 147.218,16.428C147.189,16.4 147.168,16.364 147.158,16.324L147.097,16.22C147.038,16.146 146.988,16.064 146.95,15.978C146.915,15.933 146.889,15.884 146.872,15.83C146.82,15.771 146.779,15.704 146.75,15.631L146.689,15.527L146.525,15.242L146.473,15.164L146.473,15.103L146.256,14.835L146.195,14.774C146.134,14.774 146.108,14.696 146.056,14.67L145.987,14.67L145.9,14.618L145.579,14.514C145.539,14.523 145.498,14.523 145.458,14.514L144.738,14.514C144.719,14.522 144.698,14.526 144.677,14.526C144.656,14.526 144.636,14.522 144.616,14.514C144.603,14.52 144.588,14.524 144.573,14.524C144.558,14.524 144.543,14.52 144.529,14.514C144.517,14.52 144.504,14.523 144.491,14.523C144.477,14.523 144.464,14.52 144.452,14.514L144.209,14.618C144.189,14.625 144.167,14.625 144.148,14.618L144.079,14.618C144.079,14.618 144,14.679 143.966,14.705L143.801,14.86C143.801,14.86 143.801,14.921 143.74,14.93L143.654,15.051C143.625,15.124 143.584,15.191 143.532,15.25L143.454,15.389C143.449,15.421 143.434,15.452 143.411,15.475C143.394,15.512 143.373,15.547 143.35,15.579C143.35,15.579 143.35,15.631 143.307,15.64C143.307,15.64 143.194,15.822 143.159,15.917C143.153,15.958 143.131,15.995 143.098,16.021C143.092,16.062 143.071,16.099 143.038,16.125L142.977,16.229C142.949,16.307 142.908,16.38 142.856,16.445L142.812,16.506C142.811,16.527 142.805,16.547 142.795,16.565C142.784,16.583 142.769,16.599 142.752,16.61L142.674,16.757L142.569,16.948C142.544,17.022 142.502,17.09 142.448,17.147L142.344,17.329C142.332,17.384 142.305,17.435 142.266,17.476C142.266,17.476 142.266,17.528 142.223,17.536C142.223,17.536 142.222,17.597 142.179,17.606L142.084,17.788C142.067,17.84 142.037,17.888 141.997,17.926C141.996,17.947 141.99,17.967 141.979,17.986C141.969,18.004 141.954,18.019 141.936,18.03L141.858,18.169C141.858,18.184 141.854,18.199 141.846,18.213C141.838,18.227 141.828,18.238 141.815,18.247L141.633,18.558C141.615,18.627 141.579,18.69 141.528,18.74L141.468,18.844C141.418,18.969 141.351,19.085 141.268,19.19C141.276,19.213 141.276,19.237 141.268,19.26C141.164,19.424 141.069,19.589 140.974,19.762C140.963,19.815 140.936,19.864 140.895,19.901L140.835,20.005C140.835,20.005 140.835,20.048 140.835,20.065L140.731,20.247C140.721,20.287 140.7,20.323 140.67,20.351C140.658,20.393 140.638,20.431 140.609,20.464L140.505,20.637C140.462,20.736 140.407,20.829 140.34,20.914L140.202,21.165C140.199,21.187 140.191,21.207 140.179,21.225C140.167,21.243 140.151,21.258 140.132,21.269L140.037,21.451C140.025,21.49 140.004,21.526 139.976,21.555C139.97,21.582 139.955,21.607 139.933,21.624L139.889,21.693C139.876,21.748 139.849,21.798 139.811,21.84C139.799,21.877 139.778,21.91 139.75,21.936L139.69,22.04C139.69,22.055 139.685,22.07 139.678,22.084C139.67,22.098 139.659,22.109 139.646,22.118L139.646,22.178C139.626,22.248 139.59,22.313 139.542,22.369C139.516,22.431 139.481,22.489 139.438,22.542L139.317,22.75C139.307,22.79 139.286,22.826 139.256,22.854C139.255,22.869 139.25,22.884 139.242,22.897C139.235,22.911 139.225,22.922 139.213,22.932L139.03,23.243C139.017,23.295 138.99,23.343 138.953,23.382C138.928,23.448 138.893,23.509 138.848,23.564L138.762,23.711C138.75,23.761 138.722,23.807 138.684,23.841L138.579,24.014C138.562,24.073 138.536,24.128 138.501,24.179C138.506,24.207 138.506,24.237 138.501,24.265C138.496,24.278 138.493,24.291 138.493,24.304C138.493,24.318 138.496,24.331 138.501,24.343L138.501,24.49C138.501,24.49 138.501,24.56 138.501,24.594L138.501,25.001C138.528,25.068 138.543,25.138 138.545,25.209L138.588,25.322C138.612,25.369 138.632,25.418 138.649,25.469C138.702,25.581 138.769,25.686 138.848,25.781C138.888,25.803 138.921,25.836 138.944,25.876L138.987,25.928C138.987,25.928 139.048,25.928 139.048,25.98L139.169,26.067C139.237,26.084 139.299,26.117 139.352,26.162C139.385,26.148 139.422,26.148 139.456,26.162C139.456,26.162 139.499,26.162 139.516,26.162L139.95,26.231L149.942,26.231C150.238,26.246 150.533,26.199 150.809,26.093L150.887,26.093C150.887,26.093 150.888,26.093 150.931,26.093L151.035,26.032L151.113,25.963C151.113,25.963 151.165,25.902 151.2,25.893L151.278,25.807L151.382,25.685L151.512,25.46L151.564,25.356C151.556,25.325 151.556,25.292 151.564,25.261C151.556,25.239 151.556,25.214 151.564,25.192C151.599,24.991 151.599,24.786 151.564,24.586L151.677,24.759ZM150.411,25.677C150.318,25.69 150.225,25.69 150.133,25.677L139.62,25.677C139.469,25.683 139.32,25.642 139.192,25.559C139.065,25.477 138.966,25.358 138.909,25.218C138.859,25.109 138.838,24.989 138.847,24.869C138.856,24.75 138.895,24.634 138.961,24.534L139.889,22.932L143.359,16.87L144.226,15.389C144.29,15.269 144.385,15.169 144.501,15.099C144.617,15.029 144.75,14.993 144.885,14.993C145.021,14.993 145.154,15.029 145.27,15.099C145.386,15.169 145.481,15.269 145.545,15.389C146.834,17.612 148.124,19.843 149.413,22.083C149.882,22.888 150.35,23.685 150.809,24.49C150.887,24.589 150.939,24.705 150.959,24.829C150.98,24.953 150.969,25.079 150.928,25.198C150.886,25.316 150.815,25.422 150.722,25.506C150.628,25.589 150.515,25.648 150.393,25.677L150.411,25.677Z" fill="#F08921"/>
<path d="M147.799,19.996C146.932,18.541 146.126,17.086 145.284,15.666C145.248,15.589 145.19,15.524 145.118,15.478C145.046,15.432 144.962,15.408 144.877,15.408C144.791,15.408 144.708,15.432 144.635,15.478C144.563,15.524 144.505,15.589 144.469,15.666L143.168,17.909L139.204,24.767C139.16,24.838 139.133,24.918 139.126,25.001C139.122,25.066 139.132,25.13 139.155,25.19C139.178,25.25 139.214,25.305 139.26,25.35C139.306,25.395 139.361,25.43 139.422,25.452C139.482,25.474 139.547,25.483 139.612,25.478L150.133,25.478C150.256,25.486 150.378,25.446 150.471,25.365C150.556,25.289 150.609,25.184 150.622,25.071C150.635,24.957 150.606,24.843 150.541,24.75C149.621,23.134 148.707,21.549 147.799,19.996ZM145.241,24.257C145.198,24.312 145.143,24.357 145.08,24.388C145.016,24.419 144.947,24.436 144.877,24.436C144.806,24.436 144.737,24.419 144.673,24.388C144.61,24.357 144.555,24.312 144.513,24.257C144.422,24.14 144.374,23.997 144.374,23.849C144.374,23.702 144.422,23.559 144.513,23.442C144.555,23.38 144.611,23.329 144.678,23.293C144.744,23.258 144.819,23.239 144.894,23.239C144.97,23.239 145.044,23.258 145.11,23.293C145.177,23.329 145.234,23.38 145.276,23.442C145.36,23.565 145.402,23.71 145.397,23.858C145.384,23.993 145.33,24.12 145.241,24.222L145.241,24.257ZM145.319,21.026C145.267,21.598 145.223,22.161 145.18,22.758C145.18,22.854 145.18,22.888 145.042,22.88L144.677,22.88C144.617,22.88 144.59,22.88 144.582,22.793L144.426,20.905C144.426,20.559 144.356,20.204 144.339,19.857C144.33,19.687 144.33,19.517 144.339,19.346C144.339,19.208 144.339,19.069 144.339,18.931C144.333,18.758 144.396,18.59 144.513,18.463C144.563,18.407 144.625,18.362 144.695,18.334C144.765,18.305 144.84,18.293 144.915,18.298C144.991,18.303 145.064,18.325 145.13,18.363C145.195,18.4 145.251,18.452 145.293,18.515C145.385,18.641 145.433,18.792 145.432,18.948C145.431,19.631 145.393,20.313 145.319,20.992L145.319,21.026Z" fill="#F08921"/>
<path d="M140.401,3.75C140.401,3.992 140.453,4.079 140.713,4.087C141.58,4.087 141.58,4.087 141.58,4.953C141.589,5.04 141.589,5.127 141.58,5.213C141.52,5.612 141.71,5.629 142.031,5.577C143.736,5.287 145.478,5.287 147.184,5.577C147.478,5.629 147.669,5.629 147.609,5.248C147.6,5.141 147.6,5.034 147.609,4.927C147.609,4.061 147.609,4.061 148.476,4.061C148.771,4.061 148.866,3.992 148.866,3.68C148.866,2.814 148.866,1.888 148.866,0.987C148.866,0.589 148.788,0.45 148.355,0.459C146.065,0.459 143.775,0.459 141.477,0.459C140.34,0.459 140.34,0.459 140.418,1.602L140.418,2.555C140.401,2.979 140.401,3.36 140.401,3.75Z" fill="#F08921"/>
<path d="M160.914,8.738L157.254,5.092L156.976,4.832C156.733,5.109 156.517,5.361 156.282,5.594C156.048,5.828 155.415,6.227 155.415,6.59C155.415,6.954 155.97,7.231 156.282,7.569L156.36,7.638C156.551,7.785 156.525,7.898 156.36,8.054C156.039,8.357 155.745,8.686 155.424,8.98C155.103,9.275 155.181,9.266 155.424,9.474C155.813,9.827 156.184,10.2 156.534,10.591C156.708,10.79 156.811,10.842 157.011,10.591C157.21,10.34 157.644,9.976 157.939,9.656C158.234,9.336 158.251,9.465 158.425,9.656C158.598,9.846 158.954,10.175 159.206,10.444C159.457,10.712 159.474,10.634 159.648,10.444C160.073,9.994 160.515,9.578 160.958,9.136C161.088,9.041 161.096,8.937 160.914,8.738Z" fill="#F08921"/>
<path d="M159.665,19.13C159.671,18.76 159.618,18.392 159.509,18.039C159.033,15.817 158.066,13.729 156.678,11.929C155.29,10.128 153.515,8.661 151.485,7.634C149.455,6.607 147.221,6.046 144.946,5.993C142.67,5.94 140.412,6.395 138.337,7.327C135.312,8.686 132.813,10.993 131.221,13.899C129.629,16.804 129.031,20.149 129.515,23.425C129.748,25.241 130.353,26.989 131.293,28.561C131.531,29.103 131.847,29.607 132.23,30.059C133.607,32.026 135.448,33.623 137.59,34.709C138.981,35.465 140.497,35.961 142.066,36.173C142.234,36.261 142.426,36.291 142.612,36.26C142.783,36.304 142.957,36.336 143.133,36.355C148.988,36.736 153.698,34.623 157.115,29.842C159.221,26.938 160.151,23.347 159.717,19.788C159.765,19.569 159.747,19.34 159.665,19.13ZM151.417,31.956C149.446,33.209 147.169,33.9 144.833,33.956L144.304,33.956C141.075,33.864 137.999,32.566 135.682,30.319C134.837,29.475 134.099,28.53 133.488,27.504L133.297,27.193C132.303,25.226 131.8,23.048 131.831,20.845C131.924,17.816 133.093,14.919 135.128,12.671C137.164,10.423 139.933,8.971 142.942,8.574C145.345,8.256 147.789,8.631 149.985,9.656C150.098,9.708 150.22,9.743 150.333,9.786L150.653,9.959C150.832,10.11 151.038,10.224 151.26,10.297L151.512,10.47C153.794,11.964 155.548,14.136 156.525,16.679C156.948,17.817 157.219,19.005 157.332,20.213C157.332,20.879 157.332,21.555 157.332,22.222C157.171,24.194 156.553,26.101 155.526,27.794C154.499,29.486 153.093,30.917 151.417,31.973L151.417,31.956Z" fill="#F08921"/>
<path d="M156.456,21.806L156.456,20.412L154.453,21.122L156.456,21.806Z" fill="#F08921"/>
<path d="M155.025,15.562C154.834,15.259 154.661,14.939 154.461,14.601L153.099,16.194L154.834,15.891C155.042,15.857 155.19,15.813 155.025,15.562Z" fill="#F08921"/>
<path d="M134.087,26.603C134.087,26.846 134.294,26.984 134.338,27.21L134.746,27.816C135.197,27.288 135.613,26.794 136.09,26.248L134.598,26.473C134.451,26.612 134.26,26.534 134.087,26.603Z" fill="#F08921"/>
<path d="M144.495,11.336L144.868,10.271C145.215,9.284 145.215,9.292 144.139,9.327C143.853,9.327 143.81,9.431 143.896,9.673C144.087,10.21 144.27,10.73 144.495,11.336Z" fill="#F08921"/>
<path d="M139.1,31.73C139.334,31.886 139.395,31.791 139.429,31.566C139.525,31.003 139.629,30.44 139.75,29.834C139.187,30.31 138.684,30.7 138.146,31.202C138.501,31.375 138.814,31.54 139.1,31.73Z" fill="#F08921"/>
<path d="M154.886,26.352C154.349,26.283 153.819,26.171 153.152,26.049L154.539,27.651C154.73,27.331 154.878,27.054 155.051,26.785C155.225,26.517 155.233,26.404 154.886,26.352Z" fill="#F08921"/>
<path d="M150.012,31.773L151.226,31.063L149.604,29.686C149.751,30.44 149.873,31.089 150.012,31.773Z" fill="#F08921"/>
<path d="M134.624,14.8L133.922,16.021L136.004,16.393L134.624,14.8Z" fill="#F08921"/>
<path d="M139.586,12.748C139.429,11.968 139.317,11.353 139.187,10.669L138.207,11.232C138.102,11.293 137.955,11.336 138.12,11.483C138.571,11.882 139.022,12.263 139.586,12.748Z" fill="#F08921"/>
<path d="M151.052,11.258L149.829,10.574C149.699,11.241 149.586,11.855 149.474,12.47L149.578,12.531L151.052,11.258Z" fill="#F08921"/>
<path d="M132.777,20.628L132.777,22.005L134.737,21.312L132.777,20.628Z" fill="#F08921"/>
<path d="M144.009,32.986L145.388,32.986L144.695,31.02C144.443,31.782 144.226,32.388 144.009,32.986Z" fill="#F08921"/>
</svg>
